<svg width="96" height="96" viewBox="0 0 96 96" fill="none" xmlns="http://www.w3.org/2000/svg">
    <circle cx="48" cy="48" r="48" fill="#F7F7F7"/>
    <path d="M30.0423 47.0344L31.6746 50.3045L53.4816 41.758L50.416 35.6133L30.0423 47.0344Z" fill="white"/>
    <path d="M31.5117 50.7266L29.6015 46.8982L50.5576 35.1511L53.9438 41.9357L31.5117 50.7266ZM30.4831 47.1693L31.8363 49.8824L53.0195 41.5763L50.2731 36.0728L30.4831 47.1693Z" fill="#191919"/>
    <path d="M32.2997 51.329L30.3481 54.4188L51.0638 67.4883L53.7795 63.1897L32.2997 51.329Z" fill="white"/>
    <path d="M51.168 67.9478L29.8887 54.523L32.1862 50.8842L54.2524 63.0681L51.168 67.9478ZM30.809 54.3146L50.9596 67.0274L53.308 63.3099L32.4133 51.7739L30.809 54.3146Z" fill="#191919"/>
    <path d="M57.5852 77.074C62.5502 77.074 66.5752 73.0491 66.5752 68.084C66.5752 63.119 62.5502 59.0941 57.5852 59.0941C52.6202 59.0941 48.5952 63.119 48.5952 68.084C48.5952 73.0491 52.6202 77.074 57.5852 77.074Z" fill="white"/>
    <path d="M57.5852 73.8801C60.7863 73.8801 63.3813 71.2851 63.3813 68.084C63.3813 64.883 60.7863 62.288 57.5852 62.288C54.3842 62.288 51.7892 64.883 51.7892 68.084C51.7892 71.2851 54.3842 73.8801 57.5852 73.8801Z" fill="white"/>
    <path d="M58.173 74.4598C61.5044 73.4353 62.9631 72.4788 63.8715 69.8353C64.7798 67.1917 65.6882 65.7063 67.1749 66.1191C68.6617 66.5318 69.3229 67.4549 68.6617 70.2601C68.0005 73.0653 66.109 75.3161 63.5456 77.0793C60.9821 78.8426 59.5769 78.8413 58.173 78.7598C56.769 78.6783 56.2294 75.0583 58.173 74.4598Z" fill="#02B5FF"/>
    <path d="M57.5852 77.4093C55.7408 77.4096 53.9377 76.8629 52.404 75.8384C50.8703 74.8139 49.6749 73.3575 48.9689 71.6536C48.2628 69.9496 48.078 68.0746 48.4376 66.2656C48.7973 64.4566 49.6853 62.7949 50.9895 61.4906C52.2936 60.1863 53.9552 59.298 55.7641 58.9381C57.5731 58.5782 59.4481 58.7627 61.1522 59.4685C62.8562 60.1743 64.3127 61.3695 65.3375 62.9031C66.3622 64.4366 66.9091 66.2396 66.9091 68.084C66.9067 70.5563 65.9236 72.9265 64.1756 74.6748C62.4276 76.423 60.0574 77.4065 57.5852 77.4093ZM57.5852 59.428C55.8728 59.4278 54.1988 59.9353 52.7749 60.8865C51.351 61.8377 50.2412 63.1898 49.5858 64.7717C48.9304 66.3537 48.7588 68.0945 49.0928 69.774C49.4268 71.4535 50.2514 72.9962 51.4622 74.2071C52.673 75.4179 54.2158 76.2424 55.8952 76.5764C57.5747 76.9105 59.3155 76.7389 60.8975 76.0835C62.4795 75.4281 63.8316 74.3182 64.7828 72.8943C65.7339 71.4704 66.2415 69.7964 66.2412 68.084C66.2388 65.7891 65.326 63.5888 63.7032 61.9661C62.0804 60.3433 59.8802 59.4305 57.5852 59.428Z" fill="#191919"/>
    <path d="M57.5852 74.214C56.3728 74.214 55.1877 73.8545 54.1796 73.181C53.1715 72.5074 52.3858 71.55 51.9219 70.4299C51.4579 69.3098 51.3365 68.0772 51.573 66.8881C51.8095 65.699 52.3934 64.6068 53.2507 63.7495C54.108 62.8922 55.2002 62.3083 56.3893 62.0718C57.5784 61.8353 58.811 61.9567 59.9311 62.4207C61.0512 62.8846 62.0086 63.6703 62.6822 64.6784C63.3557 65.6865 63.7152 66.8716 63.7152 68.084C63.7131 69.7092 63.0666 71.2671 61.9175 72.4163C60.7683 73.5654 59.2104 74.2119 57.5852 74.214ZM57.5852 62.6233C56.5049 62.6233 55.4488 62.9437 54.5505 63.5439C53.6523 64.1441 52.9522 64.9973 52.5388 65.9954C52.1254 66.9936 52.0173 68.0919 52.2282 69.1515C52.4391 70.2111 52.9594 71.1843 53.7234 71.9481C54.4874 72.712 55.4608 73.2321 56.5205 73.4427C57.5801 73.6533 58.6784 73.5449 59.6764 73.1313C60.6745 72.7177 61.5274 72.0174 62.1275 71.119C62.7275 70.2206 63.0476 69.1644 63.0473 68.084C63.0452 66.6362 62.469 65.2482 61.4451 64.2246C60.4212 63.2009 59.0331 62.625 57.5852 62.6233Z" fill="#191919"/>
    <path d="M58.8556 47.5701C65.5617 47.5701 70.998 42.1337 70.998 35.4276C70.998 28.7215 65.5617 23.2852 58.8556 23.2852C52.1495 23.2852 46.7131 28.7215 46.7131 35.4276C46.7131 42.1337 52.1495 47.5701 58.8556 47.5701Z" fill="white"/>
    <path d="M58.8556 43.2554C63.1787 43.2554 66.6834 39.7508 66.6834 35.4276C66.6834 31.1044 63.1787 27.5998 58.8556 27.5998C54.5324 27.5998 51.0277 31.1044 51.0277 35.4276C51.0277 39.7508 54.5324 43.2554 58.8556 43.2554Z" fill="white"/>
    <path d="M60.1914 25.9167C55.5361 26.6273 53.3988 27.6185 51.6623 30.9714C49.9257 34.3242 48.4189 36.1289 46.5141 35.2847C44.6092 34.4405 43.9093 33.0753 45.3453 29.4633C46.7812 25.8512 49.7534 23.2117 53.5284 21.3629C57.3034 19.5142 59.1788 19.7907 61.0383 20.1781C62.8977 20.5655 62.9057 25.5013 60.1914 25.9167Z" fill="#FFCC02"/>
    <path d="M58.8556 47.904C56.3878 47.9038 53.9756 47.1717 51.924 45.8005C49.8723 44.4292 48.2734 42.4803 47.3294 40.2003C46.3854 37.9203 46.1388 35.4115 46.6207 32.9913C47.1026 30.5711 48.2913 28.3481 50.0366 26.6036C51.7819 24.859 54.0054 23.6712 56.4258 23.1904C58.8462 22.7095 61.3549 22.9572 63.6345 23.9022C65.9141 24.8472 67.8623 26.4469 69.2327 28.4992C70.6031 30.5514 71.3341 32.9639 71.3333 35.4316C71.3284 38.7389 70.012 41.9093 67.6729 44.2474C65.3338 46.5855 62.1629 47.9005 58.8556 47.904ZM58.8556 23.6191C56.5203 23.6194 54.2375 24.3121 52.2959 25.6096C50.3542 26.9071 48.8409 28.7512 47.9473 30.9087C47.0536 33.0662 46.8197 35.4403 47.2752 37.7307C47.7306 40.0211 48.855 42.1251 50.5061 43.7766C52.1572 45.428 54.2609 46.5529 56.5512 47.0088C58.8415 47.4648 61.2156 47.2315 63.3734 46.3383C65.5311 45.4451 67.3755 43.9322 68.6735 41.9909C69.9714 40.0495 70.6646 37.7669 70.6654 35.4316C70.6629 32.3 69.418 29.2973 67.2038 27.0826C64.9897 24.8679 61.9872 23.6223 58.8556 23.6191Z" fill="#191919"/>
    <path d="M58.8556 43.5894C57.2414 43.5881 55.6639 43.1082 54.3225 42.2104C52.9811 41.3126 51.9361 40.0372 51.3195 38.5454C50.7029 37.0537 50.5424 35.4127 50.8584 33.8298C51.1744 32.2469 51.9527 30.7932 53.0948 29.6526C54.2369 28.512 55.6916 27.7356 57.2749 27.4217C58.8582 27.1078 60.499 27.2704 61.9899 27.8889C63.4808 28.5075 64.7549 29.5542 65.6509 30.8968C66.547 32.2394 67.0248 33.8175 67.024 35.4316C67.0205 37.596 66.1584 39.6705 64.627 41.1999C63.0955 42.7293 61.0199 43.5887 58.8556 43.5894ZM58.8556 27.9338C57.3739 27.9351 55.9258 28.3756 54.6944 29.1997C53.463 30.0237 52.5036 31.1943 51.9373 32.5636C51.371 33.9328 51.2233 35.4391 51.5129 36.8922C51.8025 38.3453 52.5163 39.68 53.5642 40.7275C54.6121 41.7751 55.947 42.4884 57.4003 42.7775C58.8535 43.0666 60.3598 42.9183 61.7288 42.3516C63.0978 41.7848 64.2681 40.8249 65.0917 39.5932C65.9153 38.3615 66.3553 36.9133 66.3561 35.4316C66.3547 33.443 65.5639 31.5364 64.1575 30.1305C62.7511 28.7246 60.8441 27.9345 58.8556 27.9338Z" fill="#191919"/>
    <path d="M26.8003 57.272C30.3695 57.272 33.2629 54.3786 33.2629 50.8094C33.2629 47.2402 30.3695 44.3468 26.8003 44.3468C23.231 44.3468 20.3376 47.2402 20.3376 50.8094C20.3376 54.3786 23.231 57.272 26.8003 57.272Z" fill="white"/>
    <path d="M26.8003 54.9758C29.1013 54.9758 30.9667 53.1105 30.9667 50.8094C30.9667 48.5084 29.1013 46.6431 26.8003 46.6431C24.4993 46.6431 22.6339 48.5084 22.6339 50.8094C22.6339 53.1105 24.4993 54.9758 26.8003 54.9758Z" fill="white"/>
    <path d="M25.3309 58.4743C28.9001 58.4743 31.7935 55.5808 31.7935 52.0116C31.7935 48.4424 28.9001 45.549 25.3309 45.549C21.7617 45.549 18.8682 48.4424 18.8682 52.0116C18.8682 55.5808 21.7617 58.4743 25.3309 58.4743Z" fill="#02B5FF"/>
    <path d="M26.8003 57.606C25.4561 57.606 24.142 57.2074 23.0243 56.4606C21.9067 55.7137 21.0355 54.6523 20.5211 53.4104C20.0067 52.1684 19.8721 50.8019 20.1343 49.4835C20.3966 48.1651 21.0439 46.954 21.9944 46.0035C22.9449 45.053 24.156 44.4057 25.4744 44.1434C26.7928 43.8812 28.1593 44.0158 29.4013 44.5302C30.6432 45.0446 31.7046 45.9158 32.4515 47.0334C33.1983 48.1511 33.5969 49.4652 33.5969 50.8094C33.5948 52.6113 32.878 54.3388 31.6039 55.613C30.3297 56.8871 28.6022 57.6039 26.8003 57.606ZM26.8003 44.6807C25.5882 44.6807 24.4033 45.0402 23.3954 45.7136C22.3876 46.387 21.602 47.3442 21.1382 48.4641C20.6743 49.5839 20.5529 50.8162 20.7894 52.0051C21.0259 53.1939 21.6096 54.2859 22.4667 55.143C23.3238 56.0002 24.4158 56.5839 25.6047 56.8203C26.7935 57.0568 28.0258 56.9354 29.1457 56.4716C30.2655 56.0077 31.2227 55.2222 31.8961 54.2143C32.5695 53.2065 32.929 52.0216 32.929 50.8094C32.9272 49.1845 32.281 47.6267 31.132 46.4777C29.983 45.3288 28.4252 44.6825 26.8003 44.6807Z" fill="#191919"/>
    <path d="M26.8003 55.3097C25.9102 55.3097 25.0401 55.0458 24.3 54.5513C23.56 54.0568 22.9831 53.354 22.6425 52.5316C22.3019 51.7093 22.2128 50.8044 22.3864 49.9315C22.5601 49.0585 22.9887 48.2566 23.6181 47.6272C24.2475 46.9978 25.0493 46.5692 25.9223 46.3956C26.7953 46.2219 27.7002 46.311 28.5225 46.6517C29.3448 46.9923 30.0477 47.5691 30.5422 48.3092C31.0367 49.0493 31.3006 49.9193 31.3006 50.8094C31.2992 52.0026 30.8246 53.1464 29.9809 53.9901C29.1373 54.8337 27.9934 55.3083 26.8003 55.3097ZM26.8003 46.977C26.0423 46.977 25.3013 47.2018 24.6711 47.6229C24.0409 48.044 23.5497 48.6425 23.2596 49.3428C22.9695 50.0431 22.8936 50.8137 23.0415 51.5571C23.1894 52.3005 23.5544 52.9834 24.0904 53.5194C24.6263 54.0553 25.3092 54.4203 26.0526 54.5682C26.796 54.7161 27.5666 54.6402 28.2669 54.3501C28.9672 54.0601 29.5657 53.5688 29.9868 52.9386C30.4079 52.3084 30.6327 51.5674 30.6327 50.8094C30.6316 49.7933 30.2275 48.8192 29.509 48.1007C28.7906 47.3822 27.8164 46.9781 26.8003 46.977Z" fill="#191919"/>
    <path d="M18.6679 50.8094H18C18.0042 48.4767 18.9328 46.2408 20.5822 44.5914C22.2317 42.9419 24.4676 42.0134 26.8003 42.0091V42.677C24.6447 42.6813 22.5787 43.5394 21.0545 45.0636C19.5303 46.5878 18.6721 48.6539 18.6679 50.8094Z" fill="#191919"/>
    <path d="M19.6377 55.9162C18.9214 54.9184 18.4243 53.7803 18.179 52.5767L18.8336 52.4431C19.0602 53.5538 19.5191 54.604 20.1801 55.5248L19.6377 55.9162Z" fill="#191919"/>
    <path d="M43.9311 36.3384L36.2426 40.4696L36.5587 41.0579L44.2473 36.9267L43.9311 36.3384Z" fill="#191919"/>
    <path d="M34.9461 41.165L31.9973 42.7495L32.3135 43.3378L35.2623 41.7534L34.9461 41.165Z" fill="#191919"/>
    <path d="M43.0183 32.2364L42.357 32.1362C43.0086 27.8798 45.322 24.0557 48.7897 21.5028C52.2574 18.95 56.5961 17.8769 60.8539 18.519L60.7537 19.1789C56.6711 18.5636 52.5111 19.5928 49.1862 22.0406C45.8614 24.4885 43.6432 28.1552 43.0183 32.2364Z" fill="#191919"/>
</svg>
