<svg width="96" height="96" viewBox="0 0 96 96" fill="none" xmlns="http://www.w3.org/2000/svg">
    <circle cx="48" cy="48" r="48" fill="#F7F7F7"/>
    <path d="M74.084 59.2411H64.2637V59.657H74.084V59.2411Z" fill="#141416"/>
    <path d="M61.3765 59.2411H56.2234V59.657H61.3765V59.2411Z" fill="#141416"/>
    <path d="M38.4801 23H27.5036V23.4159H38.4801V23Z" fill="#141416"/>
    <path d="M45.6561 23H41.3232V23.4159H45.6561V23Z" fill="#141416"/>
    <path d="M74.7988 26.7012L27.0223 26.6511L26.992 55.5531L74.7686 55.6032L74.7988 26.7012Z" fill="white"/>
    <path d="M74.9741 55.814L26.7791 55.7616L26.8115 26.4437L75.0065 26.4936L74.9741 55.814ZM27.195 55.3457L74.5557 55.3981L74.5898 26.9095L27.2291 26.8579L27.195 55.3457Z" fill="#141416"/>
    <path d="M72.3289 36.8995L72.3198 45.4031C67.9112 45.3981 64.3344 48.9924 64.3252 53.4317L37.4379 53.4026C37.442 48.9624 33.8711 45.3607 29.4592 45.3557L29.4683 36.8529C33.8769 36.8579 37.4595 33.2637 37.4645 28.826L64.3527 28.8559C64.3477 33.2936 67.9195 36.8954 72.3289 36.8995Z" fill="white"/>
    <path d="M64.5332 53.6405L37.2291 53.6105V53.4026C37.2332 49.0855 33.7471 45.5695 29.4575 45.5645H29.2495L29.2604 36.6417H29.4766C33.7663 36.6417 37.2515 33.1389 37.2599 28.8227V28.6147L64.564 28.6447V28.8526C64.559 33.1689 68.0443 36.6841 72.3331 36.6882H72.541L72.5285 45.611H72.3123C68.0268 45.611 64.539 49.1171 64.534 53.43L64.5332 53.6405ZM37.6433 53.1946L64.1206 53.2238C64.2337 48.8426 67.7589 45.3024 72.1118 45.1976L72.1209 37.105C67.7681 36.991 64.2504 33.445 64.1472 29.0631L37.6699 29.0339C37.556 33.4142 34.0308 36.9536 29.6763 37.0584L29.6671 45.1511C34.0216 45.265 37.5393 48.8135 37.6433 53.1946Z" fill="#141416"/>
    <path d="M37.7215 45.1444C39.9473 45.1444 41.7516 43.3401 41.7516 41.1143C41.7516 38.8885 39.9473 37.0842 37.7215 37.0842C35.4957 37.0842 33.6914 38.8885 33.6914 41.1143C33.6914 43.3401 35.4957 45.1444 37.7215 45.1444Z" fill="white"/>
    <path d="M37.7215 45.3532H37.7165C36.6232 45.3072 35.59 44.8406 34.8326 44.0507C34.0753 43.2609 33.6525 42.209 33.6525 41.1147C33.6525 40.0204 34.0753 38.9685 34.8326 38.1787C35.59 37.3888 36.6232 36.9222 37.7165 36.8762H37.7215C38.8452 36.8784 39.9221 37.3264 40.7158 38.1217C41.5096 38.917 41.9554 39.9948 41.9554 41.1185C41.9534 42.2408 41.5068 43.3167 40.7132 44.1104C39.9196 44.9041 38.8439 45.351 37.7215 45.3532ZM37.7215 37.2921C36.737 37.3357 35.8072 37.7575 35.1259 38.4696C34.4446 39.1817 34.0644 40.1292 34.0644 41.1147C34.0644 42.1002 34.4446 43.0477 35.1259 43.7598C35.8072 44.4719 36.737 44.8937 37.7215 44.9373H37.7265C38.711 44.8937 39.6408 44.4719 40.3221 43.7598C41.0034 43.0477 41.3836 42.1002 41.3836 41.1147C41.3836 40.1292 41.0034 39.1817 40.3221 38.4696C39.6408 37.7575 38.711 37.3357 37.7265 37.2921H37.7215Z" fill="#141416"/>
    <path d="M50.894 47.8137C54.5857 47.8137 57.5784 44.821 57.5784 41.1293C57.5784 37.4376 54.5857 34.4449 50.894 34.4449C47.2023 34.4449 44.2096 37.4376 44.2096 41.1293C44.2096 44.821 47.2023 47.8137 50.894 47.8137Z" fill="white"/>
    <path d="M50.894 48.0216H50.8866C49.0716 48.0007 47.3381 47.2648 46.0624 45.9736C44.7867 44.6825 44.0717 42.9402 44.0727 41.1251C44.0737 39.3101 44.7906 37.5686 46.0677 36.2788C47.3448 34.989 49.079 34.255 50.894 34.2361H50.9015C51.807 34.2371 52.7034 34.4164 53.5395 34.764C54.3756 35.1115 55.1351 35.6204 55.7744 36.2616C56.4138 36.9027 56.9206 37.6636 57.2658 38.5006C57.611 39.3377 57.7879 40.2346 57.7864 41.1401C57.7846 42.9668 57.0577 44.7181 55.7653 46.0091C54.4729 47.3001 52.7208 48.0252 50.894 48.025V48.0216ZM50.894 34.652C49.1889 34.6703 47.5599 35.3602 46.3602 36.5721C45.1606 37.7839 44.4873 39.42 44.4863 41.1251C44.4853 42.8303 45.1568 44.4671 46.355 45.6804C47.5532 46.8936 49.1815 47.5854 50.8866 47.6057H50.894C52.5991 47.5874 54.2282 46.8975 55.4278 45.6856C56.6274 44.4738 57.3008 42.8377 57.3018 41.1325C57.3027 39.4274 56.6313 37.7906 55.4331 36.5773C54.2349 35.3641 52.6066 34.6723 50.9015 34.652H50.894Z" fill="#141416"/>
    <path d="M64.2637 45.1735C66.4895 45.1735 68.2938 43.3692 68.2938 41.1434C68.2938 38.9176 66.4895 37.1133 64.2637 37.1133C62.0379 37.1133 60.2336 38.9176 60.2336 41.1434C60.2336 43.3692 62.0379 45.1735 64.2637 45.1735Z" fill="white"/>
    <path d="M64.267 45.3823C63.4847 45.3844 62.7171 45.1701 62.049 44.7632C61.3809 44.3562 60.8383 43.7725 60.4813 43.0764C60.1242 42.3804 59.9666 41.5992 60.0257 40.8192C60.0849 40.0391 60.3586 39.2906 60.8166 38.6564C61.2746 38.0222 61.8991 37.527 62.6209 37.2256C63.3428 36.9241 64.1339 36.8281 64.9069 36.9481C65.6799 37.0682 66.4047 37.3997 67.0011 37.9059C67.5975 38.4121 68.0423 39.0734 68.2863 39.8167C68.4953 40.4531 68.5506 41.1299 68.4477 41.7918C68.3448 42.4537 68.0866 43.0818 67.6943 43.6247C67.3019 44.1677 66.7866 44.61 66.1905 44.9155C65.5944 45.2209 64.9344 45.3809 64.2645 45.3823H64.267ZM64.267 37.3196C63.4579 37.3181 62.6692 37.5732 62.0142 38.0482C61.3591 38.5231 60.8715 39.1935 60.6214 39.9629C60.3712 40.7324 60.3714 41.5613 60.622 42.3307C60.8725 43.1 61.3604 43.7701 62.0157 44.2447C62.671 44.7193 63.4598 44.974 64.2689 44.9722C65.078 44.9704 65.8657 44.7121 66.5188 44.2345C67.1719 43.7569 67.6568 43.0846 67.9039 42.3141C68.1509 41.5437 68.1473 40.7147 67.8937 39.9464C67.6417 39.1831 67.1558 38.5186 66.5048 38.0471C65.8538 37.5755 65.0708 37.321 64.267 37.3196Z" fill="#141416"/>
    <path d="M54.4509 52.3229V64.078H54.4467C54.4259 64.5397 54.2146 64.9855 53.8112 65.4006C53.362 65.8647 52.6874 66.2823 51.8074 66.6425C50.2752 67.2722 48.1815 67.6972 45.9107 67.8345H45.8949C45.3467 67.8677 44.7786 67.8852 44.2063 67.8852C43.634 67.8852 43.0659 67.8677 42.5177 67.8345H42.5028C40.2328 67.6964 38.1391 67.2713 36.6069 66.6417C35.7285 66.2798 35.0556 65.8623 34.6064 65.3998C34.203 64.9839 33.99 64.5388 33.9692 64.0772H33.9651V52.3229C33.9651 51.2241 35.0739 50.2226 37.0852 49.5006C38.9934 48.8177 41.5221 48.44 44.2071 48.44C46.8922 48.44 49.4218 48.8177 51.3283 49.5006C53.3437 50.2226 54.4509 51.2241 54.4509 52.3229Z" fill="white"/>
    <path d="M20.7069 66.9195V45.7916C20.7069 44.6894 21.8198 43.6829 23.842 42.9567C25.7551 42.2697 28.2988 41.8912 30.9955 41.8912C33.6922 41.8912 36.2359 42.2697 38.1491 42.9567C40.1712 43.6829 41.2842 44.6894 41.2842 45.7916V48.1406C41.2842 48.1406 41.2842 48.1406 41.2842 48.1464V50.4888V50.4938V52.8361C41.2842 52.8361 41.2842 52.8361 41.2842 52.842V55.1827C41.2842 55.1827 41.2842 55.1827 41.2842 55.1885V57.5309C41.2842 57.5309 41.2842 57.5309 41.2842 57.5359V59.8782C41.2842 59.8782 41.2842 59.8824 41.2842 59.884V62.2264C41.2842 62.2264 41.2842 62.2264 41.2842 62.2314V64.5738C41.2842 64.5738 41.2842 64.5779 41.2842 64.5796V66.9195C41.2842 68.0216 40.1695 69.0298 38.1474 69.7543C36.2342 70.4405 33.6906 70.8198 30.9939 70.8198C28.2971 70.8198 25.7535 70.4405 23.8403 69.7543C21.8215 69.0306 20.7069 68.0225 20.7069 66.9195Z" fill="white"/>
    <path d="M51.9446 52.7846C51.8866 52.4129 51.7498 52.0579 51.5435 51.7433C51.3373 51.4287 51.0662 51.1618 50.7485 50.9604C50.083 50.5329 49.193 50.3307 48.3204 50.1694C45.2931 49.6219 42.2135 49.4199 39.1406 49.5671C39.1415 49.1614 39.1202 48.756 39.0765 48.3527C38.9667 47.3811 38.5999 46.4054 37.8812 45.7433C37.2158 45.1311 36.3258 44.8408 35.4532 44.6104C31.9388 43.6813 28.2905 43.4725 24.6838 43.8892C22.4271 44.1496 19.376 44.662 18.4269 47.0742C18.1657 47.7396 18.164 48.4766 18.1649 49.1928C18.1757 55.0895 18.1923 60.9696 17.9694 66.8563C17.942 67.5866 17.9852 68.3427 18.1732 69.0456C18.3043 69.5672 18.5363 70.058 18.8561 70.4904C19.6047 71.4819 20.8258 72.0118 22.0394 72.2821C26.6976 73.3194 31.7325 73.3153 36.2634 71.7232C37.2615 71.3738 38.3104 70.8789 38.7538 69.9248C42.2532 70.1452 45.8242 69.9248 49.1306 69.1146C50.1246 68.8709 51.1785 68.5249 51.6219 67.8578C51.8847 67.461 51.8897 67.0077 51.8905 66.5701L51.8955 59.5413C51.8955 58.3391 51.8955 57.1374 51.8955 55.9363C51.8997 54.9032 52.111 53.8085 51.9446 52.7846Z" fill="#FFCC02"/>
    <path d="M51.8115 64.3151H51.7483L51.6951 64.2793L51.8107 64.1046V63.8992L51.8115 64.1038L51.9246 63.9333L51.9271 63.935L51.8115 64.1063V64.3151Z" fill="#141416"/>
    <path d="M44.2088 67.9318C43.6315 67.9318 43.0551 67.9143 42.4953 67.8802H42.4836C41.992 67.8503 41.5129 67.8079 41.0612 67.7538L41.1103 67.3379C41.5528 67.3903 42.0211 67.4319 42.5027 67.4618H42.5144C43.6432 67.53 44.7752 67.53 45.904 67.4618H45.9165C48.1624 67.3237 50.2302 66.9062 51.7342 66.2881C52.5601 65.9488 53.184 65.5653 53.5899 65.1477C53.9226 64.8067 54.089 64.4548 54.089 64.103H54.5049C54.5049 64.5671 54.2978 65.018 53.8885 65.4339C53.4427 65.893 52.7706 66.3089 51.8922 66.6691C50.3475 67.3046 48.2322 67.7322 45.9348 67.8736H45.9215C45.3675 67.9177 44.7894 67.9318 44.2088 67.9318Z" fill="#141416"/>
    <path d="M44.2088 65.5545C43.6174 65.5545 43.0442 65.537 42.4961 65.5029H42.4861C41.9937 65.473 41.5146 65.4305 41.0612 65.3765L41.1103 64.9606C41.5536 65.013 42.0253 65.0546 42.5052 65.0845H42.5161C43.0542 65.1186 43.624 65.1361 44.2088 65.1361C44.7935 65.1361 45.3642 65.1186 45.9023 65.0845H45.9107C48.1565 64.9464 50.2261 64.5297 51.7333 63.9125L51.7724 63.8967C52.5818 63.5598 53.194 63.1813 53.5916 62.7704C53.9243 62.4294 54.0907 62.0775 54.0907 61.7265H54.5066C54.5066 62.1898 54.2994 62.6415 53.8902 63.0574C53.4468 63.5157 52.7747 63.9316 51.8939 64.2943L51.8548 64.3101C50.3126 64.9365 48.2131 65.3582 45.9356 65.4971H45.9248C45.3775 65.537 44.801 65.5545 44.2088 65.5545Z" fill="#141416"/>
    <path d="M45.9473 55.9937H45.9265V55.7891L45.9473 55.9937ZM45.9265 55.9937L45.8549 55.987L45.919 55.7891L45.9015 55.5828H45.9265V55.7674V55.9937Z" fill="#141416"/>
    <path d="M42.4903 55.9945V55.992L42.4745 55.9937L42.4903 55.7749L42.4345 55.5886L42.4903 55.7608V55.5786L42.5136 55.5794L42.4953 55.7749L42.5635 55.9845L42.4903 55.9945Z" fill="#141416"/>
    <path d="M44.2088 63.1763C43.6265 63.1763 43.0442 63.1589 42.4936 63.1239C42.0145 63.0948 41.532 63.0524 41.0612 62.9967L41.1103 62.5808C41.5728 62.6348 42.0469 62.6773 42.5185 62.7047C43.644 62.7733 44.7727 62.7733 45.8982 62.7047C48.1549 62.5675 50.2236 62.1507 51.7342 61.531C52.566 61.1908 53.1873 60.8065 53.5899 60.3898C53.9226 60.0487 54.089 59.6977 54.089 59.3467H54.5049C54.5049 59.8092 54.2978 60.2617 53.8885 60.6776C53.446 61.1359 52.7739 61.5518 51.8922 61.9137C50.3442 62.55 48.2248 62.9784 45.924 63.1181C45.37 63.1605 44.7927 63.1763 44.2088 63.1763Z" fill="#141416"/>
    <path d="M51.8132 54.8067H51.8115V54.3908L51.8132 54.8067Z" fill="#141416"/>
    <path d="M44.2088 60.8007C43.6265 60.8007 43.0442 60.7832 42.4936 60.7483C42.0136 60.7192 41.532 60.6768 41.0612 60.621L41.1103 60.2051C41.5728 60.2592 42.0461 60.3008 42.5185 60.3291C43.644 60.3981 44.7727 60.3981 45.8982 60.3291C48.154 60.1926 50.2236 59.7759 51.7342 59.157C52.5651 58.8202 53.1857 58.435 53.5899 58.0191C53.9226 57.6781 54.089 57.3262 54.089 56.9744H54.5049C54.5049 57.4385 54.2978 57.8894 53.8885 58.3053C53.4435 58.7628 52.7722 59.1787 51.8922 59.5405C50.3425 60.1768 48.2231 60.6044 45.9231 60.7441C45.37 60.7832 44.7927 60.8007 44.2088 60.8007Z" fill="#141416"/>
    <path d="M53.7388 53.618H53.738V53.4101L53.5932 53.5581L53.738 53.4101L53.5458 53.3319L53.738 53.4093V53.2021V53.4093V53.2021L53.7388 53.4084L53.8836 53.2604L53.931 53.4883L53.7388 53.618Z" fill="#141416"/>
    <path d="M44.2088 58.4234C43.6265 58.4234 43.0526 58.4059 42.4936 58.371C41.9995 58.341 41.5179 58.2986 41.0612 58.2446L41.1103 57.8286C41.5586 57.8811 42.0328 57.9226 42.5194 57.9526C43.6446 58.0208 44.7729 58.0208 45.8982 57.9526C48.1516 57.8162 50.2236 57.3994 51.7317 56.7797C52.546 56.447 53.1882 56.0519 53.5899 55.6385C53.9226 55.2966 54.089 54.9456 54.089 54.5954H54.5049C54.5049 55.0571 54.2978 55.5054 53.8885 55.9263C53.4402 56.3871 52.7681 56.803 51.8922 57.1624C50.3425 57.7995 48.2231 58.2271 45.9265 58.3668C45.3658 58.4059 44.7886 58.4234 44.2088 58.4234Z" fill="#141416"/>
    <path d="M44.2088 56.0469C43.6374 56.0469 43.0709 56.0303 42.5252 55.997H42.4811C42.012 55.9679 41.5354 55.9263 41.0671 55.8706L40.8832 55.8489V48.5956L41.0671 48.574C42.1119 48.4534 43.1629 48.3937 44.2146 48.3951C49.9882 48.3951 54.5099 50.0754 54.5099 52.2214C54.5099 52.6731 54.3128 53.1115 53.9227 53.524L53.8844 53.6189H53.8303C53.387 54.0522 52.7373 54.4507 51.8989 54.7917L51.8581 54.8075C50.3159 55.4339 48.2198 55.8556 45.9481 55.9945L45.9082 55.9995H45.9015C45.3501 56.0303 44.7828 56.0469 44.2088 56.0469ZM42.4745 55.5778H42.5144C43.6449 55.646 44.7785 55.646 45.909 55.5778H45.9481C48.1815 55.4405 50.2361 55.0246 51.7333 54.4066L51.7733 54.3908C52.5535 54.0656 53.1499 53.7012 53.5484 53.3094L53.5899 53.267C53.9227 52.926 54.089 52.5741 54.089 52.2231C54.089 50.3748 49.5648 48.8127 44.2096 48.8127C43.2357 48.8119 42.2625 48.8635 41.2942 48.9674V55.478C41.6868 55.5204 42.0819 55.5545 42.472 55.5786L42.4745 55.5778Z" fill="#141416"/>
    <path d="M54.5049 52.2206H54.089V64.1795H54.5049V52.2206Z" fill="#141416"/>
    <path d="M32.7107 63.6946H32.7049V63.2787L32.7107 63.6946Z" fill="#141416"/>
    <path d="M29.2903 63.6946H29.2853V63.2787L29.2903 63.6946Z" fill="#141416"/>
    <path d="M30.998 70.8772C25.2253 70.8772 20.7036 69.197 20.7036 67.0509H21.1195C21.1195 68.8992 25.6428 70.4613 30.998 70.4613C36.3532 70.4613 40.8782 68.9 40.8782 67.0509H41.2941C41.2941 69.197 36.7716 70.8772 30.998 70.8772Z" fill="#141416"/>
    <path d="M32.7107 61.3172H32.7049V60.9013L32.7107 61.3172Z" fill="#141416"/>
    <path d="M29.2903 61.3172H29.2853V60.9013L29.2903 61.3172Z" fill="#141416"/>
    <path d="M30.998 68.4999C26.6535 68.4999 22.7631 67.5017 21.3199 66.0045C20.9107 65.5886 20.7069 65.1377 20.7069 64.6736H21.1228C21.1228 65.0246 21.2891 65.3756 21.6219 65.7167C22.9927 67.1308 26.7616 68.084 31.0013 68.084C35.2411 68.084 39.0117 67.1333 40.3816 65.7175C40.7144 65.3756 40.8807 65.0246 40.8807 64.6736H41.2966C41.2966 65.1369 41.0887 65.5886 40.6794 66.0045C39.2337 67.5017 35.3467 68.4999 30.998 68.4999Z" fill="#141416"/>
    <path d="M32.7082 58.9408H32.704V58.5249L32.7082 58.9408Z" fill="#141416"/>
    <path d="M29.292 58.9408H29.2878V58.5249L29.292 58.9408Z" fill="#141416"/>
    <path d="M30.998 66.1234C28.0584 66.1234 25.2585 65.6659 23.3146 64.8674C22.4362 64.5056 21.7649 64.0905 21.3183 63.6313C20.9107 63.2104 20.7069 62.7604 20.7069 62.298H21.1228C21.1228 62.6498 21.2891 63.0008 21.6219 63.3419C22.027 63.7578 22.6508 64.1429 23.476 64.4823C25.365 65.2609 28.11 65.7075 30.998 65.7075C33.8861 65.7075 36.6294 65.2609 38.5234 64.4823C39.3494 64.1437 39.9741 63.7594 40.3791 63.3419C40.7119 63.0008 40.8782 62.6498 40.8782 62.298H41.2941C41.2941 62.7613 41.0862 63.2129 40.6769 63.6288C40.2319 64.0872 39.5606 64.5031 38.6806 64.8641C36.74 65.6659 33.9393 66.1234 30.998 66.1234Z" fill="#141416"/>
    <path d="M38.5999 57.7521H38.55L38.5042 57.7288L38.5991 57.5417V57.3362L38.5999 57.5408L38.6922 57.3587H38.6939L38.5999 57.5433V57.7521Z" fill="#141416"/>
    <path d="M23.4477 57.7521H23.397V57.5433L23.3021 57.3587L23.397 57.5417L23.3961 57.3362L23.397 57.5425L23.4934 57.728L23.4477 57.7521Z" fill="#141416"/>
    <path d="M30.998 63.747C30.4157 63.747 29.8393 63.7295 29.2837 63.6946H29.2745C26.9787 63.5532 24.8659 63.1256 23.3163 62.4901C22.4379 62.1291 21.7666 61.7132 21.3199 61.2549C20.9107 60.8331 20.7036 60.384 20.7036 59.924H21.1195C21.1195 60.2758 21.2858 60.6269 21.6185 60.9679C22.0236 61.3838 22.6475 61.7689 23.4726 62.1083C24.9766 62.7272 27.0428 63.1439 29.2953 63.282H29.3069C30.4355 63.3502 31.5672 63.3502 32.6957 63.282H32.709C34.9549 63.1447 37.0211 62.7272 38.5267 62.1083C39.3527 61.7698 39.9774 61.3863 40.3825 60.9679C40.7152 60.6269 40.8816 60.2758 40.8816 59.924H41.2975C41.2975 60.3873 41.0895 60.839 40.6803 61.2549C40.2352 61.7132 39.564 62.1291 38.6839 62.4901C37.1376 63.1256 35.024 63.5532 32.7265 63.6946H32.7132C32.1617 63.7287 31.5828 63.747 30.998 63.747Z" fill="#141416"/>
    <path d="M30.998 61.3697C30.4157 61.3697 29.8393 61.3522 29.2837 61.3173H29.2745C26.9787 61.1758 24.8659 60.7483 23.3163 60.1128C22.4379 59.7518 21.7666 59.3359 21.3199 58.8776C20.9107 58.4558 20.7036 58.0075 20.7036 57.5467H21.1195C21.1195 57.8985 21.2858 58.2495 21.6185 58.5906C22.0236 59.0065 22.6475 59.3925 23.4726 59.731C24.9766 60.3499 27.0428 60.7666 29.2953 60.9047H29.3069C30.4355 60.9729 31.5672 60.9729 32.6957 60.9047H32.709C34.9549 60.7674 37.0211 60.3499 38.5267 59.731C39.3527 59.3925 39.9774 59.009 40.3825 58.5906C40.7152 58.2495 40.8816 57.8985 40.8816 57.5467H41.2975C41.2975 58.0108 41.0895 58.4617 40.6803 58.8776C40.2352 59.3359 39.564 59.7518 38.6839 60.1128C37.1376 60.7483 35.024 61.1758 32.7265 61.3173H32.7132C32.1617 61.3522 31.5828 61.3697 30.998 61.3697Z" fill="#141416"/>
    <path d="M30.998 58.9924C30.4157 58.9924 29.8393 58.9749 29.2853 58.9408H29.2745C26.9762 58.7994 24.8601 58.3727 23.3163 57.738C22.4329 57.3736 21.7608 56.9577 21.3199 56.5003C20.9107 56.0794 20.7036 55.631 20.7036 55.1694H21.1195C21.1195 55.5212 21.2858 55.8731 21.6185 56.2133C22.0203 56.6292 22.645 57.0135 23.4751 57.3553C24.9724 57.9726 27.0428 58.3893 29.2978 58.5282H29.3086C30.4363 58.5964 31.5672 58.5964 32.6949 58.5282H32.7049C34.9566 58.3893 37.0228 57.9726 38.5275 57.3553C39.3594 57.0135 39.9832 56.63 40.385 56.2141C40.7177 55.8731 40.8841 55.5212 40.8841 55.1694H41.3C41.3 55.6335 41.092 56.0843 40.6828 56.5003C40.2411 56.9569 39.569 57.3728 38.6864 57.7371C37.1426 58.3718 35.0265 58.7985 32.7282 58.9399H32.7182C32.1567 58.9749 31.5811 58.9924 30.998 58.9924Z" fill="#141416"/>
    <path d="M32.7373 49.4307H32.7157V49.2261L32.7373 49.4307ZM32.7157 49.4307L32.6417 49.4232L32.7082 49.2261L32.6899 49.0198H32.7157V49.202V49.4307Z" fill="#141416"/>
    <path d="M29.2795 49.4315V49.429L29.262 49.4307L29.2795 49.2128L29.2204 49.0273L29.2795 49.1995V49.0156L29.3036 49.0165L29.2845 49.2128L29.356 49.4199L29.2795 49.4315Z" fill="#141416"/>
    <path d="M30.998 56.615C30.4157 56.615 29.8335 56.5976 29.2828 56.5626C26.9837 56.4229 24.8659 55.9953 23.3146 55.3573C22.4345 54.9963 21.7633 54.5804 21.3182 54.1221C20.909 53.7012 20.7019 53.252 20.7019 52.7912H21.1178C21.1178 53.1422 21.2841 53.4933 21.6169 53.8343C22.0203 54.2502 22.6441 54.6353 23.471 54.9747C24.979 55.5944 27.0477 56.0111 29.3069 56.1484C30.4322 56.2166 31.5605 56.2166 32.6857 56.1484C34.9424 56.0111 37.0153 55.5944 38.5217 54.9747C39.3535 54.6345 39.974 54.251 40.3766 53.8343C40.7094 53.4933 40.8757 53.1422 40.8757 52.7912H41.2916C41.2916 53.2537 41.0837 53.702 40.6744 54.1221C40.2319 54.5804 39.5606 54.9955 38.6781 55.3573C37.1309 55.9945 35.0106 56.4221 32.7099 56.5618C32.1592 56.5976 31.5819 56.615 30.998 56.615Z" fill="#141416"/>
    <path d="M38.6024 48.2437H38.6007V47.8278L38.6024 48.2437Z" fill="#141416"/>
    <path d="M23.3953 48.2437L23.3928 47.8278H23.3945L23.3953 48.2437Z" fill="#141416"/>
    <path d="M30.998 54.2377C30.4157 54.2377 29.8335 54.2203 29.2828 54.1853C26.9845 54.0464 24.8651 53.6189 23.3146 52.9825C22.4337 52.619 21.7624 52.2031 21.3182 51.7473C20.909 51.3256 20.7019 50.8772 20.7019 50.4164H21.1178C21.1178 50.7683 21.2841 51.1193 21.6169 51.4603C22.0195 51.8762 22.6433 52.2597 23.471 52.6016C24.9799 53.2204 27.0527 53.6372 29.3069 53.7736C30.4322 53.8418 31.5605 53.8418 32.6857 53.7736C34.9416 53.6372 37.0111 53.2204 38.5217 52.6007C39.3535 52.2597 39.974 51.8762 40.3775 51.4612C40.7102 51.1193 40.8766 50.7683 40.8766 50.4164H41.2925C41.2925 50.8806 41.0845 51.3314 40.6753 51.7473C40.2327 52.204 39.5615 52.619 38.6789 52.9825C37.1293 53.6189 35.009 54.0464 32.7099 54.1853C32.1592 54.2203 31.5819 54.2377 30.998 54.2377Z" fill="#141416"/>
    <path d="M40.3792 46.9935V46.9927L40.6761 46.7015L40.3792 46.9935Z" fill="#141416"/>
    <path d="M21.6177 46.9935L21.3208 46.7024L21.6186 46.9927L21.6177 46.9935Z" fill="#141416"/>
    <path d="M30.998 51.8637C30.4157 51.8637 29.8335 51.8463 29.2828 51.8113C26.9854 51.6724 24.8659 51.2449 23.3171 50.6086C22.4345 50.2459 21.7624 49.8291 21.3208 49.3717C20.9107 48.9474 20.7069 48.4991 20.7069 48.0374H21.1228C21.1228 48.3885 21.2891 48.7395 21.6219 49.0805C22.0245 49.4964 22.6492 49.8815 23.4785 50.2226C24.9865 50.8415 27.0552 51.2582 29.3119 51.3946C30.4371 51.4636 31.5655 51.4636 32.6907 51.3946C34.9449 51.2582 37.0161 50.8415 38.5242 50.2226C39.3394 49.8899 39.9815 49.4939 40.3825 49.0805C40.7152 48.7395 40.8816 48.3885 40.8816 48.0374H41.2975C41.2975 48.5007 41.0895 48.9524 40.6803 49.3683C40.2344 49.8283 39.5623 50.245 38.6839 50.6052C37.1351 51.2416 35.0156 51.6691 32.7182 51.8088C32.1592 51.843 31.5819 51.8637 30.998 51.8637Z" fill="#141416"/>
    <path d="M30.9988 49.4839C25.2253 49.4839 20.7036 47.8037 20.7036 45.6576C20.7036 43.5116 25.2253 41.8313 30.9988 41.8313C36.7724 41.8313 41.2941 43.5116 41.2941 45.6576C41.2941 47.8037 36.7716 49.4839 30.9988 49.4839ZM30.9988 42.2472C25.6437 42.2489 21.1228 43.8102 21.1228 45.6585C21.1228 47.5067 25.647 49.0689 31.0022 49.0689C36.3574 49.0689 40.8816 47.5076 40.8816 45.6585C40.8816 43.8094 36.354 42.2489 30.9988 42.2489V42.2472Z" fill="#141416"/>
    <path d="M41.2941 45.6585H40.8782V67.0517H41.2941V45.6585Z" fill="#141416"/>
    <path d="M21.1195 45.6585H20.7036V67.0517H21.1195V45.6585Z" fill="#141416"/>
    <g style="mix-blend-mode:darken">
        <path d="M57.823 26.4528C57.8026 26.8001 57.8734 27.1466 58.0282 27.4581C58.183 27.7696 58.4165 28.0353 58.7056 28.2288C59.3793 28.6912 60.2544 28.7012 61.0712 28.6946C62.6957 28.6804 68.308 28.6671 69.9316 28.653C70.6195 28.6472 71.3457 28.653 71.9413 28.9948C72.7731 29.4748 73.1341 30.5013 73.189 31.4603C73.2439 32.4194 73.0567 33.3785 73.1058 34.3384C73.1549 35.2983 73.5001 36.3256 74.3236 36.8213C75.1629 37.3271 76.3648 37.0767 76.9546 36.294C77.2615 35.8864 77.4063 35.379 77.4828 34.8749C77.7099 33.3776 77.4695 31.8255 77.5261 30.3158C77.5851 28.7145 77.5402 28.4325 77.5402 26.833C77.5402 25.2717 76.745 24.2702 74.915 24.2702C71.1536 24.2702 64.7337 24.2577 60.9714 24.251C60.4357 24.251 59.89 24.251 59.3777 24.3999C58.4535 24.6686 57.8646 25.4954 57.823 26.4528Z" fill="#02B5FF"/>
    </g>
</svg>
