<svg width="96" height="96" viewBox="0 0 96 96" fill="none" xmlns="http://www.w3.org/2000/svg">
    <circle cx="48" cy="48" r="48" fill="#F7F7F7"/>
    <g clip-path="url(#clip0_5176_26055)">
        <path d="M46.1797 79.2249C46.1084 79.2433 46.0328 79.2348 45.9674 79.2011C45.9019 79.1673 45.8512 79.1107 45.8248 79.042C44.1875 74.8776 41.9054 70.9892 39.2884 67.3696C37.2752 64.5857 35.0001 62.0067 32.661 59.4947C31.6834 58.4451 30.232 57.3806 29.8072 55.9621C29.4253 54.6846 29.7312 53.1962 30.6508 52.2176C33.4797 49.2048 37.686 52.9353 40.261 54.4827L34.2154 30.2413C33.9878 29.2647 34.1535 28.2378 34.6765 27.3822C35.1995 26.5267 36.038 25.9111 37.011 25.6685C37.984 25.4259 39.0133 25.5756 39.8768 26.0853C40.7404 26.595 41.3688 27.4239 41.6265 28.393L44.1365 38.458L44.7362 38.3841C45.7588 38.26 46.796 38.3523 47.7805 38.655C48.765 38.9578 49.6749 39.4642 50.451 40.1414C50.6029 40.2743 50.7579 40.4093 50.9088 40.5412C51.1269 40.3042 51.4023 40.1273 51.7085 40.0274C53.7607 39.2647 56.0808 39.3277 57.873 40.6682C58.023 40.7811 58.1729 40.8951 58.3229 41.006C59.2565 39.8065 61.9025 39.8155 63.153 40.4153C64.8363 41.223 65.7609 43.1002 66.2197 44.8195L66.2337 44.8735L66.2577 44.9255C66.5576 45.5902 69.1506 51.31 69.1486 56.5569C69.1486 61.305 69.4235 70.3994 69.3485 73.1093V73.2293C69.346 73.2945 69.3223 73.3571 69.281 73.4076C69.2397 73.4581 69.183 73.4938 69.1196 73.5092L46.1797 79.2249Z" fill="white"/>
        <path d="M26.2266 33.46C25.9265 33.4599 25.6369 33.3501 25.4123 33.1511C25.1877 32.9522 25.0436 32.6779 25.0074 32.38C24.9711 32.0822 25.0451 31.7814 25.2153 31.5343C25.3856 31.2873 25.6404 31.1111 25.9317 31.039L30.5978 29.8794C30.9061 29.8215 31.2249 29.8838 31.4887 30.0534C31.7526 30.2229 31.9416 30.487 32.017 30.7915C32.0925 31.0959 32.0486 31.4177 31.8943 31.6909C31.7401 31.964 31.4873 32.1678 31.1876 32.2605L26.5265 33.426C26.4283 33.4496 26.3275 33.461 26.2266 33.46ZM30.8917 30.3393C30.8317 30.3391 30.772 30.3465 30.7138 30.3612L26.0526 31.5268C25.8651 31.5736 25.7038 31.693 25.6042 31.8587C25.5047 32.0244 25.4751 32.2229 25.5218 32.4104C25.5686 32.598 25.688 32.7593 25.8537 32.8588C26.0195 32.9584 26.2179 32.988 26.4055 32.9412L31.0667 31.7787C31.2398 31.7362 31.3913 31.6318 31.4926 31.4851C31.5939 31.3385 31.6379 31.1598 31.6164 30.9829C31.5948 30.8059 31.5092 30.6431 31.3757 30.525C31.2421 30.407 31.07 30.3419 30.8917 30.3423V30.3393Z" fill="#191919"/>
        <path d="M31.7364 26.9626C31.5141 26.9627 31.2959 26.9018 31.1057 26.7867L26.9883 24.3106C26.8501 24.2276 26.7296 24.1182 26.6336 23.9886C26.5377 23.859 26.4682 23.7117 26.4292 23.5553C26.3902 23.3988 26.3823 23.2362 26.4061 23.0767C26.43 22.9173 26.4849 22.764 26.568 22.6258C26.651 22.4876 26.7604 22.3671 26.89 22.2711C27.0197 22.1752 27.1669 22.1057 27.3233 22.0667C27.4798 22.0277 27.6424 22.0198 27.8019 22.0437C27.9614 22.0675 28.1146 22.1225 28.2528 22.2055L32.3702 24.6785C32.5785 24.8036 32.745 24.9876 32.8487 25.2074C32.9524 25.4271 32.9886 25.6726 32.9528 25.9129C32.9169 26.1532 32.8106 26.3775 32.6473 26.5574C32.484 26.7373 32.271 26.8648 32.0353 26.9236C31.9377 26.9489 31.8373 26.962 31.7364 26.9626ZM27.6221 22.5294C27.4626 22.529 27.3073 22.5809 27.1802 22.6772C27.0531 22.7736 26.9611 22.9089 26.9183 23.0626C26.8755 23.2162 26.8843 23.3797 26.9434 23.5279C27.0024 23.676 27.1085 23.8007 27.2452 23.8828L31.3626 26.3568C31.4446 26.4062 31.5356 26.4389 31.6303 26.453C31.725 26.467 31.8215 26.4622 31.9144 26.4388C32.0542 26.404 32.1806 26.3285 32.2776 26.2219C32.3745 26.1153 32.4377 25.9824 32.4591 25.8398C32.4805 25.6973 32.4591 25.5517 32.3978 25.4213C32.3364 25.2909 32.2377 25.1817 32.1143 25.1073L27.9989 22.6333C27.8852 22.5648 27.7548 22.5289 27.6221 22.5294Z" fill="#191919"/>
        <path d="M36.1137 23.7849C35.8397 23.7844 35.5737 23.6925 35.3579 23.5237C35.1421 23.355 34.9887 23.119 34.9222 22.8532L33.7596 18.1931C33.7009 17.9574 33.7133 17.7095 33.7954 17.4809C33.8775 17.2522 34.0255 17.0531 34.2207 16.9085C34.416 16.764 34.6497 16.6806 34.8923 16.6689C35.135 16.6571 35.3756 16.7176 35.5839 16.8426C35.7227 16.9251 35.8437 17.0344 35.9398 17.1641C36.036 17.2939 36.1053 17.4415 36.1437 17.5983L37.3062 22.2585C37.3844 22.5753 37.3335 22.9101 37.1648 23.1895C36.9961 23.4688 36.7234 23.6696 36.4066 23.7479C36.3108 23.7719 36.2125 23.7844 36.1137 23.7849ZM34.9532 17.1665C34.8932 17.1663 34.8334 17.1737 34.7752 17.1885C34.5878 17.2355 34.4266 17.3549 34.3271 17.5205C34.2276 17.6862 34.1979 17.8846 34.2444 18.0721L35.407 22.7323C35.4538 22.9198 35.5732 23.0811 35.7389 23.1807C35.9046 23.2802 36.1031 23.3099 36.2906 23.2631C36.4782 23.2163 36.6395 23.0969 36.739 22.9312C36.8386 22.7654 36.8682 22.567 36.8214 22.3794L35.6589 17.7193C35.6192 17.5619 35.5283 17.4222 35.4006 17.3221C35.2728 17.2221 35.1154 17.1673 34.9532 17.1665Z" fill="#191919"/>
        <path d="M41.4516 24.6335C41.2342 24.6334 41.0207 24.5756 40.833 24.4659C40.6453 24.3562 40.4901 24.1987 40.3833 24.0094C40.2764 23.8201 40.2217 23.6058 40.2249 23.3884C40.228 23.1711 40.2888 22.9584 40.401 22.7723L42.874 18.6549C43.0418 18.3756 43.3137 18.1744 43.6299 18.0956C43.7864 18.0565 43.9491 18.0487 44.1087 18.0726C44.2682 18.0964 44.4215 18.1515 44.5598 18.2345C44.6981 18.3176 44.8187 18.4272 44.9147 18.5569C45.0106 18.6865 45.0801 18.8339 45.1192 18.9904C45.1582 19.147 45.166 19.3097 45.1422 19.4692C45.1183 19.6288 45.0633 19.7821 44.9802 19.9204L42.5062 24.0368C42.4237 24.1756 42.3144 24.2966 42.1846 24.3927C42.0549 24.4888 41.9073 24.5581 41.7504 24.5965C41.6527 24.6212 41.5523 24.6336 41.4516 24.6335ZM43.9276 18.5579C43.8018 18.558 43.6781 18.5907 43.5687 18.6527C43.4592 18.7147 43.3676 18.8039 43.3028 18.9118L40.8288 23.0292C40.7293 23.1948 40.6996 23.3933 40.7464 23.5809C40.7932 23.7684 40.9125 23.9297 41.0782 24.0293C41.2439 24.1288 41.4424 24.1585 41.6299 24.1117C41.8175 24.0649 41.9788 23.9455 42.0783 23.7799L44.5513 19.6655C44.6163 19.555 44.651 19.4294 44.652 19.3013C44.653 19.1732 44.6202 19.047 44.557 18.9356C44.4938 18.8241 44.4023 18.7313 44.2918 18.6664C44.1813 18.6015 44.0557 18.5668 43.9276 18.5659V18.5579Z" fill="#191919"/>
        <path d="M44.6273 29.0088C44.3272 29.0087 44.0375 28.8988 43.8129 28.6999C43.5883 28.5009 43.4443 28.2267 43.408 27.9288C43.3718 27.631 43.4457 27.3301 43.616 27.0831C43.7863 26.836 44.0411 26.6598 44.3324 26.5877L48.9905 25.4262C49.3067 25.3467 49.6415 25.396 49.9212 25.5633C50.201 25.7306 50.4029 26.0022 50.4824 26.3183C50.562 26.6345 50.5127 26.9693 50.3453 27.2491C50.178 27.5289 49.9064 27.7307 49.5903 27.8103L44.9271 28.9718C44.8291 28.9964 44.7284 29.0088 44.6273 29.0088ZM49.2904 25.889C49.2304 25.8889 49.1706 25.8963 49.1125 25.911L44.4523 27.0735C44.3571 27.0944 44.2671 27.1342 44.1875 27.1905C44.108 27.2468 44.0405 27.3184 43.9891 27.4013C43.9378 27.4841 43.9035 27.5764 43.8885 27.6727C43.8734 27.769 43.8778 27.8673 43.9014 27.9618C43.925 28.0564 43.9673 28.1453 44.0259 28.2232C44.0845 28.3011 44.158 28.3665 44.2423 28.4154C44.3266 28.4644 44.4198 28.4959 44.5165 28.5082C44.6132 28.5205 44.7113 28.5133 44.8052 28.487L49.4653 27.3244C49.6375 27.2812 49.788 27.1765 49.8884 27.0302C49.9889 26.8838 50.0325 26.7058 50.011 26.5296C49.9896 26.3533 49.9045 26.191 49.7718 26.0731C49.6391 25.9551 49.4679 25.8897 49.2904 25.889Z" fill="#191919"/>
        <path d="M59.4274 45.6992C59.3717 45.6993 59.3175 45.6808 59.2734 45.6465C59.2294 45.6123 59.1981 45.5643 59.1845 45.5103L58.076 41.063C58.0616 40.9993 58.0728 40.9326 58.107 40.877C58.1413 40.8214 58.1959 40.7815 58.2593 40.7657C58.3226 40.7499 58.3896 40.7595 58.4459 40.7925C58.5023 40.8254 58.5435 40.8791 58.5608 40.9421L59.6693 45.3893C59.6847 45.4532 59.6742 45.5206 59.6402 45.5767C59.6061 45.6329 59.5512 45.6733 59.4874 45.6892C59.4679 45.695 59.4477 45.6984 59.4274 45.6992Z" fill="#191919"/>
        <path d="M52.5561 47.4135C52.5003 47.4134 52.4461 47.3946 52.4021 47.3602C52.3581 47.3258 52.3268 47.2777 52.3132 47.2236L50.6609 40.5992C50.6529 40.5673 50.6514 40.5341 50.6562 40.5016C50.6611 40.4691 50.6723 40.4379 50.6893 40.4097C50.7062 40.3815 50.7285 40.357 50.755 40.3374C50.7814 40.3179 50.8114 40.3037 50.8433 40.2958C50.8752 40.2879 50.9084 40.2863 50.9409 40.2912C50.9734 40.296 51.0046 40.3072 51.0328 40.3242C51.061 40.3411 51.0855 40.3635 51.1051 40.3899C51.1246 40.4163 51.1388 40.4463 51.1467 40.4782L52.799 47.1026C52.8142 47.1665 52.8036 47.2337 52.7695 47.2898C52.7355 47.3459 52.6807 47.3864 52.6171 47.4025C52.5973 47.4086 52.5768 47.4122 52.5561 47.4135Z" fill="#191919"/>
        <path d="M46.6745 48.8799C46.6188 48.8799 46.5647 48.8613 46.5207 48.8271C46.4767 48.7929 46.4454 48.745 46.4316 48.691L43.8926 38.517C43.8783 38.4533 43.8894 38.3866 43.9237 38.331C43.9579 38.2755 44.0126 38.2355 44.0759 38.2197C44.1392 38.2039 44.2063 38.2135 44.2626 38.2465C44.3189 38.2794 44.3601 38.3331 44.3774 38.3961L46.9144 48.5701C46.9298 48.6339 46.9193 48.7013 46.8852 48.7575C46.8512 48.8137 46.7962 48.8541 46.7325 48.8699C46.7136 48.8756 46.6942 48.8789 46.6745 48.8799Z" fill="#191919"/>
        <path d="M33.7886 33.2491C33.2112 32.8558 32.729 32.3384 32.3772 31.7347C31.7094 30.6082 31.4775 29.2577 31.5625 27.9512C31.6715 26.3448 32.2742 24.7525 33.3878 23.5839C34.5013 22.4154 36.1447 21.7367 37.743 21.9316C38.9646 22.0795 40.0831 22.7133 41.0227 23.508C42.1223 24.4346 43.022 25.6191 43.4688 26.9826C44.3264 29.6085 43.1999 32.0456 40.7479 33.2341C38.5877 34.2807 35.7588 34.5866 33.7886 33.2491Z" fill="#02B5FF"/>
        <path d="M67.2753 64.1419C68.5448 62.0547 70.532 62.0947 71.9734 64.7417C73.4149 67.3886 73.3729 73.1213 71.5736 74.4988C70.1072 75.6193 63.038 77.6755 60.9508 77.7555C58.8636 77.8355 57.844 75.5084 59.1285 74.2239C60.413 72.9394 66.6025 71.425 67.2453 70.9442C67.888 70.4634 66.4546 65.4924 67.2753 64.1419Z" fill="#FFCC02"/>
        <path d="M46.1076 79.4838C45.9966 79.4835 45.8882 79.45 45.7963 79.3876C45.7044 79.3253 45.6332 79.237 45.5919 79.1339C44.0745 75.2715 41.9463 71.472 39.0854 67.5155C36.9353 64.5417 34.5382 61.8778 32.478 59.6657C32.2411 59.4108 31.9782 59.1569 31.6983 58.889C30.8587 58.0803 29.9071 57.1646 29.5682 56.0341C29.1504 54.6346 29.5042 53.0733 30.4678 52.0467C32.9948 49.3557 36.5044 51.6998 39.0644 53.4121C39.3413 53.5981 39.6102 53.777 39.8641 53.9419L33.9665 30.3023C33.7106 29.2569 33.8793 28.1528 34.4355 27.2315C34.9918 26.3102 35.8904 25.6468 36.9346 25.3864C37.9788 25.126 39.0836 25.2899 40.0073 25.8421C40.931 26.3943 41.5984 27.29 41.8633 28.3331L44.3194 38.1822L44.6952 38.1352C45.7541 38.0065 46.8282 38.1023 47.8476 38.4163C48.867 38.7302 49.8088 39.2554 50.6119 39.9575L50.6918 40.0264L50.8918 40.2024C51.1064 40.0234 51.3521 39.8852 51.6165 39.7945C53.9555 38.9249 56.2886 39.1708 58.0139 40.4692L58.1659 40.5842L58.2788 40.6692C59.4084 39.5346 61.9624 39.5696 63.2519 40.1914C65.1301 41.091 66.0288 43.1712 66.4506 44.7556L66.4606 44.7905L66.4746 44.8225C67.1593 46.3279 69.3894 51.6198 69.3884 56.5579C69.3884 58.742 69.4444 61.8358 69.5004 64.8276C69.5664 68.3362 69.6283 71.6489 69.5873 73.1173V73.2373C69.5832 73.3569 69.5402 73.4718 69.4648 73.5648C69.3894 73.6577 69.2857 73.7234 69.1695 73.7521L46.2396 79.4668C46.1965 79.4779 46.1522 79.4836 46.1076 79.4838ZM33.2227 51.323C32.3641 51.323 31.5504 51.6228 30.8327 52.3885C29.988 53.2882 29.6791 54.6626 30.047 55.8871C30.3469 56.8917 31.2105 57.7224 32.0462 58.5261C32.3301 58.799 32.598 59.0569 32.8459 59.3258C34.9171 61.5499 37.3261 64.2239 39.4933 67.2227C42.3781 71.2131 44.5263 75.0496 46.0597 78.95C46.0644 78.9617 46.0731 78.9714 46.0842 78.9773C46.0954 78.9831 46.1083 78.9848 46.1206 78.982L69.0526 73.2623C69.0629 73.2596 69.0723 73.2539 69.0794 73.2459C69.0865 73.2379 69.0911 73.2279 69.0925 73.2173V73.0983C69.1335 71.6419 69.0716 68.3342 69.0056 64.8326C68.9496 61.8338 68.8916 58.741 68.8936 56.5529C68.8936 51.7178 66.6945 46.5069 66.0248 45.0244L66.0018 44.9735C65.9958 44.961 65.9911 44.9479 65.9878 44.9345L65.9728 44.8795C65.5729 43.3961 64.7463 41.4559 63.0399 40.6372C61.8534 40.0674 59.3544 40.0734 58.5147 41.156C58.4744 41.2075 58.4156 41.2412 58.3508 41.2499C58.2861 41.2587 58.2204 41.2419 58.1679 41.203L57.868 40.978L57.717 40.8641C56.1277 39.6696 53.9675 39.4487 51.7894 40.2573C51.5213 40.342 51.2801 40.4954 51.0897 40.7022C51.0465 40.7517 50.9854 40.7821 50.9199 40.7867C50.8544 40.7914 50.7896 40.77 50.7398 40.7271C50.6149 40.6202 50.4869 40.5092 50.36 40.3983L50.28 40.3293C49.5303 39.6748 48.6514 39.1853 47.7003 38.8926C46.7492 38.5998 45.7471 38.5103 44.7592 38.63L44.1644 38.7039C44.1038 38.7116 44.0425 38.6966 43.9922 38.662C43.9418 38.6273 43.906 38.5754 43.8915 38.516L41.3845 28.454C41.2711 27.9992 41.0692 27.5711 40.7904 27.1943C40.5115 26.8174 40.1612 26.4992 39.7593 26.2578C38.9478 25.7702 37.9758 25.625 37.0572 25.854C36.1386 26.0831 35.3486 26.6677 34.861 27.4792C34.3734 28.2907 34.2282 29.2627 34.4573 30.1813L40.5039 54.4227C40.5155 54.4707 40.5127 54.521 40.4959 54.5674C40.479 54.6138 40.4489 54.6542 40.4092 54.6836C40.3695 54.7129 40.322 54.7299 40.2727 54.7324C40.2234 54.7349 40.1745 54.7228 40.132 54.6976C39.7202 54.4497 39.2684 54.1478 38.7895 53.828C37.0582 52.6714 35.04 51.323 33.2227 51.323Z" fill="#191919"/>
        <path d="M26.2266 33.46C25.9265 33.4599 25.6369 33.3501 25.4123 33.1511C25.1877 32.9522 25.0436 32.6779 25.0074 32.38C24.9711 32.0822 25.0451 31.7814 25.2153 31.5343C25.3856 31.2873 25.6404 31.1111 25.9317 31.039L30.5978 29.8794C30.9061 29.8215 31.2249 29.8838 31.4887 30.0534C31.7526 30.2229 31.9416 30.487 32.017 30.7915C32.0925 31.0959 32.0486 31.4177 31.8943 31.6909C31.7401 31.964 31.4873 32.1678 31.1876 32.2605L26.5265 33.426C26.4283 33.4496 26.3275 33.461 26.2266 33.46ZM30.8917 30.3393C30.8317 30.3391 30.772 30.3465 30.7138 30.3612L26.0526 31.5268C25.8651 31.5736 25.7038 31.693 25.6042 31.8587C25.5047 32.0244 25.4751 32.2229 25.5218 32.4104C25.5686 32.598 25.688 32.7593 25.8537 32.8588C26.0195 32.9584 26.2179 32.988 26.4055 32.9412L31.0667 31.7787C31.2398 31.7362 31.3913 31.6318 31.4926 31.4851C31.5939 31.3385 31.6379 31.1598 31.6164 30.9829C31.5948 30.8059 31.5092 30.6431 31.3757 30.525C31.2421 30.407 31.07 30.3419 30.8917 30.3423V30.3393Z" fill="#191919"/>
        <path d="M31.7364 26.9626C31.5141 26.9627 31.2959 26.9018 31.1057 26.7867L26.9883 24.3106C26.8501 24.2276 26.7296 24.1182 26.6336 23.9886C26.5377 23.859 26.4682 23.7117 26.4292 23.5553C26.3902 23.3988 26.3823 23.2362 26.4061 23.0767C26.43 22.9173 26.4849 22.764 26.568 22.6258C26.651 22.4876 26.7604 22.3671 26.89 22.2711C27.0197 22.1752 27.1669 22.1057 27.3233 22.0667C27.4798 22.0277 27.6424 22.0198 27.8019 22.0437C27.9614 22.0675 28.1146 22.1225 28.2528 22.2055L32.3702 24.6785C32.5785 24.8036 32.745 24.9876 32.8487 25.2074C32.9524 25.4271 32.9886 25.6726 32.9528 25.9129C32.9169 26.1532 32.8106 26.3775 32.6473 26.5574C32.484 26.7373 32.271 26.8648 32.0353 26.9236C31.9377 26.9489 31.8373 26.962 31.7364 26.9626ZM27.6221 22.5294C27.4626 22.529 27.3073 22.5809 27.1802 22.6772C27.0531 22.7736 26.9611 22.9089 26.9183 23.0626C26.8755 23.2162 26.8843 23.3797 26.9434 23.5279C27.0024 23.676 27.1085 23.8007 27.2452 23.8828L31.3626 26.3568C31.4446 26.4062 31.5356 26.4389 31.6303 26.453C31.725 26.467 31.8215 26.4622 31.9144 26.4388C32.0542 26.404 32.1806 26.3285 32.2776 26.2219C32.3745 26.1153 32.4377 25.9824 32.4591 25.8398C32.4805 25.6973 32.4591 25.5517 32.3978 25.4213C32.3364 25.2909 32.2377 25.1817 32.1143 25.1073L27.9989 22.6333C27.8852 22.5648 27.7548 22.5289 27.6221 22.5294Z" fill="#191919"/>
        <path d="M36.1137 23.7849C35.8397 23.7844 35.5737 23.6925 35.3579 23.5237C35.1421 23.355 34.9887 23.119 34.9222 22.8532L33.7596 18.1931C33.7009 17.9574 33.7133 17.7095 33.7954 17.4809C33.8775 17.2522 34.0255 17.0531 34.2207 16.9085C34.416 16.764 34.6497 16.6806 34.8923 16.6689C35.135 16.6571 35.3756 16.7176 35.5839 16.8426C35.7227 16.9251 35.8437 17.0344 35.9398 17.1641C36.036 17.2939 36.1053 17.4415 36.1437 17.5983L37.3062 22.2585C37.3844 22.5753 37.3335 22.9101 37.1648 23.1895C36.9961 23.4688 36.7234 23.6696 36.4066 23.7479C36.3108 23.7719 36.2125 23.7844 36.1137 23.7849ZM34.9532 17.1665C34.8932 17.1663 34.8334 17.1737 34.7752 17.1885C34.5878 17.2355 34.4266 17.3549 34.3271 17.5205C34.2276 17.6862 34.1979 17.8846 34.2444 18.0721L35.407 22.7323C35.4538 22.9198 35.5732 23.0811 35.7389 23.1807C35.9046 23.2802 36.1031 23.3099 36.2906 23.2631C36.4782 23.2163 36.6395 23.0969 36.739 22.9312C36.8386 22.7654 36.8682 22.567 36.8214 22.3794L35.6589 17.7193C35.6192 17.5619 35.5283 17.4222 35.4006 17.3221C35.2728 17.2221 35.1154 17.1673 34.9532 17.1665Z" fill="#191919"/>
        <path d="M41.4516 24.6335C41.2342 24.6334 41.0207 24.5756 40.833 24.4659C40.6453 24.3562 40.4901 24.1987 40.3833 24.0094C40.2764 23.8201 40.2217 23.6058 40.2249 23.3884C40.228 23.1711 40.2888 22.9584 40.401 22.7723L42.874 18.6549C43.0418 18.3756 43.3137 18.1744 43.6299 18.0956C43.7864 18.0565 43.9491 18.0487 44.1087 18.0726C44.2682 18.0964 44.4215 18.1515 44.5598 18.2345C44.6981 18.3176 44.8187 18.4272 44.9147 18.5569C45.0106 18.6865 45.0801 18.8339 45.1192 18.9904C45.1582 19.147 45.166 19.3097 45.1422 19.4692C45.1183 19.6288 45.0633 19.7821 44.9802 19.9204L42.5062 24.0368C42.4237 24.1756 42.3144 24.2966 42.1846 24.3927C42.0549 24.4888 41.9073 24.5581 41.7504 24.5965C41.6527 24.6212 41.5523 24.6336 41.4516 24.6335ZM43.9276 18.5579C43.8018 18.558 43.6781 18.5907 43.5687 18.6527C43.4592 18.7147 43.3676 18.8039 43.3028 18.9118L40.8288 23.0292C40.7293 23.1948 40.6996 23.3933 40.7464 23.5809C40.7932 23.7684 40.9125 23.9297 41.0782 24.0293C41.2439 24.1288 41.4424 24.1585 41.6299 24.1117C41.8175 24.0649 41.9788 23.9455 42.0783 23.7799L44.5513 19.6655C44.6163 19.555 44.651 19.4294 44.652 19.3013C44.653 19.1732 44.6202 19.047 44.557 18.9356C44.4938 18.8241 44.4023 18.7313 44.2918 18.6664C44.1813 18.6015 44.0557 18.5668 43.9276 18.5659V18.5579Z" fill="#191919"/>
        <path d="M44.6273 29.0088C44.3272 29.0087 44.0375 28.8988 43.8129 28.6999C43.5883 28.5009 43.4443 28.2267 43.408 27.9288C43.3718 27.631 43.4457 27.3301 43.616 27.0831C43.7863 26.836 44.0411 26.6598 44.3324 26.5877L48.9905 25.4262C49.3067 25.3467 49.6415 25.396 49.9212 25.5633C50.201 25.7306 50.4029 26.0022 50.4824 26.3183C50.562 26.6345 50.5127 26.9693 50.3453 27.2491C50.178 27.5289 49.9064 27.7307 49.5903 27.8103L44.9271 28.9718C44.8291 28.9964 44.7284 29.0088 44.6273 29.0088ZM49.2904 25.889C49.2304 25.8889 49.1706 25.8963 49.1125 25.911L44.4523 27.0735C44.3571 27.0944 44.2671 27.1342 44.1875 27.1905C44.108 27.2468 44.0405 27.3184 43.9891 27.4013C43.9378 27.4841 43.9035 27.5764 43.8885 27.6727C43.8734 27.769 43.8778 27.8673 43.9014 27.9618C43.925 28.0564 43.9673 28.1453 44.0259 28.2232C44.0845 28.3011 44.158 28.3665 44.2423 28.4154C44.3266 28.4644 44.4198 28.4959 44.5165 28.5082C44.6132 28.5205 44.7113 28.5133 44.8052 28.487L49.4653 27.3244C49.6375 27.2812 49.788 27.1765 49.8884 27.0302C49.9889 26.8838 50.0325 26.7058 50.011 26.5296C49.9896 26.3533 49.9045 26.191 49.7718 26.0731C49.6391 25.9551 49.4679 25.8897 49.2904 25.889Z" fill="#191919"/>
        <path d="M59.4274 45.6992C59.3717 45.6993 59.3175 45.6808 59.2734 45.6465C59.2294 45.6123 59.1981 45.5643 59.1845 45.5103L58.076 41.063C58.0616 40.9993 58.0728 40.9326 58.107 40.877C58.1413 40.8214 58.1959 40.7815 58.2593 40.7657C58.3226 40.7499 58.3896 40.7595 58.4459 40.7925C58.5023 40.8254 58.5435 40.8791 58.5608 40.9421L59.6693 45.3893C59.6847 45.4532 59.6742 45.5206 59.6402 45.5767C59.6061 45.6329 59.5512 45.6733 59.4874 45.6892C59.4679 45.695 59.4477 45.6984 59.4274 45.6992Z" fill="#191919"/>
        <path d="M52.5561 47.4135C52.5003 47.4134 52.4461 47.3946 52.4021 47.3602C52.3581 47.3258 52.3268 47.2777 52.3132 47.2236L50.6609 40.5992C50.6529 40.5673 50.6514 40.5341 50.6562 40.5016C50.6611 40.4691 50.6723 40.4379 50.6893 40.4097C50.7062 40.3815 50.7285 40.357 50.755 40.3374C50.7814 40.3179 50.8114 40.3037 50.8433 40.2958C50.8752 40.2879 50.9084 40.2863 50.9409 40.2912C50.9734 40.296 51.0046 40.3072 51.0328 40.3242C51.061 40.3411 51.0855 40.3635 51.1051 40.3899C51.1246 40.4163 51.1388 40.4463 51.1467 40.4782L52.799 47.1026C52.8142 47.1665 52.8036 47.2337 52.7695 47.2898C52.7355 47.3459 52.6807 47.3864 52.6171 47.4025C52.5973 47.4086 52.5768 47.4122 52.5561 47.4135Z" fill="#191919"/>
        <path d="M46.6745 48.8799C46.6188 48.8799 46.5647 48.8613 46.5207 48.8271C46.4767 48.7929 46.4454 48.745 46.4316 48.691L43.8926 38.517C43.8783 38.4533 43.8894 38.3866 43.9237 38.331C43.9579 38.2755 44.0126 38.2355 44.0759 38.2197C44.1392 38.2039 44.2063 38.2135 44.2626 38.2465C44.3189 38.2794 44.3601 38.3331 44.3774 38.3961L46.9144 48.5701C46.9298 48.6339 46.9193 48.7013 46.8852 48.7575C46.8512 48.8137 46.7962 48.8541 46.7325 48.8699C46.7136 48.8756 46.6942 48.8789 46.6745 48.8799Z" fill="#191919"/>
        <path d="M71.9815 72.6995C71.9164 72.6998 71.8539 72.6745 71.8073 72.629C71.7608 72.5836 71.7339 72.5217 71.7326 72.4566C71.7326 72.3307 71.4097 59.8216 71.3328 57.0447C71.3319 57.0119 71.3374 56.9792 71.3491 56.9485C71.3608 56.9179 71.3785 56.8898 71.401 56.8659C71.4236 56.8421 71.4506 56.8229 71.4806 56.8095C71.5105 56.7961 71.5429 56.7887 71.5757 56.7878C71.642 56.7859 71.7063 56.8105 71.7544 56.856C71.8026 56.9016 71.8307 56.9644 71.8326 57.0307C71.9115 59.8076 72.2324 72.3177 72.2324 72.4436C72.2333 72.4764 72.2278 72.509 72.2161 72.5396C72.2044 72.5703 72.1867 72.5983 72.1641 72.622C72.1416 72.6458 72.1145 72.6649 72.0846 72.6782C72.0546 72.6915 72.0223 72.6987 71.9895 72.6995H71.9815Z" fill="#191919"/>
        <path d="M71.5756 54.3168C71.5093 54.3168 71.4458 54.2904 71.3989 54.2436C71.352 54.1967 71.3257 54.1332 71.3257 54.0669C71.3257 53.3292 70.8619 50.8421 70.3681 49.4977C70.3468 49.4359 70.3505 49.3682 70.3785 49.3091C70.4065 49.2501 70.4565 49.2043 70.5178 49.1817C70.5792 49.1591 70.6469 49.1614 70.7066 49.1881C70.7662 49.2149 70.813 49.2639 70.8369 49.3247C71.3277 50.6602 71.8255 53.2092 71.8255 54.0669C71.8255 54.1332 71.7992 54.1967 71.7523 54.2436C71.7055 54.2904 71.6419 54.3168 71.5756 54.3168Z" fill="#191919"/>
        <path d="M37.0953 69.0849C37.0803 69.0539 36.9064 68.7241 35.435 66.7938C35.3952 66.7408 35.3781 66.6742 35.3875 66.6086C35.3969 66.5429 35.4319 66.4837 35.4849 66.444C35.538 66.4042 35.6046 66.3871 35.6702 66.3965C35.7358 66.4059 35.795 66.4409 35.8348 66.494C36.4556 67.3086 37.5061 68.7061 37.5671 68.922L37.0873 69.0589C37.0885 69.068 37.0912 69.0768 37.0953 69.0849Z" fill="#191919"/>
        <path d="M34.0425 64.7526C34.0037 64.7528 33.9654 64.7438 33.9307 64.7265C33.8959 64.7091 33.8658 64.6838 33.8426 64.6527C32.9921 63.5636 32.0616 62.5395 31.0587 61.5889C29.9591 60.5163 29.0945 59.6687 28.2378 57.9093C26.8274 55.0105 27.6381 52.7234 28.2438 51.6188C28.7016 50.7872 29.9311 49.2438 31.6425 48.73C31.706 48.7109 31.7744 48.7178 31.8328 48.7492C31.8912 48.7806 31.9348 48.8339 31.9538 48.8974C31.9729 48.9609 31.966 49.0294 31.9346 49.0878C31.9032 49.1462 31.8499 49.1897 31.7864 49.2088C30.227 49.6766 29.0735 51.147 28.6816 51.8597C28.1209 52.8793 27.3762 54.9935 28.6876 57.6904C29.5053 59.3718 30.345 60.1894 31.4076 61.232C32.4285 62.1979 33.3752 63.2395 34.2394 64.3478C34.2677 64.3848 34.285 64.429 34.2893 64.4754C34.2937 64.5218 34.285 64.5684 34.2642 64.6101C34.2433 64.6517 34.2112 64.6867 34.1715 64.711C34.1318 64.7353 34.0861 64.748 34.0395 64.7476L34.0425 64.7526Z" fill="#191919"/>
    </g>
    <defs>
        <clipPath id="clip0_5176_26055">
            <rect width="48" height="62.8171" fill="white" transform="translate(25 16.6667)"/>
        </clipPath>
    </defs>
</svg>
