<?xml version="1.0" encoding="utf-8"?>
<!-- Generator: Adobe Illustrator 24.3.0, SVG Export Plug-In . SVG Version: 6.00 Build 0)  -->
<svg version="1.1" id="Layer_1" xmlns="http://www.w3.org/2000/svg" xmlns:xlink="http://www.w3.org/1999/xlink" x="0px" y="0px"
	 viewBox="0 0 128 128" style="enable-background:new 0 0 128 128;" xml:space="preserve">
<style type="text/css">
	.st0{clip-path:url(#SVGID_2_);}
	.st1{fill:#00B2FF;}
	.st2{fill:#F8E5E9;stroke:#000000;stroke-width:0.2805;stroke-linecap:round;stroke-linejoin:round;}
	
		.st3{fill-rule:evenodd;clip-rule:evenodd;fill:#F2BCCF;stroke:#F2BCCF;stroke-width:0.2805;stroke-linecap:round;stroke-linejoin:round;}
	.st4{fill:#C1172C;stroke:#000000;stroke-width:0.2805;stroke-linecap:round;stroke-linejoin:round;}
	.st5{fill:none;stroke:#000000;stroke-width:0.2805;stroke-linecap:round;stroke-linejoin:round;}
	.st6{fill:#C1172C;}
	.st7{opacity:0.25;enable-background:new    ;}
	.st8{fill:#A9DDF3;stroke:#000000;stroke-width:0.2805;stroke-linecap:round;stroke-linejoin:round;}
	.st9{fill:#6A99A5;}
	
		.st10{fill-rule:evenodd;clip-rule:evenodd;fill:#F3CFD7;stroke:#000000;stroke-width:0.2805;stroke-linecap:round;stroke-linejoin:round;}
	.st11{fill:#6A99A5;stroke:#000000;stroke-width:0.2805;stroke-linecap:round;stroke-linejoin:round;}
	.st12{fill:#AF2542;stroke:#000000;stroke-width:0.2805;stroke-linecap:round;stroke-linejoin:round;}
	.st13{fill:#008ACB;stroke:#000000;stroke-width:0.2805;stroke-linecap:round;stroke-linejoin:round;}
	.st14{fill:#008ACB;}
	.st15{fill:#F8E5E9;}
	.st16{fill:#F2CED6;stroke:#000000;stroke-width:0.2805;stroke-linecap:round;stroke-linejoin:round;}
	.st17{fill:#F2CED6;}
	.st18{fill:#004CA2;}
	.st19{fill:#1D1D1B;}
	.st20{fill:#F4AFCB;stroke:#000000;stroke-width:0.2805;stroke-linecap:round;stroke-linejoin:round;}
	.st21{fill:#111111;}
	.st22{fill:none;stroke:#000000;stroke-width:0.1402;stroke-linecap:round;stroke-linejoin:round;}
</style>
<g>
	<defs>
		<path id="SVGID_1_" d="M64,0L64,0c35.3,0,64,28.7,64,64v0c0,35.3-28.7,64-64,64h0C28.7,128,0,99.3,0,64v0C0,28.7,28.7,0,64,0z"/>
	</defs>
	<clipPath id="SVGID_2_">
		<use xlink:href="#SVGID_1_"  style="overflow:visible;"/>
	</clipPath>
	<g class="st0">
		<path class="st1" d="M130.5-2.5h-133v133h133V-2.5z"/>
		<path class="st2" d="M83.4,97.6H44.8c-3,0-5.5,2.5-5.5,5.5v0.5c0,1.5,0.6,2.9,1.7,3.9c2.4,2.3,4.1,5.2,4.8,8.5l2.8,31.4h31.3
			l2.9-30.8c0.5-3.4,2.1-6.7,4.5-9.1c1-1,1.6-2.4,1.6-3.9v-0.5C88.9,100.1,86.5,97.6,83.4,97.6z"/>
		<path class="st3" d="M53.7,115c0.3,0,0.6,0.2,0.6,0.5c0,0.3-0.3,0.5-0.6,0.5s-0.6-0.2-0.6-0.5C53.1,115.2,53.4,115,53.7,115z"/>
		<path class="st3" d="M74.9,115c0.3,0,0.6,0.2,0.6,0.5c0,0.3-0.3,0.5-0.6,0.5s-0.6-0.2-0.6-0.5C74.4,115.2,74.6,115,74.9,115z"/>
		<path class="st4" d="M89.1,104.9c0-3.8-1.7-6.7-5.2-7.2c-6.2-0.9-20.2-2.3-20.2-2.3s-12.4,1.4-19.1,2.3c-4.2,0.6-5.5,3.3-5.5,7.2
			c0,0.8,0.1,1.5,0.3,2.2l0,0c0,0.1,0.1,0.2,0.1,0.3l3.7,11.3c3.4,9.7,0.4,25.5,0.4,35.7v0.1l5.8,1.6c9.2,2.7,19,2.7,28.2,0.2
			l6.8-1.8v-0.2c0-10.2-3.1-25.9,0.3-35.5l3.7-11.5c0-0.1,0.1-0.2,0.1-0.3l0-0.1C89,106.4,89.1,105.6,89.1,104.9L89.1,104.9z"/>
		<path class="st5" d="M39.4,102c0,0.1,0,0.2,0,0.2l0,0l-5.1,26.9c-0.6,2.3,0.9,4.6,3.2,5.2c2.3,0.6,4.6-0.9,5.2-3.2l7.7-25.9
			c0.1-0.2,0.1-0.4,0.2-0.6c0.7-3.1-1.1-6.1-4.2-6.9C43.3,97.1,40.2,98.9,39.4,102L39.4,102z"/>
		<path class="st2" d="M34.2,129.9c0,0.2,0,0.3,0,0.5l0,27.1c-0.1,1.5,1.1,2.9,2.7,2.9c1.5,0.1,2.9-1.1,3-2.6l2.9-26.9
			c0-0.1,0-0.3,0.1-0.5c0.1-2.4-1.7-4.4-4.1-4.5C36.3,125.7,34.3,127.5,34.2,129.9L34.2,129.9z"/>
		<path class="st4" d="M39.4,102c0,0.1,0,0.2,0,0.2l0,0l-5.1,26.9c-0.6,2.3,0.9,4.6,3.2,5.2c2.3,0.6,4.6-0.9,5.2-3.2l7.7-25.9
			c0.1-0.2,0.1-0.4,0.2-0.6c0.7-3.1-1.1-6.1-4.2-6.9C43.3,97.1,40.2,98.9,39.4,102L39.4,102z"/>
		<path class="st6" d="M44.4,97.8l11.4-1.4l0,21.9H45L44.4,97.8z"/>
		<path class="st5" d="M89,102c0,0.1,0,0.2,0,0.2l0,0l5.1,26.9c0.6,2.3-0.9,4.6-3.2,5.2c-2.3,0.6-4.6-0.9-5.2-3.2l-7.7-25.9
			c-0.1-0.2-0.1-0.4-0.2-0.6c-0.7-3.1,1.1-6.1,4.2-6.9C85.2,97.1,88.3,98.9,89,102L89,102z"/>
		<path class="st2" d="M94.3,129.9c0,0.2,0,0.3,0,0.5l0,27.1c0.1,1.5-1.1,2.9-2.7,2.9c-1.5,0.1-2.9-1.1-3-2.6l-2.9-26.9
			c0-0.1,0-0.3-0.1-0.5c-0.1-2.4,1.7-4.4,4.1-4.5C92.1,125.7,94.1,127.5,94.3,129.9L94.3,129.9z"/>
		<path class="st4" d="M89,102c0,0.1,0,0.2,0,0.2l0,0l5.1,26.9c0.6,2.3-0.9,4.6-3.2,5.2c-2.3,0.6-4.6-0.9-5.2-3.2l-7.7-25.9
			c-0.1-0.2-0.1-0.4-0.2-0.6c-0.7-3.1,1.1-6.1,4.2-6.9C85.2,97.1,88.3,98.9,89,102L89,102z"/>
		<path class="st6" d="M83.9,98.4l-0.5,20H72.7v-16.2l0-5.7l3.2,0.4l7,0.8l0.5,0.1C83.7,97.8,83.9,98,83.9,98.4z"/>
		<path class="st7" d="M66.2,112c-0.2-1.9-1.6-2.4-2.3-2.7c0.3,0.3,0.5,0.5,0.8,0.8c0.6,0.5,0.9,1.3,0.9,2.1v0.6v11.1v32.4
			c1-5,0.9-20.9,0.8-32.1L66.2,112z"/>
		<path class="st5" d="M63.9,109.3c0.2,0.3,0.5,0.5,0.8,0.8c0.6,0.5,0.9,1.3,0.9,2.1v45.9"/>
		<path class="st5" d="M63.9,109.3c-0.1-0.1-0.1-0.1-0.2-0.2c-0.1-0.1-0.1-0.1-0.2-0.2c-0.1-0.1-0.2-0.2-0.3-0.4
			c-0.1-0.1-0.1-0.1-0.2-0.2c-0.2-0.2-0.3-0.4-0.5-0.6c-0.1-0.1-0.2-0.3-0.3-0.4c-0.2-0.2-0.4-0.4-0.5-0.7c-0.1-0.2-0.2-0.3-0.4-0.5
			c-1-1.3-2-2.7-2.7-4c-0.1-0.1-0.1-0.2-0.2-0.3c-0.9-1.5-1.7-2.9-2.2-3.9c0,0,0-0.1-0.1-0.1c-0.2-0.4-0.4-0.7-0.5-1
			c0,0,0-0.1,0-0.1c0-0.1-0.1-0.1-0.1-0.2c0,0,0-0.1,0-0.1c0,0,0-0.1,0-0.1c0,0,0,0,0,0c0,0,0,0,0,0"/>
		<path class="st8" d="M72.6,96.3c0,0-3.2,7-8.1,12.4c-0.2,0.2-0.4,0.4-0.6,0.7h0c-0.1-0.1-0.1-0.1-0.2-0.2
			c-0.1-0.1-0.1-0.1-0.2-0.2c-0.1-0.1-0.2-0.2-0.3-0.4c-0.1-0.1-0.1-0.1-0.2-0.2c-0.2-0.2-0.3-0.4-0.5-0.6c-0.1-0.1-0.2-0.3-0.3-0.4
			c-0.2-0.2-0.4-0.4-0.5-0.7c-0.1-0.2-0.2-0.3-0.4-0.5c-1-1.3-2-2.7-2.7-4c-0.1-0.1-0.1-0.2-0.2-0.3c-0.9-1.5-1.7-2.9-2.2-3.9
			c0,0,0-0.1-0.1-0.1c-0.2-0.4-0.4-0.7-0.5-1c0,0,0-0.1,0-0.1c0-0.1-0.1-0.1-0.1-0.2c0,0,0-0.1,0-0.1c0,0,0-0.1,0-0.1c0,0,0,0,0,0
			c0,0,0,0,0,0l9.1-1.3c0.2,0,0.7,0.3,1,0.3L72.6,96.3L72.6,96.3z"/>
		<g>
			<path class="st9" d="M72.6,96.3c0,0-3.2,7-8.1,12.4c-0.2,0.2-0.4,0.4-0.6,0.7c-0.1-0.1-0.1-0.1-0.2-0.2c-0.1-0.1-0.1-0.1-0.2-0.2
				c-0.1-0.1-0.2-0.2-0.3-0.4c-0.1-0.1-0.1-0.1-0.2-0.2c-0.2-0.2-0.3-0.4-0.5-0.6c-0.1-0.1-0.2-0.3-0.3-0.4
				c-0.2-0.2-0.4-0.4-0.5-0.7c-0.1-0.2-0.2-0.3-0.4-0.5c-1-1.3-2-2.7-2.7-4c-0.1-0.1-0.1-0.2-0.2-0.3c-0.9-1.5-1.7-2.9-2.2-3.9
				c0,0,0-0.1-0.1-0.1c-0.2-0.4-0.4-0.7-0.5-1c0,0,0-0.1,0-0.1c0-0.1-0.1-0.1-0.1-0.2c0,0,0-0.1,0-0.1c0,0,0-0.1,0-0.1c0,0,0,0,0,0
				l0.2,0c0,0.1,5.3,9,8.3,11.9c3.1-2.8,7.9-10.9,8.5-12L72.6,96.3z"/>
		</g>
		<path class="st10" d="M69.8,94.4v1.4l-2.8,1.9l-2.1,2.3h0l-1.3,1.1l-0.7-0.7l-2-2.7l-2.9-2c0,0,0,0,0,0.1v-1.3
			c0-1.7,1.4-3.1,3.1-3.1h5.6C68.4,91.3,69.8,92.6,69.8,94.4z"/>
		<path class="st11" d="M63,100.4l-2.5-1.8c0.3-0.2,0.7-0.5,1.2-0.7L63,100.4z"/>
		<path class="st8" d="M61.7,97.8c-0.5,0.2-0.9,0.4-1.2,0.7c-0.2,0.1-0.4,0.3-0.5,0.4c-0.2,0.2-0.4,0.4-0.5,0.6
			c-0.2,0.2-0.4,0.5-0.6,0.9c0,0.1-0.1,0.1-0.1,0.2c-1.4-1.5-1-4.3-0.7-4.9c0,0,0,0,0-0.1L61.7,97.8z"/>
		<path class="st11" d="M64.5,100.3l2.9-1.8c-0.3-0.2-0.7-0.5-1.2-0.7L64.5,100.3z"/>
		<path class="st8" d="M66.2,97.8c0.5,0.2,0.9,0.4,1.2,0.7c0.2,0.1,0.4,0.3,0.5,0.4c0.2,0.2,0.4,0.4,0.5,0.6
			c0.2,0.2,0.4,0.5,0.6,0.9c0,0.1,0.1,0.1,0.1,0.2c1.4-1.5,1-4.3,0.7-4.9c0,0,0,0,0-0.1L66.2,97.8z"/>
		<path class="st5" d="M63,100.4l0.5,0.5l0.2,0.2l0.3,0.2l0,8.1"/>
		<path class="st12" d="M64.1,112.5c0.4,0,0.7-0.3,0.7-0.7c0-0.4-0.3-0.7-0.7-0.7c-0.4,0-0.7,0.3-0.7,0.7
			C63.5,112.2,63.7,112.5,64.1,112.5z"/>
		<path class="st12" d="M64.1,123.4c0.4,0,0.7-0.3,0.7-0.7c0-0.4-0.3-0.7-0.7-0.7c-0.4,0-0.7,0.3-0.7,0.7
			C63.5,123.1,63.7,123.4,64.1,123.4z"/>
		<path class="st11" d="M63.2,102c0.2,0,0.4-0.2,0.4-0.4c0-0.2-0.2-0.4-0.4-0.4c-0.2,0-0.4,0.2-0.4,0.4C62.8,101.8,63,102,63.2,102z
			"/>
		<path class="st11" d="M63.2,106.6c0.2,0,0.4-0.2,0.4-0.4c0-0.2-0.2-0.4-0.4-0.4c-0.2,0-0.4,0.2-0.4,0.4
			C62.8,106.4,63,106.6,63.2,106.6z"/>
		<path class="st13" d="M77.8,37.7H50.3c-9.1,0-16.5,7.4-16.5,16.5v24.5c0,9.1,7.4,16.5,16.5,16.5h27.5c9.1,0,16.5-7.4,16.5-16.5
			V54.2C94.3,45.1,86.9,37.7,77.8,37.7z"/>
		<path class="st13" d="M35.3,48.8l57.8-16c2.7,0,5,2.2,5,5v31.5c0,2.7-2.2,5-5,5H35.3c-2.7,0-5-2.2-5-5V53.7
			C30.4,51,32.6,48.8,35.3,48.8z"/>
		<path class="st14" d="M30.4,61v-4.1c0-1.1-0.9-2-2-2h-2.5c-2,0-3.6-1.6-3.6-3.6c0-2,1.6-3.6,3.6-3.6h4.8c1.1,0,2-0.9,2-2
			s-0.9-2-2-2h-8.7c-1.8,0-3.2-1.4-3.2-3.2s1.4-3.2,3.2-3.2h8.8c0.3,0,0.6-0.3,0.6-0.6c0-0.3-0.3-0.6-0.6-0.6h-3
			c-2.5,0-4.5-2-4.4-4.5c0-2.4,2.1-4.4,4.6-4.4H86c5,0,9.1,4.1,9.1,9.1V37"/>
		<path class="st5" d="M30.4,61v-4.1c0-1.1-0.9-2-2-2h-2.5c-2,0-3.6-1.6-3.6-3.6c0-2,1.6-3.6,3.6-3.6h4.8c1.1,0,2-0.9,2-2
			s-0.9-2-2-2h-8.7c-1.8,0-3.2-1.4-3.2-3.2s1.4-3.2,3.2-3.2h8.8c0.3,0,0.6-0.3,0.6-0.6c0-0.3-0.3-0.6-0.6-0.6h-3
			c-2.5,0-4.5-2-4.4-4.5c0-2.4,2.1-4.4,4.6-4.4H86c5,0,9.1,4.1,9.1,9.1V37"/>
		<path class="st5" d="M47.8,35.3h15.8"/>
		<path class="st5" d="M37.2,32.8h38.5"/>
		<path class="st5" d="M38,29.8h35.5"/>
		<g>
			<path class="st14" d="M93.1,72.9H35.3c-2.7,0-5-2.2-5-5v1.2c0,2.7,2.2,5,5,5h57.8c2.7,0,5-2.2,5-5V68
				C98.1,70.7,95.8,72.9,93.1,72.9L93.1,72.9z"/>
		</g>
		<path class="st2" d="M38.2,71.3c0.8,1.8,0.6,3-2.1,5.2c-2.7,2.2-6.6,1.8-8.8-0.9s-1.8-6.6,0.9-8.8C30.9,64.7,36.9,68.4,38.2,71.3
			L38.2,71.3z"/>
		<g>
			<path class="st15" d="M28.7,68.1c2.7-2.2,8.5,1.5,9.9,4.4c-0.1-0.4-0.2-0.8-0.4-1.2c-1.4-3-7.3-6.6-10-4.4
				c-2.2,1.8-2.9,4.9-1.7,7.4C26.1,72,26.8,69.6,28.7,68.1L28.7,68.1z"/>
		</g>
		<g>
			<path class="st15" d="M32.8,72.5c0,0-4.3-2.6-2.9,2.5c0,0-2.8-3.7,0.9-6.8c0,0-1.1,1.6,0.5,2.4C34,72,32.8,72.5,32.8,72.5z"/>
		</g>
		<path class="st5" d="M29.8,75c-2.7-4,1-6.6,1-6.6"/>
		<path class="st5" d="M32.8,72.4c0,0-1.1-2.3-3.8-1.3"/>
		<path class="st2" d="M89.9,71.3c-0.8,1.8-0.6,3,2.1,5.2c2.7,2.2,6.6,1.8,8.8-0.9c2.2-2.7,1.8-6.6-0.9-8.8
			C97.2,64.7,91.2,68.4,89.9,71.3L89.9,71.3z"/>
		<g>
			<path class="st15" d="M99.4,68.1c-2.7-2.2-8.5,1.5-9.9,4.4c0.1-0.4,0.2-0.8,0.4-1.2c1.4-3,7.3-6.6,10-4.4
				c2.2,1.8,2.9,4.9,1.7,7.4C102,72,101.3,69.6,99.4,68.1L99.4,68.1z"/>
		</g>
		<g>
			<path class="st15" d="M95.3,72.5c0,0,4.3-2.6,2.9,2.5c0,0,2.8-3.7-0.9-6.8c0,0,1.1,1.6-0.5,2.4C94.1,72,95.3,72.5,95.3,72.5z"/>
		</g>
		<path class="st5" d="M98.3,75c2.7-4-1-6.6-1-6.6"/>
		<path class="st5" d="M95.3,72.4c0,0,1.1-2.3,3.8-1.3"/>
		<path class="st16" d="M77.8,37.7H50.3c-9.1,0-16.5,7.4-16.5,16.5v24.5c0,9.1,7.4,16.5,16.5,16.5h27.5c9.1,0,16.5-7.4,16.5-16.5
			V54.2C94.3,45.1,86.9,37.7,77.8,37.7z"/>
		<path class="st15" d="M76.7,39.5H49.4c-8.6,0-15.6,7-15.6,15.6V77c0,8.6,7,15.6,15.6,15.6h27.3c8.6,0,15.6-7,15.6-15.6V55.1
			C92.3,46.5,85.3,39.5,76.7,39.5z"/>
		<path class="st5" d="M77.8,37.7H50.3c-9.1,0-16.5,7.4-16.5,16.5v24.5c0,9.1,7.4,16.5,16.5,16.5h27.5c9.1,0,16.5-7.4,16.5-16.5
			V54.2C94.3,45.1,86.9,37.7,77.8,37.7z"/>
		<path class="st17" d="M94.8,38.8c0,7.1-5.7,12.8-12.8,12.8c-5.7,0-10.3-4.6-10.3-10.3v-3"/>
		<path class="st13" d="M70.9,54l6.1,0.3c1.3,0.1,2.4-0.9,2.4-2.2c0.1-1.1-0.6-2.1-1.7-2.4l-6-1.7c-1.4-0.4-2.9,0.6-3,2.1l-0.1,1.4
			C68.6,52.8,69.6,53.9,70.9,54L70.9,54z"/>
		<path class="st18" d="M70.9,54l6.1,0.3c1.2,0.1,2.3-0.8,2.4-2c-0.4,0.6-0.7,0.9-5.7,0.9c-3.6,0-4.5-1.8-4.9-2.8l-0.1,1.2
			C68.6,52.8,69.6,53.9,70.9,54L70.9,54z"/>
		<path class="st5" d="M70.9,54l6.1,0.3c1.3,0.1,2.4-0.9,2.4-2.2c0.1-1.1-0.6-2.1-1.7-2.4l-6-1.7c-1.4-0.4-2.9,0.6-3,2.1l-0.1,1.4
			C68.6,52.8,69.6,53.9,70.9,54L70.9,54z"/>
		<path class="st5" d="M71.5,54c-0.6-2-0.2-4.1,1-5.7"/>
		<path class="st5" d="M73.9,54.1c-0.5-1.8-0.1-3.7,0.9-5.2"/>
		<path class="st5" d="M76.3,54.3c-0.3-1.6,0-3.3,0.9-4.6"/>
		<path class="st13" d="M57.3,54l-6.1,0.3c-1.3,0.1-2.4-0.9-2.4-2.2c-0.1-1.1,0.6-2.1,1.7-2.4l6-1.7c1.4-0.4,2.9,0.6,3,2.1l0.1,1.4
			C59.5,52.8,58.5,53.9,57.3,54L57.3,54z"/>
		<path class="st18" d="M57.3,54l-6.1,0.3c-1.2,0.1-2.3-0.8-2.4-2c0.4,0.6,0.7,0.9,5.7,0.9c3.6,0,4.5-1.8,4.9-2.8l0.1,1.2
			C59.5,52.8,58.5,53.9,57.3,54L57.3,54z"/>
		<path class="st5" d="M57.3,54l-6.1,0.3c-1.3,0.1-2.4-0.9-2.4-2.2c-0.1-1.1,0.6-2.1,1.7-2.4l6-1.7c1.4-0.4,2.9,0.6,3,2.1l0.1,1.4
			C59.5,52.8,58.5,53.9,57.3,54L57.3,54z"/>
		<path class="st5" d="M56.6,54c0.6-2,0.2-4.1-1-5.7"/>
		<path class="st5" d="M54.3,54.1c0.5-1.8,0.1-3.7-0.9-5.2"/>
		<path class="st5" d="M51.8,54.3c0.3-1.6,0-3.3-0.9-4.6"/>
		<g>
			<path class="st15" d="M64.5,75.4c0-1.4-1.1-2.6-2.6-2.6c-0.9,0-1.6,0.5-2.1,1.1c-1.7,2-3.1,3.4-7.5,4.1c-2.5,0.4-5.7,0.3-9.5-1
				c-0.4-0.1-1.3-0.4-2-0.4c-2.7,0-4.9,2.2-4.9,4.9c0,2,1.2,3.7,2.9,4.5c1.4,0.6,5.8,2.3,11,1.5c4.3-0.7,9.4-3.3,13.2-8.8
				C63.3,78.2,64.5,76.7,64.5,75.4L64.5,75.4z"/>
		</g>
		<g>
			<path class="st15" d="M63.7,75.4c0-1.4,1.1-2.6,2.6-2.6c0.9,0,1.6,0.5,2.1,1.1c1.7,2,3.1,3.4,7.5,4.1c2.5,0.4,5.7,0.3,9.5-1
				c0.4-0.1,1.3-0.4,2-0.4c2.7,0,4.9,2.2,4.9,4.9c0,2-1.2,3.7-2.9,4.5c-1.4,0.6-5.8,2.3-11,1.5c-4.3-0.7-9.4-3.3-13.2-8.8
				C64.8,78.2,63.7,76.7,63.7,75.4L63.7,75.4z"/>
		</g>
		<path class="st19" d="M61.7,80.6c0.8,0.1,1.6,0.2,2.4,0.2c0.8,0,1.6-0.1,2.4-0.1c-0.4,0.2-0.8,0.3-1.2,0.4
			c-0.4,0.1-0.8,0.1-1.2,0.1c-0.4,0-0.8-0.1-1.2-0.2C62.4,81,62.1,80.8,61.7,80.6L61.7,80.6z"/>
		<path class="st17" d="M68.5,74.2c0,2.4-2,4.4-4.4,4.4c-2.4,0-4.4-2-4.4-4.4"/>
		<path class="st5" d="M68.5,74.2c0,2.4-2,4.4-4.4,4.4c-2.4,0-4.4-2-4.4-4.4"/>
		<path class="st14" d="M64.1,74.2c0-1.4-1.1-2.6-2.6-2.6c-0.9,0-1.6,0.5-2.1,1.1c-1.7,2-3.1,3.4-7.5,4.1c-2.5,0.4-5.7,0.3-9.5-1
			c-0.4-0.1-1.3-0.4-2-0.4c-2.7,0-4.9,2.2-4.9,4.9c0,2,1.2,3.7,2.9,4.5c1.4,0.6,5.8,2.3,11,1.5c4.3-0.7,9.4-3.3,13.2-8.8
			C62.9,76.9,64.1,75.4,64.1,74.2L64.1,74.2z"/>
		<path class="st18" d="M38.4,84.8c1.4,0.6,5.8,2.3,11,1.5c4.3-0.7,9.4-3.3,13.2-8.8c0.3-0.4,1.1-1.4,1.4-2.5
			c-2.3,2.3-8.3,7.6-16.4,8.7c-5.3,0.7-9.4-1-12.1-2.9C35.6,82.6,36.8,84.1,38.4,84.8z"/>
		<path class="st5" d="M64.1,74.2c0-1.4-1.1-2.6-2.6-2.6c-0.9,0-1.6,0.5-2.1,1.1c-1.7,2-3.1,3.4-7.5,4.1c-2.5,0.4-5.7,0.3-9.5-1
			c-0.4-0.1-1.3-0.4-2-0.4c-2.7,0-4.9,2.2-4.9,4.9c0,2,1.2,3.7,2.9,4.5c1.4,0.6,5.8,2.3,11,1.5c4.3-0.7,9.4-3.3,13.2-8.8
			C62.9,76.9,64.1,75.4,64.1,74.2L64.1,74.2z"/>
		<path class="st5" d="M37.7,84.4c-0.4-1.9-0.6-5.7,2-9"/>
		<path class="st5" d="M43.4,76.2c-1,1.5-2.7,5.1-1.4,9.7"/>
		<path class="st5" d="M61.6,78.6c-1-0.7-2.6-2.3-3.3-4.7"/>
		<path class="st5" d="M55,76.2c0.2,1.3,0.8,4,3.1,6.1"/>
		<path class="st5" d="M52.5,85.4c-0.8-1.2-2.2-4.1-1.2-8.4"/>
		<path class="st5" d="M47.2,77.1c-0.7,1.3-2.2,5.3-0.1,9.4"/>
		<path class="st14" d="M64.1,74.2c0-1.4,1.1-2.6,2.6-2.6c0.9,0,1.6,0.5,2.1,1.1c1.7,2,3.1,3.4,7.5,4.1c2.5,0.4,5.7,0.3,9.5-1
			c0.4-0.1,1.3-0.4,2-0.4c2.7,0,4.9,2.2,4.9,4.9c0,2-1.2,3.7-2.9,4.5c-1.4,0.6-5.8,2.3-11,1.5c-4.3-0.7-9.4-3.3-13.2-8.8
			C65.3,76.9,64.1,75.4,64.1,74.2L64.1,74.2z"/>
		<path class="st18" d="M89.8,84.8c-1.4,0.6-5.8,2.3-11,1.5c-4.3-0.7-9.4-3.3-13.2-8.8c-0.3-0.4-1.1-1.4-1.4-2.5
			c2.3,2.3,8.3,7.6,16.4,8.7c5.3,0.7,9.4-1,12.1-2.9C92.6,82.6,91.4,84.1,89.8,84.8z"/>
		<path class="st5" d="M64.1,74.2c0-1.4,1.1-2.6,2.6-2.6c0.9,0,1.6,0.5,2.1,1.1c1.7,2,3.1,3.4,7.5,4.1c2.5,0.4,5.7,0.3,9.5-1
			c0.4-0.1,1.3-0.4,2-0.4c2.7,0,4.9,2.2,4.9,4.9c0,2-1.2,3.7-2.9,4.5c-1.4,0.6-5.8,2.3-11,1.5c-4.3-0.7-9.4-3.3-13.2-8.8
			C65.3,76.9,64.1,75.4,64.1,74.2L64.1,74.2z"/>
		<path class="st5" d="M90.5,84.4c0.4-1.9,0.6-5.7-2-9"/>
		<path class="st5" d="M84.8,76.2c1,1.5,2.7,5.1,1.4,9.7"/>
		<path class="st5" d="M66.6,78.6c1-0.7,2.6-2.3,3.3-4.7"/>
		<path class="st5" d="M73.2,76.2c-0.2,1.3-0.8,4-3.1,6.1"/>
		<path class="st5" d="M75.7,85.4c0.8-1.2,2.2-4.1,1.2-8.4"/>
		<path class="st5" d="M81,77.1c0.7,1.3,2.2,5.3,0.1,9.4"/>
		<path class="st20" d="M61.6,70.4h4.9c0.7,0,1.2-0.5,1.2-1.2c0-0.7-0.5-1.2-1.2-1.2h-4.9c-0.7,0-1.2,0.5-1.2,1.2
			C60.4,69.9,61,70.4,61.6,70.4z"/>
		<path class="st20" d="M66.6,69.5c0,1.4-1.1,2.5-2.5,2.5s-2.5-1.1-2.5-2.5c0-2.9,1.1-9.7,2.5-9.7S66.6,66.6,66.6,69.5z"/>
		<path class="st19" d="M62.7,70.4c0.5,0,0.9,0.1,1.4,0.1c0.4,0,0.9,0,1.4,0c-0.2,0.2-0.4,0.3-0.7,0.3c-0.2,0.1-0.5,0.1-0.7,0.1
			c-0.2,0-0.5,0-0.7-0.1C63.1,70.7,62.9,70.6,62.7,70.4z"/>
		<path class="st21" d="M57.8,60c0,0.9-0.7,1.6-1.5,1.6s-1.5-0.7-1.5-1.6s0.7-1.6,1.5-1.6S57.8,59.2,57.8,60z"/>
		<path class="st21" d="M58.3,62.2c-0.5,0.6-1.2,1-2,1.2c-0.4,0.1-0.8,0.1-1.2,0c-0.2,0-0.4-0.1-0.5-0.2c-0.2-0.1-0.3-0.2-0.5-0.3
			c0,0,0,0,0,0c0,0,0,0,0,0c0.2,0,0.4,0.1,0.5,0.2c0.2,0,0.4,0.1,0.5,0.1c0.1,0,0.2,0,0.3,0l0.3,0c0.1,0,0.2,0,0.3,0
			c0.1,0,0.2,0,0.3,0c0.4,0,0.7-0.1,1.1-0.3C57.7,62.7,58,62.5,58.3,62.2C58.2,62.2,58.3,62.2,58.3,62.2
			C58.3,62.2,58.3,62.2,58.3,62.2L58.3,62.2z"/>
		<path class="st21" d="M58.3,63c-0.1,0.5-0.4,0.9-0.8,1.2c-0.2,0.2-0.4,0.3-0.7,0.3c-0.3,0-0.5,0-0.7-0.1c0,0,0,0,0,0c0,0,0,0,0,0
			c0.1,0,0.2,0,0.4,0c0.1,0,0.2,0,0.3-0.1c0.2,0,0.4-0.1,0.6-0.2c0.2-0.1,0.4-0.3,0.5-0.5C58,63.4,58.2,63.2,58.3,63
			C58.3,63,58.3,62.9,58.3,63C58.3,63,58.3,63,58.3,63L58.3,63z"/>
		<path class="st22" d="M49.8,60.3h1"/>
		<path class="st22" d="M49.8,59.5h1"/>
		<path class="st22" d="M49.5,59.9h1.2"/>
		<path class="st21" d="M70.4,60c0,0.9,0.7,1.6,1.5,1.6s1.5-0.7,1.5-1.6s-0.7-1.6-1.5-1.6S70.4,59.2,70.4,60z"/>
		<path class="st21" d="M69.9,62.2c0.3,0.3,0.6,0.5,0.9,0.6c0.3,0.2,0.7,0.3,1.1,0.3c0.1,0,0.2,0,0.3,0c0.1,0,0.2,0,0.3,0l0.3,0
			c0.1,0,0.2,0,0.3,0c0.2,0,0.4-0.1,0.5-0.1c0.2,0,0.4-0.1,0.5-0.2c0,0,0,0,0,0c0,0,0,0,0,0c-0.2,0.1-0.3,0.2-0.5,0.3
			c-0.2,0.1-0.4,0.2-0.5,0.2c-0.4,0.1-0.8,0.1-1.2,0C71.1,63.3,70.4,62.8,69.9,62.2C69.9,62.2,69.9,62.2,69.9,62.2
			C69.9,62.2,69.9,62.2,69.9,62.2L69.9,62.2z"/>
		<path class="st21" d="M69.9,63c0.1,0.2,0.2,0.4,0.4,0.6c0.1,0.2,0.3,0.3,0.5,0.5c0.2,0.1,0.4,0.2,0.6,0.2c0.1,0,0.2,0,0.3,0.1
			c0.1,0,0.2,0,0.4,0c0,0,0,0,0,0c0,0,0,0,0,0c-0.2,0.1-0.5,0.1-0.7,0.1c-0.3,0-0.5-0.1-0.7-0.3C70.3,63.9,70,63.4,69.9,63
			C69.9,63,69.9,63,69.9,63C69.9,62.9,69.9,62.9,69.9,63L69.9,63z"/>
		<path class="st22" d="M78.4,60.3h-1"/>
		<path class="st22" d="M78.4,59.5h-1"/>
		<path class="st22" d="M78.6,59.9h-1.2"/>
		<path class="st14" d="M80.5,39.3c0,2.3,1.3,3.3,3.6,3.3c2.3,0,4.3-1.9,4.3-4.3c0-2.3-1.9-4.1-4.2-4.2c-0.7,0-1.3,0-1.8,0
			c-4.8,0.5-6.9,6.5-3.3,9.8c1.4,1.3,3.4,2.1,5.6,1.9c3.8-0.2,6.8-3.3,7.1-7.1c0.3-4.4-3.2-8-7.5-8c0,0-9-0.9-10.6,7.6
			c-1.2,6.3,3.9,11.1,10.6,11c6.1,0,11.1-4.2,11.1-10.3l0-2.8"/>
		<path class="st5" d="M80.5,39.3c0,2.3,1.3,3.3,3.6,3.3c2.3,0,4.3-1.9,4.3-4.3c0-2.3-1.9-4.1-4.2-4.2c-0.7,0-1.3,0-1.8,0
			c-4.8,0.5-6.9,6.5-3.3,9.8c1.4,1.3,3.4,2.1,5.6,1.9c3.8-0.2,6.8-3.3,7.1-7.1c0.3-4.4-3.2-8-7.5-8c0,0-9-0.9-10.6,7.6
			c-1.2,6.3,3.9,11.1,10.6,11c6.1,0,11.1-4.2,11.1-10.3l0-2.8"/>
	</g>
</g>
</svg>
