<svg width="822" height="628" viewBox="0 0 822 628" fill="none" xmlns="http://www.w3.org/2000/svg">
    <path opacity="0.33" d="M129 244.6C130.546 244.6 131.8 243.346 131.8 241.8C131.8 240.254 130.546 239 129 239C127.454 239 126.2 240.254 126.2 241.8C126.2 243.346 127.454 244.6 129 244.6Z" fill="#15BAFF"/>
    <path opacity="0.33" d="M183.9 436.1C185.446 436.1 186.7 434.846 186.7 433.3C186.7 431.754 185.446 430.5 183.9 430.5C182.354 430.5 181.1 431.754 181.1 433.3C181.1 434.846 182.354 436.1 183.9 436.1Z" fill="#15BAFF"/>
    <path opacity="0.33" d="M429.9 430.8C431.446 430.8 432.7 429.546 432.7 428C432.7 426.454 431.446 425.2 429.9 425.2C428.354 425.2 427.1 426.454 427.1 428C427.1 429.546 428.354 430.8 429.9 430.8Z" fill="#15BAFF"/>
    <path opacity="0.33" d="M492 241.8C493.546 241.8 494.8 240.546 494.8 239C494.8 237.454 493.546 236.2 492 236.2C490.454 236.2 489.2 237.454 489.2 239C489.2 240.546 490.454 241.8 492 241.8Z" fill="#15BAFF"/>
    <path opacity="0.33" d="M626.1 525.1C627.646 525.1 628.9 523.846 628.9 522.3C628.9 520.754 627.646 519.5 626.1 519.5C624.554 519.5 623.3 520.754 623.3 522.3C623.3 523.846 624.554 525.1 626.1 525.1Z" fill="#15BAFF"/>
    <g opacity="0.5">
        <g opacity="0.5">
            <path d="M174.266 100.7C163.915 100.784 152.121 97.8148 138.461 94.421C111.226 87.6334 77.2878 79.2337 33.5925 88.9909C-67.4581 111.56 -114.802 128.105 -115.396 141.086C-116.074 154.237 -109.032 158.564 -98.5115 165.012C-80.1849 176.212 -49.5558 194.963 -21.7266 279.129C-13.3269 304.413 -13.5814 339.284 -13.836 376.107C-14.2602 431.341 -14.6844 493.872 12.8054 544.185C44.5375 602.219 108.087 633.527 207.101 639.806C224.664 640.994 242.142 641.503 259.366 641.503C293.728 641.503 327.327 639.212 359.568 634.715C405.639 628.352 449.504 617.407 490.06 602.219C566.166 573.711 630.818 530.016 676.889 475.885C708.621 438.638 730.85 397.912 742.898 354.641C755.031 311.116 756.219 267.335 746.547 224.573C736.705 181.133 708.282 144.734 662.126 116.396C637.181 101.124 607.316 88.3121 573.208 78.3852C542.748 69.4765 509.574 63.0282 474.703 59.2102C413.36 52.5074 350.065 54.6286 309.509 64.81C263.353 76.3489 241.887 85.0032 227.633 90.6878C210.58 97.4754 202.774 100.615 174.266 100.7ZM174.266 100.7V101.548" stroke="url(#paint0_linear_7432_3895)" stroke-width="0.8353" stroke-miterlimit="10"/>
            <path d="M268.105 609.262C254.19 609.262 240.106 608.837 225.852 608.074C136.425 603.238 78.3059 576.087 48.101 525.18C21.8839 480.976 20.3567 425.147 19.084 376.022C18.2355 341.745 17.3871 309.419 8.2238 285.747C-19.7751 210.15 -49.2164 191.738 -66.7793 180.793C-77.385 174.175 -84.4271 169.763 -83.9181 156.952C-83.7484 149.74 -70.7671 141.001 -45.2287 130.989C-22.2356 121.996 9.92071 112.408 47.9314 103.245C87.5541 93.4876 118.523 100.106 143.382 105.451C155.43 107.996 165.781 110.287 175.114 110.287C204.81 110.372 212.192 107.996 234.082 101.039C248.76 96.3723 268.868 90.0089 305.946 80.9305C343.871 71.6824 402.924 69.7309 460.024 75.9246C492.69 79.4033 523.574 85.3424 551.912 93.4876C583.729 102.651 611.558 114.444 634.721 128.529C676.465 153.982 702.342 186.648 711.76 225.507C721.093 264.62 720.414 304.752 709.724 344.714C699.118 384.422 679.18 421.923 650.502 456.201C609.097 505.75 550.894 545.797 482.169 572.184C445.516 586.184 405.893 596.45 364.234 602.474C333.266 606.971 301.109 609.262 268.105 609.262Z" stroke="url(#paint1_linear_7432_3895)" stroke-width="0.8353" stroke-miterlimit="10"/>
            <path d="M277.353 577.19C266.577 577.19 255.717 576.936 244.687 576.426C164.848 573.033 112.074 550.04 83.3967 506.175C58.4522 467.909 55.1433 418.954 52.2585 375.768C50.1374 344.205 48.1011 314.424 38.1742 292.534C10.0056 225.507 -18.163 207.52 -34.9623 196.744C-45.6528 189.872 -52.695 185.375 -52.4405 172.903C-52.6102 155.849 6.86634 132.262 62.1854 117.584C97.9901 107.742 125.989 112.578 148.558 116.565C158.824 118.347 167.648 119.874 175.878 119.874C209.646 120.129 215.84 118.602 250.202 109.863C263.184 106.639 279.219 102.566 302.212 97.2208C325.715 91.7059 358.21 89.0757 393.676 89.5847C433.638 90.2635 473.854 95.0148 509.998 103.414C552.76 113.341 588.48 127.765 616.055 146.431C648.211 168.151 668.659 195.132 676.719 226.695C685.628 262.245 685.458 298.643 676.21 335.042C667.047 371.186 649.399 405.463 623.776 436.771C587.038 481.57 535.282 518.053 473.939 542.234C415.057 565.397 349.047 577.105 277.353 577.19Z" stroke="url(#paint2_linear_7432_3895)" stroke-width="0.8353" stroke-miterlimit="10"/>
            <path d="M286.007 545.034C278.625 545.034 271.074 544.864 263.523 544.61C193.101 542.573 145.758 523.653 118.777 486.66C95.1901 454.334 90.3539 413.948 85.6874 374.919C82.2936 346.242 78.9846 319.091 68.2093 298.983C40.0407 240.609 14.2477 223.725 -2.80614 212.61C-14.0906 205.229 -20.8782 200.817 -20.8782 188.599C-21.4721 173.073 21.2899 148.043 76.609 131.668C108.85 121.572 134.304 124.711 154.751 127.256C162.557 128.189 169.939 129.123 176.811 129.208L180.29 129.292C220.082 129.886 223.306 129.886 298.734 113.257C319.945 108.59 350.32 106.13 382.052 106.554C418.62 107.063 455.358 111.136 488.278 118.432C527.476 127.086 560.227 139.813 585.595 156.273C615.206 175.448 634.212 199.459 641.932 227.628C650.502 259.53 650.841 292.365 643.12 325.2C635.399 357.865 620.042 388.749 597.474 417.172C565.487 457.304 520.095 490.139 466.218 512.114C412.426 534.004 351.932 545.034 286.007 545.034Z" stroke="url(#paint3_linear_7432_3895)" stroke-width="0.8353" stroke-miterlimit="10"/>
            <path d="M294.576 513.047C290.504 513.047 286.431 512.962 282.359 512.877C145.419 511.435 131.589 438.299 119.371 373.731C114.535 348.108 109.953 323.927 98.1597 305.685C70.2457 255.881 45.7254 239.591 29.4351 228.816C17.8113 221.095 10.7692 216.428 10.5995 204.465C10.0904 196.914 18.0659 186.308 32.4896 175.448C47.8465 163.909 68.5488 153.388 90.9479 145.837C120.559 135.062 142.873 136.589 162.642 137.947C167.903 138.286 172.824 138.625 177.66 138.71C184.872 138.88 191.15 139.134 196.75 139.389C222.373 140.492 237.9 141.171 295.085 129.377C331.569 121.826 400.718 119.875 466.473 133.45C502.023 140.831 531.804 151.776 554.966 166.115C582.032 182.83 599.595 203.786 607.061 228.561C615.206 256.815 616.14 286.001 609.861 315.273C603.583 344.46 590.516 372.119 570.917 397.488C543.682 432.868 504.653 462.055 458.073 481.909C409.796 502.611 354.901 513.047 294.576 513.047Z" stroke="url(#paint4_linear_7432_3895)" stroke-width="0.8353" stroke-miterlimit="10"/>
            <path d="M296.697 481.23C247.063 481.23 211.937 470.116 189.283 447.207C168.751 426.335 160.86 398.676 153.224 371.95C146.861 349.635 140.837 328.594 128.025 312.388C100.705 271.323 77.5423 255.797 62.1005 245.445C49.7979 237.215 42.4164 232.294 41.9921 220.416C40.3801 204.465 67.1063 175.278 105.117 160.176C134.473 147.195 155.515 147.704 175.963 148.298L178.254 148.383C188.096 148.722 196.326 149.486 204.301 150.249C225.597 152.285 245.79 154.237 291.267 145.667C324.442 139.389 386.464 137.607 444.498 148.722C493.369 158.055 555.136 179.69 572.02 229.749C587.632 279.044 577.535 333.175 544.361 378.313C521.792 409.027 489.126 434.565 450.013 452.128C407.166 471.388 357.786 481.145 303.061 481.23C302.382 481.23 301.788 481.23 301.109 481.23C299.667 481.23 298.14 481.23 296.697 481.23Z" stroke="url(#paint5_linear_7432_3895)" stroke-width="0.8353" stroke-miterlimit="10"/>
            <path d="M306.709 449.838C270.395 449.838 243.415 442.286 224.494 426.844C205.574 411.487 196.41 389.937 187.502 369.235C179.866 351.502 172.06 333.175 158.145 319.091C132.013 286.85 110.293 272.257 95.8689 262.669C82.4633 253.76 74.403 248.33 73.6394 236.452C71.688 221.349 88.657 189.787 119.541 174.6C141.346 162.297 159.163 157.376 179.187 158.055C189.793 158.479 199.041 159.921 208.713 161.534C229.246 164.758 250.542 168.151 287.704 162.043C317.654 157.037 372.719 155.51 422.777 164.079C466.133 171.46 521.113 189.108 537.234 231.022C552.166 273.275 545.209 320.024 518.143 359.223C500.156 385.016 473.854 406.906 442.037 422.263C406.827 439.317 365.761 448.48 319.945 449.498C315.448 449.668 311.036 449.838 306.709 449.838Z" stroke="url(#paint6_linear_7432_3895)" stroke-width="0.8353" stroke-miterlimit="10"/>
            <path d="M316.212 418.954C257.753 418.954 240.106 392.652 221.525 364.992C212.361 351.332 202.859 337.248 188.18 325.709C164.339 302.461 145.249 289.989 131.334 280.826C115.214 270.305 106.39 264.536 105.287 252.233C104.014 244.003 105.965 231.701 110.377 220.331C115.723 206.502 124.122 195.302 134.049 188.854C149.915 176.297 163.321 166.794 180.205 167.558C190.811 168.151 201.077 170.442 212.022 172.903C231.706 177.315 254.02 182.236 284.31 178.163C305.267 175.278 353.544 172.224 401.142 179.097C425.917 182.66 446.873 188.429 463.333 196.235C482.763 205.399 495.914 217.447 502.532 231.955C516.956 267.166 513.222 306.619 492.181 340.133C478.86 361.344 458.921 379.501 434.401 392.652C407.336 407.16 375.264 415.645 339.035 417.851C330.635 418.53 323.084 418.954 316.212 418.954Z" stroke="url(#paint7_linear_7432_3895)" stroke-width="0.8353" stroke-miterlimit="10"/>
            <path d="M324.696 389.258C289.401 389.258 273.026 375.259 253.426 358.459C243.245 349.72 232.639 340.642 218.046 332.242C199.126 318.412 183.684 309.079 171.296 301.613C150 288.717 138.292 281.674 136.595 268.099C133.88 252.997 134.389 217.192 148.049 203.108C148.897 202.005 149.661 200.902 150.424 199.799C158.824 188.175 167.478 176.212 180.714 177.06C190.98 177.824 202.35 181.048 214.483 184.527C233.997 190.126 256.142 196.49 280.407 194.284C306.624 191.823 438.728 181.981 467.321 232.888C481.49 261.142 480.981 293.383 466.049 321.382C457.14 338.096 443.734 352.096 426.256 363.041C407.166 375.004 384.088 382.725 357.616 386.034C344.974 388.325 334.199 389.258 324.696 389.258Z" stroke="url(#paint8_linear_7432_3895)" stroke-width="0.8353" stroke-miterlimit="10"/>
            <path d="M329.957 363.21C309.085 363.21 292.286 356.508 269.123 347.175C262.505 344.544 255.717 341.829 248.081 338.86C242.566 336.145 237.391 333.684 232.555 331.309C190.302 310.776 170.957 301.443 168.157 283.88C165.442 270.899 157.212 231.276 162.472 217.362C165.272 202.429 170.024 185.46 181.647 186.393C191.405 187.326 204.131 191.738 217.622 196.49C236.712 203.192 258.263 210.744 276.759 210.235C280.238 210.15 284.48 209.895 289.401 209.725C309.339 208.792 339.544 207.35 367.374 209.895C400.718 212.95 422.608 220.925 432.45 233.737C446.619 254.778 449.928 280.741 441.359 303.14C431.771 328 408.778 346.072 376.452 354.132C357.616 360.58 343.023 363.21 329.957 363.21Z" stroke="url(#paint9_linear_7432_3895)" stroke-width="0.8353" stroke-miterlimit="10"/>
            <path d="M317.824 349.805C305.691 349.805 292.455 348.363 278.032 345.478C226.955 332.327 203.537 318.667 199.635 299.831C197.598 291.177 191.659 274.632 186.399 260.039C182.241 248.5 178.338 237.555 176.811 231.87C174.945 227.034 173.842 220.331 173.757 213.883C173.672 206.841 174.945 201.326 177.151 198.441C178.508 196.659 180.29 195.811 182.411 196.066C191.659 197.169 206.507 203.362 222.203 209.895C240.869 217.616 260.214 225.677 273.111 226.61C280.153 227.119 291.267 226.525 304.164 225.761C336.151 223.98 380.1 221.604 397.409 234.925C412.935 248.67 421.505 268.354 419.808 286.256C418.365 301.274 409.881 313.831 395.203 322.57C378.488 335.296 362.707 343.017 345.738 346.92C337.084 348.872 327.836 349.805 317.824 349.805Z" stroke="url(#paint10_linear_7432_3895)" stroke-width="0.8353" stroke-miterlimit="10"/>
            <path d="M312.564 352.181C311.036 352.181 309.509 352.181 307.982 352.096C283.207 351.247 263.862 346.92 250.627 339.199C240.191 333.175 233.658 325.285 231.112 315.697C227.04 300.001 203.198 258.427 191.235 246.124C186.823 241.543 182.92 233.991 180.714 225.337C178.678 217.531 178.423 210.489 180.035 207.35C180.799 205.992 181.817 205.314 183.175 205.568C192.592 207.095 212.87 216.938 232.555 226.44C247.827 233.822 262.25 240.779 269.462 242.815C277.692 245.106 294.746 242.476 312.903 239.676C331.569 236.791 350.829 233.907 362.453 235.943C374.585 238.064 388.415 245.276 398.512 254.778C410.305 265.808 415.905 278.535 414.208 290.668C412.172 304.837 399.784 320.449 381.034 332.497C361.18 345.223 336.999 352.181 312.564 352.181Z" stroke="url(#paint11_linear_7432_3895)" stroke-width="0.8353" stroke-miterlimit="10"/>
        </g>
    </g>
    <path d="M415.5 169.1L398.3 141L381 169.1L398.3 161.4L415.5 169.1Z" fill="#00B4FF"/>
    <path d="M398.3 182.4L381 172.4L398.3 196.2L415.6 172.4L398.3 182.4Z" fill="#00B4FF"/>
    <path d="M415.5 169.1L398.3 161.4L381 169.1L398.3 179.2L415.5 169.1Z" fill="#00B4FF"/>
    <path d="M341 284.6C341.9 278.4 337.2 275.1 330.8 272.8L332.9 264.4L327.8 263.1L325.8 271.3C324.5 271 323.1 270.6 321.7 270.3L323.8 262.1L318.7 260.8L316.6 269.2C315.5 268.9 314.4 268.7 313.3 268.4L306.3 266.6L304.9 272.1C304.9 272.1 308.7 273 308.6 273C310.7 273.5 311 274.9 311 276L308.6 285.6L305.3 299C305 299.6 304.4 300.6 303 300.2C303.1 300.3 299.3 299.3 299.3 299.3L296.8 305.2L303.5 306.9C304.7 307.2 306 307.5 307.1 307.8L305 316.3L310.1 317.6L312.2 309.2C313.6 309.6 314.9 309.9 316.3 310.3L314.2 318.7L319.3 320L321.4 311.5C330.1 313.1 336.7 312.5 339.4 304.6C341.6 298.3 339.3 294.6 334.7 292.2C337.8 291.3 340.3 289.1 341 284.6ZM329.3 301C327.7 307.3 317 303.9 313.6 303.1L316.4 291.8C319.9 292.6 331 294.3 329.3 301ZM330.9 284.5C329.5 290.3 320.6 287.3 317.7 286.6L320.2 276.4C323.1 277.1 332.4 278.5 330.9 284.5Z" fill="#00B4FF"/>
    <path d="M482.4 373.5L486.2 369.7L487 368.9L488.9 367L495.3 373.5L499 369.7L488.9 359.5L478.7 369.7L482.4 373.5Z" fill="#00B4FF"/>
    <path d="M488.853 372.426L485.106 376.174L488.853 379.922L492.601 376.174L488.853 372.426Z" fill="#00B4FF"/>
    <path d="M495.3 378.8L488.9 385.3L486.6 383L486.2 382.6L482.4 378.8L478.7 382.6L488.9 392.8L499 382.6L495.3 378.8Z" fill="#00B4FF"/>
    <path d="M476.025 372.378L472.277 376.126L476.025 379.874L479.773 376.126L476.025 372.378Z" fill="#00B4FF"/>
    <path d="M501.735 372.402L497.988 376.149L501.735 379.897L505.483 376.149L501.735 372.402Z" fill="#00B4FF"/>
    <path fill-rule="evenodd" clip-rule="evenodd" d="M72 376.2L68.1 390.8L65 392L63.9 396.2L67 395.1L64.9 403.7L87.5 403.8L88.8 398.2H75.1L76.9 391.6L80.6 390L81.7 386L78.1 387.2L80.9 376.3L72 376.2Z" fill="#B7B8BA"/>
    <path fill-rule="evenodd" clip-rule="evenodd" d="M72 376.2L68.1 390.8L65 392L63.9 396.2L67 395.1L64.9 403.7L87.5 403.8L88.8 398.2H75.1L76.9 391.6L80.6 390L81.7 386L78.1 387.2L80.9 376.3L72 376.2Z" fill="#00B4FF"/>
    <path d="M660.4 436.001H652.3V448.601H649V451.701H652.3V464.301H661.8C661.8 464.301 675.1 465.401 675.1 450.401C675 435.601 662.3 436.001 660.4 436.001ZM661.5 459.101H657.6V451.701H663.5V448.601H657.6V441.201H661.3C662.7 441.201 669.7 441.801 669.7 450.401C669.7 459.001 662.5 459.101 661.5 459.101Z" fill="#00B4FF"/>
    <path d="M296.1 480.3C299.911 480.3 303 478.509 303 476.3C303 474.091 299.911 472.3 296.1 472.3C292.289 472.3 289.2 474.091 289.2 476.3C289.2 478.509 292.289 480.3 296.1 480.3Z" fill="#00B4FF"/>
    <path d="M296.1 510.7C299.911 510.7 303 508.909 303 506.7C303 504.491 299.911 502.7 296.1 502.7C292.289 502.7 289.2 504.491 289.2 506.7C289.2 508.909 292.289 510.7 296.1 510.7Z" fill="#00B4FF"/>
    <path d="M279.4 481.9C281.3 478.6 284.4 476.8 286.4 477.9C288.3 479 288.3 482.6 286.4 485.9C284.5 489.2 281.4 491 279.4 489.9C277.5 488.8 277.5 485.2 279.4 481.9Z" fill="#00B4FF"/>
    <path d="M305.8 497.1C307.7 493.8 310.8 492 312.8 493.1C314.7 494.2 314.7 497.8 312.8 501.1C310.9 504.4 307.8 506.2 305.8 505.1C303.8 504 303.8 500.4 305.8 497.1Z" fill="#00B4FF"/>
    <path d="M286.333 505.093C288.246 503.988 288.253 500.418 286.347 497.118C284.442 493.817 281.346 492.038 279.433 493.142C277.52 494.247 277.514 497.817 279.419 501.118C281.325 504.418 284.42 506.198 286.333 505.093Z" fill="#00B4FF"/>
    <path d="M305.8 477.9C307.7 476.8 310.8 478.6 312.8 481.9C314.7 485.2 314.7 488.8 312.8 489.9C310.9 491 307.8 489.2 305.8 485.9C303.8 482.6 303.9 479 305.8 477.9Z" fill="#00B4FF"/>
    <path d="M147.017 155.171C148.317 154.471 149.817 156.071 149.117 157.271C148.717 158.271 147.317 158.571 146.517 157.771C145.717 157.071 145.917 155.571 147.017 155.171ZM133.517 156.571C134.317 156.271 135.217 156.971 135.117 157.771C135.217 158.671 134.117 159.371 133.317 158.871C132.317 158.571 132.517 156.871 133.517 156.571ZM161.117 158.971C159.917 158.871 159.717 156.971 160.917 156.571C161.817 156.171 162.617 156.971 162.717 157.771C162.517 158.571 161.917 159.171 161.117 158.971ZM136.617 162.371C137.917 161.571 139.717 162.771 139.517 164.271C139.417 165.771 137.517 166.671 136.317 165.571C135.217 164.771 135.417 162.971 136.617 162.371ZM156.017 163.171C156.617 161.671 158.917 161.671 159.517 163.071C160.117 164.171 159.417 165.571 158.217 165.971C156.717 166.271 155.317 164.571 156.017 163.171ZM145.317 165.871C145.317 164.571 146.417 163.671 147.617 163.571C148.417 163.771 149.317 164.071 149.617 164.871C150.217 165.971 149.717 167.471 148.517 167.971C148.017 168.271 147.417 168.171 146.817 168.071C146.017 167.771 145.317 166.871 145.317 165.871ZM125.317 167.671C126.517 166.971 128.017 168.271 127.617 169.471C127.417 170.571 125.917 170.971 125.117 170.271C124.217 169.771 124.317 168.171 125.317 167.671ZM168.317 167.671C169.317 166.871 170.917 167.771 170.817 169.071C170.917 170.171 169.517 171.071 168.517 170.471C167.417 169.971 167.317 168.271 168.317 167.671ZM151.017 169.971C152.617 169.371 154.617 170.071 155.517 171.571C156.717 173.371 156.117 176.071 154.217 177.071C152.217 178.271 149.417 177.271 148.617 175.071C147.717 172.971 148.917 170.571 151.017 169.971ZM141.417 170.171C143.217 169.371 145.617 170.071 146.517 171.871C147.517 173.671 146.717 176.171 144.917 177.071C143.117 178.071 140.517 177.371 139.617 175.371C138.617 173.571 139.517 170.971 141.417 170.171ZM131.917 173.371C132.017 172.171 133.117 171.471 134.217 171.371C135.417 171.471 136.317 172.471 136.517 173.671C136.417 174.871 135.517 176.071 134.217 175.971C132.917 176.171 131.617 174.771 131.917 173.371ZM160.117 171.671C161.517 170.871 163.517 172.071 163.417 173.671C163.517 175.371 161.317 176.671 159.917 175.571C158.417 174.771 158.617 172.371 160.117 171.671ZM137.617 177.771C139.317 177.271 141.217 178.071 142.017 179.671C142.917 181.171 142.517 183.371 141.117 184.471C139.317 186.171 136.017 185.471 135.117 183.171C134.017 181.071 135.317 178.371 137.617 177.771ZM155.617 177.771C157.217 177.271 159.117 177.971 160.017 179.371C161.217 181.071 160.617 183.571 158.917 184.671C157.117 185.971 154.317 185.271 153.317 183.271C152.217 181.271 153.417 178.371 155.617 177.771ZM126.817 179.671C128.217 179.171 129.817 180.671 129.317 182.171C128.917 183.471 127.117 183.971 126.217 182.971C125.017 182.071 125.517 180.071 126.817 179.671ZM165.917 181.771C165.917 180.571 166.717 179.471 168.017 179.471C169.017 179.671 169.917 180.471 169.917 181.471C170.017 182.871 168.317 183.871 167.117 183.171C166.417 182.871 166.117 182.371 165.917 181.771ZM119.817 180.371C120.717 179.971 121.717 180.771 121.517 181.671C121.517 182.771 119.817 183.171 119.317 182.271C118.717 181.671 119.017 180.771 119.817 180.371ZM174.417 180.371C175.017 179.971 176.017 180.271 176.217 180.971C176.617 181.771 175.917 182.771 175.017 182.671C173.817 182.771 173.417 180.871 174.417 180.371ZM142.317 185.571C144.617 184.971 147.017 186.871 147.017 189.271C147.117 191.671 144.717 193.771 142.417 193.171C140.617 192.871 139.217 191.171 139.217 189.271C139.317 187.571 140.617 185.971 142.317 185.571ZM151.317 185.571C153.617 184.971 156.117 186.871 156.117 189.271C156.217 191.571 153.917 193.671 151.617 193.171C149.417 192.871 147.917 190.571 148.517 188.471C148.817 187.071 149.917 185.971 151.317 185.571ZM133.917 187.071C135.517 186.771 137.017 188.571 136.417 190.071C135.917 191.671 133.617 192.171 132.517 190.771C131.217 189.571 132.217 187.271 133.917 187.071ZM160.417 187.071C161.817 186.471 163.617 187.671 163.517 189.271C163.617 190.971 161.417 192.171 160.017 191.171C158.417 190.271 158.717 187.671 160.417 187.071ZM167.817 194.571C167.217 193.571 168.317 192.171 169.417 192.371C170.017 192.371 170.417 192.771 170.717 193.171C170.817 193.771 170.917 194.571 170.417 194.971C169.717 195.871 168.217 195.571 167.817 194.571ZM125.317 192.571C126.417 191.871 127.917 192.971 127.717 194.171C127.617 195.271 126.217 195.971 125.217 195.271C124.317 194.771 124.317 193.171 125.317 192.571ZM146.717 194.971C148.117 194.371 149.917 195.571 149.817 197.171C149.917 198.871 147.717 200.071 146.317 199.071C144.817 198.071 145.017 195.471 146.717 194.971ZM136.817 197.271C138.017 196.671 139.617 197.771 139.517 199.071C139.517 200.171 138.517 201.171 137.417 200.971C136.517 200.971 135.917 200.171 135.617 199.371C135.617 198.471 136.017 197.571 136.817 197.271ZM156.917 197.271C158.117 196.471 159.917 197.571 159.817 199.071C159.817 200.571 157.817 201.571 156.717 200.571C155.517 199.771 155.717 197.871 156.917 197.271ZM160.417 205.871C159.817 205.071 160.517 204.071 161.417 203.871C162.117 203.971 162.917 204.571 162.717 205.371C162.617 206.471 160.917 206.871 160.417 205.871ZM132.717 205.171C132.917 204.471 133.517 203.871 134.217 204.071C135.317 204.171 135.717 205.871 134.717 206.371C133.817 206.971 132.817 206.171 132.717 205.171ZM146.017 205.971C146.217 204.971 147.517 204.471 148.317 205.071C148.917 205.271 149.017 205.971 149.217 206.471C149.117 206.771 149.117 206.971 149.017 207.271C148.717 207.671 148.217 208.071 147.617 208.071C146.617 208.071 145.617 206.871 146.017 205.971Z" fill="#00B4FF"/>
    <defs>
        <linearGradient id="paint0_linear_7432_3895" x1="102.414" y1="622.535" x2="461.743" y2="0.157856" gradientUnits="userSpaceOnUse">
            <stop stop-color="#00B4FF"/>
            <stop offset="0.0640978" stop-color="#2CC1FF"/>
            <stop offset="0.2077" stop-color="#98E1FF"/>
            <stop offset="0.3371" stop-color="white"/>
            <stop offset="0.6499" stop-color="#15BAFF"/>
            <stop offset="0.7316" stop-color="#47C9FF"/>
            <stop offset="0.9172" stop-color="#C5EEFF"/>
            <stop offset="1" stop-color="white"/>
        </linearGradient>
        <linearGradient id="paint1_linear_7432_3895" x1="122.225" y1="589.429" x2="450.119" y2="21.4987" gradientUnits="userSpaceOnUse">
            <stop stop-color="#00B4FF"/>
            <stop offset="0.0640978" stop-color="#2CC1FF"/>
            <stop offset="0.2077" stop-color="#98E1FF"/>
            <stop offset="0.3371" stop-color="white"/>
            <stop offset="0.6499" stop-color="#15BAFF"/>
            <stop offset="0.7316" stop-color="#47C9FF"/>
            <stop offset="0.9172" stop-color="#C5EEFF"/>
            <stop offset="1" stop-color="white"/>
        </linearGradient>
        <linearGradient id="paint2_linear_7432_3895" x1="141.974" y1="556.377" x2="438.497" y2="42.7836" gradientUnits="userSpaceOnUse">
            <stop stop-color="#00B4FF"/>
            <stop offset="0.0640978" stop-color="#2CC1FF"/>
            <stop offset="0.2077" stop-color="#98E1FF"/>
            <stop offset="0.3371" stop-color="white"/>
            <stop offset="0.6499" stop-color="#15BAFF"/>
            <stop offset="0.7316" stop-color="#47C9FF"/>
            <stop offset="0.9172" stop-color="#C5EEFF"/>
            <stop offset="1" stop-color="white"/>
        </linearGradient>
        <linearGradient id="paint3_linear_7432_3895" x1="161.663" y1="523.417" x2="426.896" y2="64.0208" gradientUnits="userSpaceOnUse">
            <stop stop-color="#00B4FF"/>
            <stop offset="0.0640978" stop-color="#2CC1FF"/>
            <stop offset="0.2077" stop-color="#98E1FF"/>
            <stop offset="0.3371" stop-color="white"/>
            <stop offset="0.6499" stop-color="#15BAFF"/>
            <stop offset="0.7316" stop-color="#47C9FF"/>
            <stop offset="0.9172" stop-color="#C5EEFF"/>
            <stop offset="1" stop-color="white"/>
        </linearGradient>
        <linearGradient id="paint4_linear_7432_3895" x1="181.19" y1="490.564" x2="415.259" y2="85.1447" gradientUnits="userSpaceOnUse">
            <stop stop-color="#00B4FF"/>
            <stop offset="0.0640978" stop-color="#2CC1FF"/>
            <stop offset="0.2077" stop-color="#98E1FF"/>
            <stop offset="0.3371" stop-color="white"/>
            <stop offset="0.6499" stop-color="#15BAFF"/>
            <stop offset="0.7316" stop-color="#47C9FF"/>
            <stop offset="0.9172" stop-color="#C5EEFF"/>
            <stop offset="1" stop-color="white"/>
        </linearGradient>
        <linearGradient id="paint5_linear_7432_3895" x1="200.371" y1="457.799" x2="403.46" y2="106.04" gradientUnits="userSpaceOnUse">
            <stop stop-color="#00B4FF"/>
            <stop offset="0.0640978" stop-color="#2CC1FF"/>
            <stop offset="0.2077" stop-color="#98E1FF"/>
            <stop offset="0.3371" stop-color="white"/>
            <stop offset="0.6499" stop-color="#15BAFF"/>
            <stop offset="0.7316" stop-color="#47C9FF"/>
            <stop offset="0.9172" stop-color="#C5EEFF"/>
            <stop offset="1" stop-color="white"/>
        </linearGradient>
        <linearGradient id="paint6_linear_7432_3895" x1="218.854" y1="425.183" x2="391.261" y2="126.564" gradientUnits="userSpaceOnUse">
            <stop stop-color="#00B4FF"/>
            <stop offset="0.0640978" stop-color="#2CC1FF"/>
            <stop offset="0.2077" stop-color="#98E1FF"/>
            <stop offset="0.3371" stop-color="white"/>
            <stop offset="0.6499" stop-color="#15BAFF"/>
            <stop offset="0.7316" stop-color="#47C9FF"/>
            <stop offset="0.9172" stop-color="#C5EEFF"/>
            <stop offset="1" stop-color="white"/>
        </linearGradient>
        <linearGradient id="paint7_linear_7432_3895" x1="235.607" y1="392.621" x2="377.948" y2="146.079" gradientUnits="userSpaceOnUse">
            <stop stop-color="#00B4FF"/>
            <stop offset="0.0640978" stop-color="#2CC1FF"/>
            <stop offset="0.2077" stop-color="#98E1FF"/>
            <stop offset="0.3371" stop-color="white"/>
            <stop offset="0.6499" stop-color="#15BAFF"/>
            <stop offset="0.7316" stop-color="#47C9FF"/>
            <stop offset="0.9172" stop-color="#C5EEFF"/>
            <stop offset="1" stop-color="white"/>
        </linearGradient>
        <linearGradient id="paint8_linear_7432_3895" x1="249.491" y1="361.277" x2="363.211" y2="164.308" gradientUnits="userSpaceOnUse">
            <stop stop-color="#00B4FF"/>
            <stop offset="0.0640978" stop-color="#2CC1FF"/>
            <stop offset="0.2077" stop-color="#98E1FF"/>
            <stop offset="0.3371" stop-color="white"/>
            <stop offset="0.6499" stop-color="#15BAFF"/>
            <stop offset="0.7316" stop-color="#47C9FF"/>
            <stop offset="0.9172" stop-color="#C5EEFF"/>
            <stop offset="1" stop-color="white"/>
        </linearGradient>
        <linearGradient id="paint9_linear_7432_3895" x1="250.55" y1="344.847" x2="345.641" y2="180.145" gradientUnits="userSpaceOnUse">
            <stop stop-color="#00B4FF"/>
            <stop offset="0.0640978" stop-color="#2CC1FF"/>
            <stop offset="0.2077" stop-color="#98E1FF"/>
            <stop offset="0.3371" stop-color="white"/>
            <stop offset="0.6499" stop-color="#15BAFF"/>
            <stop offset="0.7316" stop-color="#47C9FF"/>
            <stop offset="0.9172" stop-color="#C5EEFF"/>
            <stop offset="1" stop-color="white"/>
        </linearGradient>
        <linearGradient id="paint10_linear_7432_3895" x1="245.054" y1="339.001" x2="328.52" y2="194.434" gradientUnits="userSpaceOnUse">
            <stop stop-color="#00B4FF"/>
            <stop offset="0.0640978" stop-color="#2CC1FF"/>
            <stop offset="0.2077" stop-color="#98E1FF"/>
            <stop offset="0.3371" stop-color="white"/>
            <stop offset="0.6499" stop-color="#15BAFF"/>
            <stop offset="0.7316" stop-color="#47C9FF"/>
            <stop offset="0.9172" stop-color="#C5EEFF"/>
            <stop offset="1" stop-color="white"/>
        </linearGradient>
        <linearGradient id="paint11_linear_7432_3895" x1="247.436" y1="337.786" x2="322.307" y2="208.107" gradientUnits="userSpaceOnUse">
            <stop stop-color="#00B4FF"/>
            <stop offset="0.0640978" stop-color="#2CC1FF"/>
            <stop offset="0.2077" stop-color="#98E1FF"/>
            <stop offset="0.3371" stop-color="white"/>
            <stop offset="0.6499" stop-color="#15BAFF"/>
            <stop offset="0.7316" stop-color="#47C9FF"/>
            <stop offset="0.9172" stop-color="#C5EEFF"/>
            <stop offset="1" stop-color="white"/>
        </linearGradient>
    </defs>
</svg>
