<?xml version="1.0" encoding="utf-8"?>
<svg viewBox="0 0 822 628" fill="none" xmlns="http://www.w3.org/2000/svg">
  <defs>
    <linearGradient id="paint0_linear_7432_3895" x1="102.414" y1="622.535" x2="461.743" y2="0.157856" gradientUnits="userSpaceOnUse">
      <stop stop-color="#00B4FF"/>
      <stop offset="0.0641" stop-color="#2CC1FF"/>
      <stop offset="0.2077" stop-color="#98E1FF"/>
      <stop offset="0.3371" stop-color="white"/>
      <stop offset="0.6499" stop-color="#15BAFF"/>
      <stop offset="0.7316" stop-color="#47C9FF"/>
      <stop offset="0.9172" stop-color="#C5EEFF"/>
      <stop offset="1" stop-color="white"/>
    </linearGradient>
    <linearGradient id="paint1_linear_7432_3895" x1="122.225" y1="589.429" x2="450.119" y2="21.4987" gradientUnits="userSpaceOnUse">
      <stop stop-color="#00B4FF"/>
      <stop offset="0.0641" stop-color="#2CC1FF"/>
      <stop offset="0.2077" stop-color="#98E1FF"/>
      <stop offset="0.3371" stop-color="white"/>
      <stop offset="0.6499" stop-color="#15BAFF"/>
      <stop offset="0.7316" stop-color="#47C9FF"/>
      <stop offset="0.9172" stop-color="#C5EEFF"/>
      <stop offset="1" stop-color="white"/>
    </linearGradient>
    <linearGradient id="paint2_linear_7432_3895" x1="141.974" y1="556.377" x2="438.497" y2="42.7836" gradientUnits="userSpaceOnUse">
      <stop stop-color="#00B4FF"/>
      <stop offset="0.0641" stop-color="#2CC1FF"/>
      <stop offset="0.2077" stop-color="#98E1FF"/>
      <stop offset="0.3371" stop-color="white"/>
      <stop offset="0.6499" stop-color="#15BAFF"/>
      <stop offset="0.7316" stop-color="#47C9FF"/>
      <stop offset="0.9172" stop-color="#C5EEFF"/>
      <stop offset="1" stop-color="white"/>
    </linearGradient>
    <linearGradient id="paint3_linear_7432_3895" x1="161.663" y1="523.417" x2="426.896" y2="64.0208" gradientUnits="userSpaceOnUse">
      <stop stop-color="#00B4FF"/>
      <stop offset="0.0641" stop-color="#2CC1FF"/>
      <stop offset="0.2077" stop-color="#98E1FF"/>
      <stop offset="0.3371" stop-color="white"/>
      <stop offset="0.6499" stop-color="#15BAFF"/>
      <stop offset="0.7316" stop-color="#47C9FF"/>
      <stop offset="0.9172" stop-color="#C5EEFF"/>
      <stop offset="1" stop-color="white"/>
    </linearGradient>
    <linearGradient id="paint4_linear_7432_3895" x1="181.19" y1="490.564" x2="415.259" y2="85.1447" gradientUnits="userSpaceOnUse">
      <stop stop-color="#00B4FF"/>
      <stop offset="0.0641" stop-color="#2CC1FF"/>
      <stop offset="0.2077" stop-color="#98E1FF"/>
      <stop offset="0.3371" stop-color="white"/>
      <stop offset="0.6499" stop-color="#15BAFF"/>
      <stop offset="0.7316" stop-color="#47C9FF"/>
      <stop offset="0.9172" stop-color="#C5EEFF"/>
      <stop offset="1" stop-color="white"/>
    </linearGradient>
    <linearGradient id="paint5_linear_7432_3895" x1="200.371" y1="457.799" x2="403.46" y2="106.04" gradientUnits="userSpaceOnUse">
      <stop stop-color="#00B4FF"/>
      <stop offset="0.0641" stop-color="#2CC1FF"/>
      <stop offset="0.2077" stop-color="#98E1FF"/>
      <stop offset="0.3371" stop-color="white"/>
      <stop offset="0.6499" stop-color="#15BAFF"/>
      <stop offset="0.7316" stop-color="#47C9FF"/>
      <stop offset="0.9172" stop-color="#C5EEFF"/>
      <stop offset="1" stop-color="white"/>
    </linearGradient>
    <linearGradient id="paint6_linear_7432_3895" x1="218.854" y1="425.183" x2="391.261" y2="126.564" gradientUnits="userSpaceOnUse">
      <stop stop-color="#00B4FF"/>
      <stop offset="0.0641" stop-color="#2CC1FF"/>
      <stop offset="0.2077" stop-color="#98E1FF"/>
      <stop offset="0.3371" stop-color="white"/>
      <stop offset="0.6499" stop-color="#15BAFF"/>
      <stop offset="0.7316" stop-color="#47C9FF"/>
      <stop offset="0.9172" stop-color="#C5EEFF"/>
      <stop offset="1" stop-color="white"/>
    </linearGradient>
    <linearGradient id="paint7_linear_7432_3895" x1="235.607" y1="392.621" x2="377.948" y2="146.079" gradientUnits="userSpaceOnUse">
      <stop stop-color="#00B4FF"/>
      <stop offset="0.0641" stop-color="#2CC1FF"/>
      <stop offset="0.2077" stop-color="#98E1FF"/>
      <stop offset="0.3371" stop-color="white"/>
      <stop offset="0.6499" stop-color="#15BAFF"/>
      <stop offset="0.7316" stop-color="#47C9FF"/>
      <stop offset="0.9172" stop-color="#C5EEFF"/>
      <stop offset="1" stop-color="white"/>
    </linearGradient>
    <linearGradient id="paint8_linear_7432_3895" x1="249.491" y1="361.277" x2="363.211" y2="164.308" gradientUnits="userSpaceOnUse">
      <stop stop-color="#00B4FF"/>
      <stop offset="0.0641" stop-color="#2CC1FF"/>
      <stop offset="0.2077" stop-color="#98E1FF"/>
      <stop offset="0.3371" stop-color="white"/>
      <stop offset="0.6499" stop-color="#15BAFF"/>
      <stop offset="0.7316" stop-color="#47C9FF"/>
      <stop offset="0.9172" stop-color="#C5EEFF"/>
      <stop offset="1" stop-color="white"/>
    </linearGradient>
    <linearGradient id="paint9_linear_7432_3895" x1="250.55" y1="344.847" x2="345.641" y2="180.145" gradientUnits="userSpaceOnUse">
      <stop stop-color="#00B4FF"/>
      <stop offset="0.0641" stop-color="#2CC1FF"/>
      <stop offset="0.2077" stop-color="#98E1FF"/>
      <stop offset="0.3371" stop-color="white"/>
      <stop offset="0.6499" stop-color="#15BAFF"/>
      <stop offset="0.7316" stop-color="#47C9FF"/>
      <stop offset="0.9172" stop-color="#C5EEFF"/>
      <stop offset="1" stop-color="white"/>
    </linearGradient>
    <linearGradient id="paint10_linear_7432_3895" x1="245.054" y1="339.001" x2="328.52" y2="194.434" gradientUnits="userSpaceOnUse">
      <stop stop-color="#00B4FF"/>
      <stop offset="0.0641" stop-color="#2CC1FF"/>
      <stop offset="0.2077" stop-color="#98E1FF"/>
      <stop offset="0.3371" stop-color="white"/>
      <stop offset="0.6499" stop-color="#15BAFF"/>
      <stop offset="0.7316" stop-color="#47C9FF"/>
      <stop offset="0.9172" stop-color="#C5EEFF"/>
      <stop offset="1" stop-color="white"/>
    </linearGradient>
    <linearGradient id="paint11_linear_7432_3895" x1="247.436" y1="337.786" x2="322.307" y2="208.107" gradientUnits="userSpaceOnUse">
      <stop stop-color="#00B4FF"/>
      <stop offset="0.0641" stop-color="#2CC1FF"/>
      <stop offset="0.2077" stop-color="#98E1FF"/>
      <stop offset="0.3371" stop-color="white"/>
      <stop offset="0.6499" stop-color="#15BAFF"/>
      <stop offset="0.7316" stop-color="#47C9FF"/>
      <stop offset="0.9172" stop-color="#C5EEFF"/>
      <stop offset="1" stop-color="white"/>
    </linearGradient>
  </defs>
  <path opacity="0.33" d="M129 244.6C130.546 244.6 131.8 243.346 131.8 241.8C131.8 240.254 130.546 239 129 239C127.454 239 126.2 240.254 126.2 241.8C126.2 243.346 127.454 244.6 129 244.6Z" fill="#15BAFF" transform="matrix(0.9999999999999999, 0, 0, 0.9999999999999999, 1.4210854715202004e-14, 3.552713678800501e-15)"/>
  <path opacity="0.33" d="M183.9 436.1C185.446 436.1 186.7 434.846 186.7 433.3C186.7 431.754 185.446 430.5 183.9 430.5C182.354 430.5 181.1 431.754 181.1 433.3C181.1 434.846 182.354 436.1 183.9 436.1Z" fill="#15BAFF" transform="matrix(0.9999999999999999, 0, 0, 0.9999999999999999, 1.4210854715202004e-14, 3.552713678800501e-15)"/>
  <path opacity="0.33" d="M429.9 430.8C431.446 430.8 432.7 429.546 432.7 428C432.7 426.454 431.446 425.2 429.9 425.2C428.354 425.2 427.1 426.454 427.1 428C427.1 429.546 428.354 430.8 429.9 430.8Z" fill="#15BAFF" transform="matrix(0.9999999999999999, 0, 0, 0.9999999999999999, 1.4210854715202004e-14, 3.552713678800501e-15)"/>
  <path opacity="0.33" d="M492 241.8C493.546 241.8 494.8 240.546 494.8 239C494.8 237.454 493.546 236.2 492 236.2C490.454 236.2 489.2 237.454 489.2 239C489.2 240.546 490.454 241.8 492 241.8Z" fill="#15BAFF" transform="matrix(0.9999999999999999, 0, 0, 0.9999999999999999, 1.4210854715202004e-14, 3.552713678800501e-15)"/>
  <path opacity="0.33" d="M626.1 525.1C627.646 525.1 628.9 523.846 628.9 522.3C628.9 520.754 627.646 519.5 626.1 519.5C624.554 519.5 623.3 520.754 623.3 522.3C623.3 523.846 624.554 525.1 626.1 525.1Z" fill="#15BAFF" transform="matrix(0.9999999999999999, 0, 0, 0.9999999999999999, 1.4210854715202004e-14, 3.552713678800501e-15)"/>
  <g opacity="0.5" transform="matrix(0.9999999999999999, 0, 0, 0.9999999999999999, 1.4210854715202004e-14, 3.552713678800501e-15)">
    <g opacity="0.5">
      <path d="M174.266 100.7C163.915 100.784 152.121 97.8148 138.461 94.421C111.226 87.6334 77.2878 79.2337 33.5925 88.9909C-67.4581 111.56 -114.802 128.105 -115.396 141.086C-116.074 154.237 -109.032 158.564 -98.5115 165.012C-80.1849 176.212 -49.5558 194.963 -21.7266 279.129C-13.3269 304.413 -13.5814 339.284 -13.836 376.107C-14.2602 431.341 -14.6844 493.872 12.8054 544.185C44.5375 602.219 108.087 633.527 207.101 639.806C224.664 640.994 242.142 641.503 259.366 641.503C293.728 641.503 327.327 639.212 359.568 634.715C405.639 628.352 449.504 617.407 490.06 602.219C566.166 573.711 630.818 530.016 676.889 475.885C708.621 438.638 730.85 397.912 742.898 354.641C755.031 311.116 756.219 267.335 746.547 224.573C736.705 181.133 708.282 144.734 662.126 116.396C637.181 101.124 607.316 88.3121 573.208 78.3852C542.748 69.4765 509.574 63.0282 474.703 59.2102C413.36 52.5074 350.065 54.6286 309.509 64.81C263.353 76.3489 241.887 85.0032 227.633 90.6878C210.58 97.4754 202.774 100.615 174.266 100.7ZM174.266 100.7V101.548" stroke="url(#paint0_linear_7432_3895)" stroke-width="0.8353" stroke-miterlimit="10"/>
      <path d="M268.105 609.262C254.19 609.262 240.106 608.837 225.852 608.074C136.425 603.238 78.3059 576.087 48.101 525.18C21.8839 480.976 20.3567 425.147 19.084 376.022C18.2355 341.745 17.3871 309.419 8.2238 285.747C-19.7751 210.15 -49.2164 191.738 -66.7793 180.793C-77.385 174.175 -84.4271 169.763 -83.9181 156.952C-83.7484 149.74 -70.7671 141.001 -45.2287 130.989C-22.2356 121.996 9.92071 112.408 47.9314 103.245C87.5541 93.4876 118.523 100.106 143.382 105.451C155.43 107.996 165.781 110.287 175.114 110.287C204.81 110.372 212.192 107.996 234.082 101.039C248.76 96.3723 268.868 90.0089 305.946 80.9305C343.871 71.6824 402.924 69.7309 460.024 75.9246C492.69 79.4033 523.574 85.3424 551.912 93.4876C583.729 102.651 611.558 114.444 634.721 128.529C676.465 153.982 702.342 186.648 711.76 225.507C721.093 264.62 720.414 304.752 709.724 344.714C699.118 384.422 679.18 421.923 650.502 456.201C609.097 505.75 550.894 545.797 482.169 572.184C445.516 586.184 405.893 596.45 364.234 602.474C333.266 606.971 301.109 609.262 268.105 609.262Z" stroke="url(#paint1_linear_7432_3895)" stroke-width="0.8353" stroke-miterlimit="10"/>
      <path d="M277.353 577.19C266.577 577.19 255.717 576.936 244.687 576.426C164.848 573.033 112.074 550.04 83.3967 506.175C58.4522 467.909 55.1433 418.954 52.2585 375.768C50.1374 344.205 48.1011 314.424 38.1742 292.534C10.0056 225.507 -18.163 207.52 -34.9623 196.744C-45.6528 189.872 -52.695 185.375 -52.4405 172.903C-52.6102 155.849 6.86634 132.262 62.1854 117.584C97.9901 107.742 125.989 112.578 148.558 116.565C158.824 118.347 167.648 119.874 175.878 119.874C209.646 120.129 215.84 118.602 250.202 109.863C263.184 106.639 279.219 102.566 302.212 97.2208C325.715 91.7059 358.21 89.0757 393.676 89.5847C433.638 90.2635 473.854 95.0148 509.998 103.414C552.76 113.341 588.48 127.765 616.055 146.431C648.211 168.151 668.659 195.132 676.719 226.695C685.628 262.245 685.458 298.643 676.21 335.042C667.047 371.186 649.399 405.463 623.776 436.771C587.038 481.57 535.282 518.053 473.939 542.234C415.057 565.397 349.047 577.105 277.353 577.19Z" stroke="url(#paint2_linear_7432_3895)" stroke-width="0.8353" stroke-miterlimit="10"/>
      <path d="M286.007 545.034C278.625 545.034 271.074 544.864 263.523 544.61C193.101 542.573 145.758 523.653 118.777 486.66C95.1901 454.334 90.3539 413.948 85.6874 374.919C82.2936 346.242 78.9846 319.091 68.2093 298.983C40.0407 240.609 14.2477 223.725 -2.80614 212.61C-14.0906 205.229 -20.8782 200.817 -20.8782 188.599C-21.4721 173.073 21.2899 148.043 76.609 131.668C108.85 121.572 134.304 124.711 154.751 127.256C162.557 128.189 169.939 129.123 176.811 129.208L180.29 129.292C220.082 129.886 223.306 129.886 298.734 113.257C319.945 108.59 350.32 106.13 382.052 106.554C418.62 107.063 455.358 111.136 488.278 118.432C527.476 127.086 560.227 139.813 585.595 156.273C615.206 175.448 634.212 199.459 641.932 227.628C650.502 259.53 650.841 292.365 643.12 325.2C635.399 357.865 620.042 388.749 597.474 417.172C565.487 457.304 520.095 490.139 466.218 512.114C412.426 534.004 351.932 545.034 286.007 545.034Z" stroke="url(#paint3_linear_7432_3895)" stroke-width="0.8353" stroke-miterlimit="10"/>
      <path d="M294.576 513.047C290.504 513.047 286.431 512.962 282.359 512.877C145.419 511.435 131.589 438.299 119.371 373.731C114.535 348.108 109.953 323.927 98.1597 305.685C70.2457 255.881 45.7254 239.591 29.4351 228.816C17.8113 221.095 10.7692 216.428 10.5995 204.465C10.0904 196.914 18.0659 186.308 32.4896 175.448C47.8465 163.909 68.5488 153.388 90.9479 145.837C120.559 135.062 142.873 136.589 162.642 137.947C167.903 138.286 172.824 138.625 177.66 138.71C184.872 138.88 191.15 139.134 196.75 139.389C222.373 140.492 237.9 141.171 295.085 129.377C331.569 121.826 400.718 119.875 466.473 133.45C502.023 140.831 531.804 151.776 554.966 166.115C582.032 182.83 599.595 203.786 607.061 228.561C615.206 256.815 616.14 286.001 609.861 315.273C603.583 344.46 590.516 372.119 570.917 397.488C543.682 432.868 504.653 462.055 458.073 481.909C409.796 502.611 354.901 513.047 294.576 513.047Z" stroke="url(#paint4_linear_7432_3895)" stroke-width="0.8353" stroke-miterlimit="10"/>
      <path d="M296.697 481.23C247.063 481.23 211.937 470.116 189.283 447.207C168.751 426.335 160.86 398.676 153.224 371.95C146.861 349.635 140.837 328.594 128.025 312.388C100.705 271.323 77.5423 255.797 62.1005 245.445C49.7979 237.215 42.4164 232.294 41.9921 220.416C40.3801 204.465 67.1063 175.278 105.117 160.176C134.473 147.195 155.515 147.704 175.963 148.298L178.254 148.383C188.096 148.722 196.326 149.486 204.301 150.249C225.597 152.285 245.79 154.237 291.267 145.667C324.442 139.389 386.464 137.607 444.498 148.722C493.369 158.055 555.136 179.69 572.02 229.749C587.632 279.044 577.535 333.175 544.361 378.313C521.792 409.027 489.126 434.565 450.013 452.128C407.166 471.388 357.786 481.145 303.061 481.23C302.382 481.23 301.788 481.23 301.109 481.23C299.667 481.23 298.14 481.23 296.697 481.23Z" stroke="url(#paint5_linear_7432_3895)" stroke-width="0.8353" stroke-miterlimit="10"/>
      <path d="M306.709 449.838C270.395 449.838 243.415 442.286 224.494 426.844C205.574 411.487 196.41 389.937 187.502 369.235C179.866 351.502 172.06 333.175 158.145 319.091C132.013 286.85 110.293 272.257 95.8689 262.669C82.4633 253.76 74.403 248.33 73.6394 236.452C71.688 221.349 88.657 189.787 119.541 174.6C141.346 162.297 159.163 157.376 179.187 158.055C189.793 158.479 199.041 159.921 208.713 161.534C229.246 164.758 250.542 168.151 287.704 162.043C317.654 157.037 372.719 155.51 422.777 164.079C466.133 171.46 521.113 189.108 537.234 231.022C552.166 273.275 545.209 320.024 518.143 359.223C500.156 385.016 473.854 406.906 442.037 422.263C406.827 439.317 365.761 448.48 319.945 449.498C315.448 449.668 311.036 449.838 306.709 449.838Z" stroke="url(#paint6_linear_7432_3895)" stroke-width="0.8353" stroke-miterlimit="10"/>
      <path d="M316.212 418.954C257.753 418.954 240.106 392.652 221.525 364.992C212.361 351.332 202.859 337.248 188.18 325.709C164.339 302.461 145.249 289.989 131.334 280.826C115.214 270.305 106.39 264.536 105.287 252.233C104.014 244.003 105.965 231.701 110.377 220.331C115.723 206.502 124.122 195.302 134.049 188.854C149.915 176.297 163.321 166.794 180.205 167.558C190.811 168.151 201.077 170.442 212.022 172.903C231.706 177.315 254.02 182.236 284.31 178.163C305.267 175.278 353.544 172.224 401.142 179.097C425.917 182.66 446.873 188.429 463.333 196.235C482.763 205.399 495.914 217.447 502.532 231.955C516.956 267.166 513.222 306.619 492.181 340.133C478.86 361.344 458.921 379.501 434.401 392.652C407.336 407.16 375.264 415.645 339.035 417.851C330.635 418.53 323.084 418.954 316.212 418.954Z" stroke="url(#paint7_linear_7432_3895)" stroke-width="0.8353" stroke-miterlimit="10"/>
      <path d="M324.696 389.258C289.401 389.258 273.026 375.259 253.426 358.459C243.245 349.72 232.639 340.642 218.046 332.242C199.126 318.412 183.684 309.079 171.296 301.613C150 288.717 138.292 281.674 136.595 268.099C133.88 252.997 134.389 217.192 148.049 203.108C148.897 202.005 149.661 200.902 150.424 199.799C158.824 188.175 167.478 176.212 180.714 177.06C190.98 177.824 202.35 181.048 214.483 184.527C233.997 190.126 256.142 196.49 280.407 194.284C306.624 191.823 438.728 181.981 467.321 232.888C481.49 261.142 480.981 293.383 466.049 321.382C457.14 338.096 443.734 352.096 426.256 363.041C407.166 375.004 384.088 382.725 357.616 386.034C344.974 388.325 334.199 389.258 324.696 389.258Z" stroke="url(#paint8_linear_7432_3895)" stroke-width="0.8353" stroke-miterlimit="10"/>
      <path d="M329.957 363.21C309.085 363.21 292.286 356.508 269.123 347.175C262.505 344.544 255.717 341.829 248.081 338.86C242.566 336.145 237.391 333.684 232.555 331.309C190.302 310.776 170.957 301.443 168.157 283.88C165.442 270.899 157.212 231.276 162.472 217.362C165.272 202.429 170.024 185.46 181.647 186.393C191.405 187.326 204.131 191.738 217.622 196.49C236.712 203.192 258.263 210.744 276.759 210.235C280.238 210.15 284.48 209.895 289.401 209.725C309.339 208.792 339.544 207.35 367.374 209.895C400.718 212.95 422.608 220.925 432.45 233.737C446.619 254.778 449.928 280.741 441.359 303.14C431.771 328 408.778 346.072 376.452 354.132C357.616 360.58 343.023 363.21 329.957 363.21Z" stroke="url(#paint9_linear_7432_3895)" stroke-width="0.8353" stroke-miterlimit="10"/>
      <path d="M317.824 349.805C305.691 349.805 292.455 348.363 278.032 345.478C226.955 332.327 203.537 318.667 199.635 299.831C197.598 291.177 191.659 274.632 186.399 260.039C182.241 248.5 178.338 237.555 176.811 231.87C174.945 227.034 173.842 220.331 173.757 213.883C173.672 206.841 174.945 201.326 177.151 198.441C178.508 196.659 180.29 195.811 182.411 196.066C191.659 197.169 206.507 203.362 222.203 209.895C240.869 217.616 260.214 225.677 273.111 226.61C280.153 227.119 291.267 226.525 304.164 225.761C336.151 223.98 380.1 221.604 397.409 234.925C412.935 248.67 421.505 268.354 419.808 286.256C418.365 301.274 409.881 313.831 395.203 322.57C378.488 335.296 362.707 343.017 345.738 346.92C337.084 348.872 327.836 349.805 317.824 349.805Z" stroke="url(#paint10_linear_7432_3895)" stroke-width="0.8353" stroke-miterlimit="10"/>
      <path d="M312.564 352.181C311.036 352.181 309.509 352.181 307.982 352.096C283.207 351.247 263.862 346.92 250.627 339.199C240.191 333.175 233.658 325.285 231.112 315.697C227.04 300.001 203.198 258.427 191.235 246.124C186.823 241.543 182.92 233.991 180.714 225.337C178.678 217.531 178.423 210.489 180.035 207.35C180.799 205.992 181.817 205.314 183.175 205.568C192.592 207.095 212.87 216.938 232.555 226.44C247.827 233.822 262.25 240.779 269.462 242.815C277.692 245.106 294.746 242.476 312.903 239.676C331.569 236.791 350.829 233.907 362.453 235.943C374.585 238.064 388.415 245.276 398.512 254.778C410.305 265.808 415.905 278.535 414.208 290.668C412.172 304.837 399.784 320.449 381.034 332.497C361.18 345.223 336.999 352.181 312.564 352.181Z" stroke="url(#paint11_linear_7432_3895)" stroke-width="0.8353" stroke-miterlimit="10"/>
    </g>
  </g>
  <path d="M 351.747 430 L 348 433.748 L 351.747 437.496 L 355.495 433.748 L 351.747 430 Z" fill="#00B4FF" transform="matrix(0.9999999999999999, 0, 0, 0.9999999999999999, 1.4210854715202004e-14, 3.552713678800501e-15)"/>
  <path d="M 362.748 178 L 359 181.748 L 362.748 185.496 L 366.496 181.748 L 362.748 178 Z" fill="#00B4FF" transform="matrix(0.9999999999999999, 0, 0, 0.9999999999999999, 1.4210854715202004e-14, 3.552713678800501e-15)"/>
  <path d="M501.735 372.402L497.988 376.149L501.735 379.897L505.483 376.149L501.735 372.402Z" fill="#00B4FF" transform="matrix(0.9999999999999999, 0, 0, 0.9999999999999999, 1.4210854715202004e-14, 3.552713678800501e-15)"/>
  <g id="SVGRepo_bgCarrier" stroke-width="0" transform="matrix(0.9999999999999999, 0, 0, 0.9999999999999999, 576.79248046875, 313.82305908203125)"/>
  <g id="SVGRepo_tracerCarrier" stroke-linecap="round" stroke-linejoin="round" transform="matrix(0.9999999999999999, 0, 0, 0.9999999999999999, 576.79248046875, 313.82305908203125)"/>
  <g id="SVGRepo_iconCarrier" transform="matrix(0.9999999999999999, 0, 0, 0.9999999999999999, 576.79248046875, 313.82305908203125)">
    <g>
      <g>
        <path d="M103.002,206.003c-1.102,0-2.203-0.303-3.175-0.909C43.867,170.2,22.4,126.118,14.246,95.282 C5.527,62.313,9.67,37.499,10.002,35.636l0.096-0.596c0.46-2.875,2.918-5.004,5.829-5.05c0.301-0.007,32.023-0.993,58.541-28.18 c1.803-1.848,4.586-2.336,6.91-1.211c6.77,3.277,14.045,4.938,21.624,4.938s14.854-1.662,21.624-4.938 c2.325-1.125,5.107-0.637,6.91,1.211c26.688,27.362,58.226,28.175,58.541,28.18c2.911,0.046,5.369,2.175,5.829,5.05l0.096,0.596 c0.333,1.863,4.475,26.677-4.244,59.646c-8.154,30.836-29.621,74.918-85.581,109.813 C105.205,205.7,104.103,206.003,103.002,206.003z M21.328,41.569c-0.8,7.938-1.717,27.418,4.667,51.203 c10.871,40.5,36.77,74.169,77.005,100.126c50.261-32.47,69.711-72.531,77.156-100.684c6.254-23.649,5.334-42.796,4.528-50.644 c-10.673-1.301-35.839-6.633-58.756-28.433c-7.276,2.922-14.969,4.401-22.927,4.401S87.35,16.06,80.074,13.137 C57.165,34.93,32.007,40.265,21.328,41.569z"/>
      </g>
      <g>
        <path d="M103.002,168.796c-1.102,0-2.203-0.303-3.175-0.909c-35.771-22.305-49.492-51.723-54.705-72.474 c-5.662-22.54-2.809-39.755-2.685-40.477l0.055-0.343c0.46-2.875,2.918-5.004,5.829-5.05c0.165-0.004,19.228-0.662,35.174-17.011 c1.803-1.848,4.586-2.336,6.91-1.211c3.943,1.909,8.181,2.876,12.597,2.876s8.654-0.968,12.597-2.876 c2.325-1.125,5.107-0.637,6.91,1.211c15.946,16.349,35.01,17.006,35.201,17.011c2.891,0.071,5.346,2.195,5.803,5.05l0.066,0.412 c0.113,0.653,2.965,17.868-2.696,40.408c-5.212,20.751-18.935,50.169-54.705,72.474 C105.205,168.493,104.103,168.796,103.002,168.796z M53.843,60.998c-0.428,5.966-0.575,17.884,3.046,31.998 c6.598,25.72,22.105,46.789,46.113,62.67c24.007-15.881,39.515-36.95,46.113-62.67c3.625-14.129,3.474-26.057,3.047-31.998 c-7.563-1.195-21.931-5.014-35.276-17.213c-4.433,1.603-9.086,2.413-13.884,2.413c-4.798,0-9.451-0.81-13.884-2.413 C75.773,55.983,61.406,59.802,53.843,60.998z"/>
      </g>
      <polygon points="103.002,62.686 109.126,81.534 128.944,81.534 112.911,93.183 119.035,112.031 103.002,100.382 86.969,112.031 93.093,93.183 77.06,81.534 96.878,81.534 "/>
    </g>
  </g>
  <g id="g-1" stroke-width="0" transform="matrix(0.9999999999999999, 0, 0, 0.9999999999999999, 677, 481.09729003906244)"/>
  <g id="g-2" stroke-linecap="round" stroke-linejoin="round" transform="matrix(0.9999999999999999, 0, 0, 0.9999999999999999, 677, 481.09729003906244)"/>
  <g id="g-3" transform="matrix(0.9999999999999999, 0, 0, 0.9999999999999999, 677, 481.09729003906244)">
    <title>ai-solid</title>
    <g id="Layer_2" data-name="Layer 2">
      <g id="invisible_box" data-name="invisible box">
        <rect width="48" height="48" fill="none"/>
      </g>
      <g id="Q3_icons" data-name="Q3 icons">
        <g>
          <path d="M17.9,2h-.4L7.6,6.6a1,1,0,0,0-.6.9v7.4l-.6.5-4,3.3a.8.8,0,0,0-.4.8v9a.9.9,0,0,0,.4.8l4,3.3.6.5v7.4a1,1,0,0,0,.6.9l9.9,4.5h.4l.6-.2,4-2.7V25.5H21a1.5,1.5,0,0,1,0-3h1.5V4.9l-4-2.7ZM9,13.5l2.8,1.9a1.5,1.5,0,0,1,.4,2.1,1.4,1.4,0,0,1-1.2.7,1.1,1.1,0,0,1-.8-.3L9,17.1Zm-5,9H7.5a1.5,1.5,0,0,1,0,3H4Zm5,8.4,1.2-.8a1.4,1.4,0,0,1,2,.4,1.5,1.5,0,0,1-.4,2.1L9,34.5ZM19.5,18.6l-4,4v2.8l4,4v5.2l-3.4,3.5a2.1,2.1,0,0,1-1.1.4,2.1,2.1,0,0,1-1.1-.4,1.6,1.6,0,0,1,0-2.2l2.6-2.5V30.6l-4-4V21.4l4-4V14.6l-2.6-2.5a1.6,1.6,0,1,1,2.2-2.2l3.4,3.5Z"/>
          <path d="M45.6,18.7l-4-3.3-.6-.5V7.5a1,1,0,0,0-.6-.9L30.5,2.1h-.4l-.6.2-4,2.7V22.5H27a1.5,1.5,0,0,1,0,3H25.5V43.1l4,2.7.6.2h.4l9.9-4.5a1,1,0,0,0,.6-.9V33.1l.6-.5,4-3.3a.9.9,0,0,0,.4-.8v-9A.8.8,0,0,0,45.6,18.7ZM39,17.1l-1.2.8a1.1,1.1,0,0,1-.8.3,1.4,1.4,0,0,1-1.2-.7,1.5,1.5,0,0,1,.4-2.1L39,13.5ZM28.5,29.4l4-4V22.6l-4-4V13.4l3.4-3.5a1.6,1.6,0,0,1,2.2,2.2l-2.6,2.5v2.8l4,4v5.2l-4,4v2.8l2.6,2.5a1.6,1.6,0,0,1,0,2.2,1.7,1.7,0,0,1-2.2,0l-3.4-3.5ZM39,34.5l-2.8-1.9a1.5,1.5,0,0,1-.4-2.1,1.4,1.4,0,0,1,2-.4l1.2.8Zm5-9H40.5a1.5,1.5,0,0,1,0-3H44Z"/>
        </g>
      </g>
    </g>
  </g>
  <g id="g-4" stroke-width="0" transform="matrix(1.1666669845581052, 0, 0, 1.1666669845581052, 596.0000610351562, 144.00001525878906)"/>
  <g id="g-5" stroke-linecap="round" stroke-linejoin="round" transform="matrix(1.1666669845581052, 0, 0, 1.1666669845581052, 596.0000610351562, 144.00001525878906)"/>
  <g id="g-6" transform="matrix(1.1666669845581052, 0, 0, 1.1666669845581052, 596.0000610351562, 144.00001525878906)">
    <title>ai-solid</title>
    <g id="g-7" data-name="Layer 2">
      <g id="g-8" data-name="invisible box">
        <g id="g-10" stroke-width="0" transform="matrix(0.857143, 0, 0, 0.857143, -275.999969, 100.285675)"/>
        <g id="g-11" stroke-linecap="round" stroke-linejoin="round" transform="matrix(0.857143, 0, 0, 0.857143, -275.999969, 100.285675)"/>
        <g id="g-12" transform="matrix(0.857143, 0, 0, 0.857143, -275.999969, 100.285675)">
          <title>ai-solid</title>
          <g id="g-13" data-name="Layer 2">
            <g id="g-14" data-name="invisible box"/>
            <g id="g-15" data-name="Q3 icons">
              <g>
                <path d="M 30.5 46 L 25.5 43.1 L 29.5 45.8 L 30.1 46 L 30.5 46 Z" style="fill: rgb(46, 179, 251);"/>
              </g>
            </g>
          </g>
        </g>
      </g>
      <g id="g-9" data-name="Q3 icons" transform="matrix(1, 0, 0, 1, -73.136192, 0)">
        <g>
          <path d="M17.9,2h-.4L7.6,6.6a1,1,0,0,0-.6.9v7.4l-.6.5-4,3.3a.8.8,0,0,0-.4.8v9a.9.9,0,0,0,.4.8l4,3.3.6.5v7.4a1,1,0,0,0,.6.9l9.9,4.5h.4l.6-.2,4-2.7V25.5H21a1.5,1.5,0,0,1,0-3h1.5V4.9l-4-2.7ZM9,13.5l2.8,1.9a1.5,1.5,0,0,1,.4,2.1,1.4,1.4,0,0,1-1.2.7,1.1,1.1,0,0,1-.8-.3L9,17.1Zm-5,9H7.5a1.5,1.5,0,0,1,0,3H4Zm5,8.4,1.2-.8a1.4,1.4,0,0,1,2,.4,1.5,1.5,0,0,1-.4,2.1L9,34.5ZM19.5,18.6l-4,4v2.8l4,4v5.2l-3.4,3.5a2.1,2.1,0,0,1-1.1.4,2.1,2.1,0,0,1-1.1-.4,1.6,1.6,0,0,1,0-2.2l2.6-2.5V30.6l-4-4V21.4l4-4V14.6l-2.6-2.5a1.6,1.6,0,1,1,2.2-2.2l3.4,3.5Z" style="stroke: rgb(46, 179, 251);"/>
          <path d="M45.6,18.7l-4-3.3-.6-.5V7.5a1,1,0,0,0-.6-.9L30.5,2.1h-.4l-.6.2-4,2.7V22.5H27a1.5,1.5,0,0,1,0,3H25.5V43.1l4,2.7.6.2h.4l9.9-4.5a1,1,0,0,0,.6-.9V33.1l.6-.5,4-3.3a.9.9,0,0,0,.4-.8v-9A.8.8,0,0,0,45.6,18.7ZM39,17.1l-1.2.8a1.1,1.1,0,0,1-.8.3,1.4,1.4,0,0,1-1.2-.7,1.5,1.5,0,0,1,.4-2.1L39,13.5ZM28.5,29.4l4-4V22.6l-4-4V13.4l3.4-3.5a1.6,1.6,0,0,1,2.2,2.2l-2.6,2.5v2.8l4,4v5.2l-4,4v2.8l2.6,2.5a1.6,1.6,0,0,1,0,2.2,1.7,1.7,0,0,1-2.2,0l-3.4-3.5ZM39,34.5l-2.8-1.9a1.5,1.5,0,0,1-.4-2.1,1.4,1.4,0,0,1,2-.4l1.2.8Zm5-9H40.5a1.5,1.5,0,0,1,0-3H44Z" style="stroke: rgb(46, 179, 251);"/>
        </g>
      </g>
    </g>
  </g>
  <g id="g-16" stroke-width="0" transform="matrix(0.3252370357513427, 0, 0, 0.3252370357513427, 266, 258.0002136230468)"/>
  <g id="g-17" stroke-linecap="round" stroke-linejoin="round" transform="matrix(0.3252370357513427, 0, 0, 0.3252370357513427, 266, 258.0002136230468)"/>
  <g id="g-18" transform="matrix(0.3252370357513427, 0, 0, 0.3252370357513427, 266, 258.0002136230468)">
    <g>
      <g>
        <path d="M103.002,206.003c-1.102,0-2.203-0.303-3.175-0.909C43.867,170.2,22.4,126.118,14.246,95.282 C5.527,62.313,9.67,37.499,10.002,35.636l0.096-0.596c0.46-2.875,2.918-5.004,5.829-5.05c0.301-0.007,32.023-0.993,58.541-28.18 c1.803-1.848,4.586-2.336,6.91-1.211c6.77,3.277,14.045,4.938,21.624,4.938s14.854-1.662,21.624-4.938 c2.325-1.125,5.107-0.637,6.91,1.211c26.688,27.362,58.226,28.175,58.541,28.18c2.911,0.046,5.369,2.175,5.829,5.05l0.096,0.596 c0.333,1.863,4.475,26.677-4.244,59.646c-8.154,30.836-29.621,74.918-85.581,109.813 C105.205,205.7,104.103,206.003,103.002,206.003z M21.328,41.569c-0.8,7.938-1.717,27.418,4.667,51.203 c10.871,40.5,36.77,74.169,77.005,100.126c50.261-32.47,69.711-72.531,77.156-100.684c6.254-23.649,5.334-42.796,4.528-50.644 c-10.673-1.301-35.839-6.633-58.756-28.433c-7.276,2.922-14.969,4.401-22.927,4.401S87.35,16.06,80.074,13.137 C57.165,34.93,32.007,40.265,21.328,41.569z" style="stroke: rgb(46, 179, 251);"/>
      </g>
      <g>
        <path d="M103.002,168.796c-1.102,0-2.203-0.303-3.175-0.909c-35.771-22.305-49.492-51.723-54.705-72.474 c-5.662-22.54-2.809-39.755-2.685-40.477l0.055-0.343c0.46-2.875,2.918-5.004,5.829-5.05c0.165-0.004,19.228-0.662,35.174-17.011 c1.803-1.848,4.586-2.336,6.91-1.211c3.943,1.909,8.181,2.876,12.597,2.876s8.654-0.968,12.597-2.876 c2.325-1.125,5.107-0.637,6.91,1.211c15.946,16.349,35.01,17.006,35.201,17.011c2.891,0.071,5.346,2.195,5.803,5.05l0.066,0.412 c0.113,0.653,2.965,17.868-2.696,40.408c-5.212,20.751-18.935,50.169-54.705,72.474 C105.205,168.493,104.103,168.796,103.002,168.796z M53.843,60.998c-0.428,5.966-0.575,17.884,3.046,31.998 c6.598,25.72,22.105,46.789,46.113,62.67c24.007-15.881,39.515-36.95,46.113-62.67c3.625-14.129,3.474-26.057,3.047-31.998 c-7.563-1.195-21.931-5.014-35.276-17.213c-4.433,1.603-9.086,2.413-13.884,2.413c-4.798,0-9.451-0.81-13.884-2.413 C75.773,55.983,61.406,59.802,53.843,60.998z" style="stroke: rgb(46, 179, 251);"/>
      </g>
      <polygon points="103.002,62.686 109.126,81.534 128.944,81.534 112.911,93.183 119.035,112.031 103.002,100.382 86.969,112.031 93.093,93.183 77.06,81.534 96.878,81.534 " style="stroke: rgb(46, 179, 251);"/>
    </g>
  </g>
  <g id="g-19" stroke-width="0" transform="matrix(0.9999999999999999, 0, 0, 0.9999999999999999, 94, 163)"/>
  <g id="g-20" stroke-linecap="round" stroke-linejoin="round" transform="matrix(0.9999999999999999, 0, 0, 0.9999999999999999, 94, 163)"/>
  <g id="g-21" transform="matrix(0.9999999999999999, 0, 0, 0.9999999999999999, 94, 163)">
    <path d="M49.2,51H33.2l-2.5-23.7c0.5-0.3,0.9-0.7,1.3-1.1l11,7.8c0.2,0.1,0.4,0.2,0.6,0.2c0.2,0,0.5-0.1,0.7-0.3l1.5-1.4 c0.2-0.2,0.3-0.5,0.3-0.7s-0.1-0.6-0.3-0.7l-10.6-9.7c-0.4-0.4-1-0.3-1.4,0L33.2,22c-0.3-2.1-1.8-3.7-3.8-4.3l3.5-12.6 c0.1-0.5-0.1-1-0.6-1.2l-1.9-0.8c-0.5-0.2-1.1,0-1.3,0.5l-5.8,13c-0.1,0.2-0.1,0.5,0,0.8c0.1,0.3,0.3,0.5,0.6,0.6l1.3,0.5 c-1.4,0.9-2.3,2.5-2.3,4.4c0,0.2,0,0.3,0.1,0.5L9,25.8c-0.3,0.1-0.5,0.2-0.7,0.5c-0.1,0.2-0.2,0.5-0.1,0.8l0.6,2 c0.1,0.4,0.5,0.7,1,0.7c0,0,0,0,0.1,0L24,29c0.5,0,1-0.5,0.9-1l0-1c0.1,0.1,0.3,0.2,0.4,0.2L22.8,51H6.8c-0.6,0-1,0.4-1,1s0.4,1,1,1 h17h8.5h17c0.6,0,1-0.4,1-1S49.8,51,49.2,51z M34.5,23.5l9.1,8.3l-0.1,0.1l-10.2-7.2L34.5,23.5z M30.5,5.3l0.2,0.1l-3.2,11.8 l-1.9-0.8L30.5,5.3z M28,19.5c1.8,0,3.3,1.5,3.3,3.3S29.8,26,28,26s-3.3-1.5-3.3-3.3S26.2,19.5,28,19.5z M10.5,27.7l0-0.1L23,25.3 l0,1.8L10.5,27.7z M24.9,51l2.4-23.1c0.2,0,0.5,0.1,0.7,0.1c0.2,0,0.5,0,0.7-0.1L31.1,51H24.9z" style="stroke: rgb(123, 201, 241);"/>
  </g>
</svg>