<?xml version="1.0" standalone="no"?>
<!DOCTYPE svg PUBLIC "-//W3C//DTD SVG 20010904//EN"
 "http://www.w3.org/TR/2001/REC-SVG-20010904/DTD/svg10.dtd">
<svg version="1.0" xmlns="http://www.w3.org/2000/svg"
 width="578.000000pt" height="578.000000pt" viewBox="0 0 578.000000 578.000000"
 preserveAspectRatio="xMidYMid meet">
<metadata>
Created by potrace 1.14, written by Peter Selinger 2001-2017
</metadata>
<g transform="translate(0.000000,578.000000) scale(0.100000,-0.100000)"
fill="#000000" stroke="none">
<path d="M2849 5537 c-40 -18 -56 -34 -88 -91 -31 -56 -161 -194 -226 -242
-22 -16 -42 -31 -45 -34 -30 -31 -440 -285 -440 -272 0 4 -4 2 -8 -4 -9 -14
-468 -244 -486 -244 -2 0 -21 -8 -42 -17 -22 -9 -41 -17 -44 -18 -3 -1 -18 -7
-35 -14 -16 -7 -34 -14 -40 -15 -5 -2 -17 -6 -25 -9 -140 -53 -318 -71 -556
-56 -42 3 -104 -16 -104 -32 0 -5 -6 -9 -13 -9 -14 0 -45 -81 -45 -115 0 -11
4 -36 9 -55 4 -19 10 -47 13 -62 2 -15 7 -32 10 -36 3 -5 6 -25 8 -45 1 -21 5
-37 8 -37 3 0 5 -10 6 -22 0 -24 2 -35 28 -173 9 -44 18 -96 21 -115 3 -19 10
-53 15 -75 4 -22 11 -67 15 -100 6 -56 38 -248 71 -435 4 -19 8 -44 9 -55 4
-22 5 -31 36 -190 11 -60 22 -119 24 -130 2 -11 11 -56 20 -100 9 -44 19 -91
21 -105 3 -14 7 -32 9 -40 2 -8 7 -31 10 -50 3 -19 11 -53 16 -75 11 -41 14
-55 25 -115 4 -19 9 -39 13 -45 3 -5 6 -14 7 -20 8 -41 28 -121 45 -180 37
-124 60 -200 66 -215 4 -8 7 -17 8 -20 16 -60 113 -299 156 -385 207 -410 459
-627 1101 -949 192 -97 437 -196 482 -196 28 0 108 25 161 50 11 5 34 14 50
20 157 56 533 254 760 400 55 35 102 67 105 70 3 3 32 25 65 50 88 67 214 194
283 288 34 46 62 88 62 92 0 5 7 15 15 23 24 25 161 316 204 437 23 63 45 122
48 130 3 8 7 20 8 25 1 6 3 12 4 15 2 3 4 12 6 20 2 8 15 53 30 100 30 99 65
231 81 307 2 12 8 33 14 47 5 13 6 26 3 29 -3 3 -1 12 3 19 4 7 9 19 10 28 3
24 14 83 20 102 3 9 6 25 8 35 25 123 66 335 70 358 3 17 8 41 11 55 3 14 8
41 10 60 2 19 7 46 10 60 8 40 17 83 19 105 6 43 18 113 31 180 8 39 19 108
25 155 13 104 18 138 25 170 3 14 8 40 11 59 3 18 8 43 10 55 2 11 8 46 14 76
6 30 13 66 16 80 3 14 7 39 9 55 3 17 7 41 10 55 3 14 7 36 10 50 3 14 11 51
19 84 38 160 -22 242 -174 236 -241 -8 -321 -3 -420 25 -30 9 -62 18 -70 20
-8 2 -16 4 -17 5 -2 2 -7 4 -13 5 -5 1 -11 3 -12 5 -2 1 -10 3 -18 5 -25 5
-188 73 -250 104 -32 16 -61 27 -64 23 -3 -3 -6 0 -6 6 0 7 -5 12 -10 12 -17
0 -283 135 -410 208 -89 52 -296 186 -370 240 -95 70 -234 211 -261 265 -28
56 -47 76 -88 93 -40 17 -76 17 -112 1z m118 -437 c32 -30 81 -73 108 -95 28
-22 52 -42 55 -46 3 -3 34 -25 70 -50 36 -24 69 -48 75 -52 16 -13 176 -112
225 -139 25 -14 89 -51 142 -81 53 -30 98 -53 101 -51 2 3 10 -2 17 -11 7 -8
16 -15 20 -15 4 0 72 -31 151 -69 185 -88 288 -133 369 -160 36 -12 74 -26 85
-31 19 -7 88 -27 127 -36 10 -2 28 -6 41 -9 43 -10 123 -17 207 -19 84 -2 85
-2 81 -26 -4 -32 -9 -54 -11 -57 -2 -2 -3 -11 -4 -20 -2 -17 -13 -83 -22 -128
-2 -11 -7 -33 -9 -50 -3 -16 -8 -37 -10 -45 -2 -8 -7 -35 -10 -60 -4 -24 -11
-52 -15 -61 -5 -9 -7 -19 -4 -22 3 -3 1 -22 -5 -43 -5 -22 -12 -66 -16 -99 -4
-49 -15 -134 -20 -155 -7 -30 -19 -100 -21 -120 -1 -14 -3 -25 -4 -25 -2 0 -8
-31 -15 -84 -3 -25 -8 -47 -10 -50 -1 -3 -6 -31 -10 -61 -4 -30 -9 -59 -12
-63 -2 -4 -7 -24 -9 -45 -5 -39 -6 -43 -24 -132 -6 -30 -14 -66 -16 -80 -11
-55 -66 -316 -71 -335 -2 -11 -6 -29 -8 -40 -9 -48 -68 -264 -96 -352 -17 -54
-32 -102 -34 -108 -1 -5 -7 -23 -13 -38 -7 -16 -12 -34 -12 -40 0 -7 -7 -23
-16 -35 -8 -12 -13 -22 -10 -22 7 0 -57 -150 -108 -250 -38 -75 -66 -121 -133
-220 -9 -14 -58 -66 -109 -116 -92 -92 -216 -185 -353 -266 -40 -24 -85 -50
-99 -59 -85 -50 -413 -219 -426 -219 -4 0 -25 -8 -49 -19 -23 -10 -66 -29 -96
-41 l-55 -22 -55 22 c-31 12 -74 30 -96 38 -155 63 -544 274 -710 385 -262
177 -408 365 -548 707 -56 139 -141 399 -168 519 -6 25 -12 53 -15 61 -38 147
-115 522 -109 528 3 3 1 10 -4 16 -5 6 -12 33 -15 60 -4 27 -9 53 -11 57 -3 4
-7 24 -10 45 -4 35 -9 65 -30 174 -4 19 -8 46 -10 60 -4 30 -11 68 -30 175 -8
44 -17 112 -20 150 -4 39 -11 88 -17 110 -5 22 -12 49 -13 60 -4 26 -15 91
-21 119 -2 11 -7 36 -10 55 -3 18 -8 43 -10 55 -14 63 -34 177 -34 196 0 13
16 15 105 15 58 0 105 2 105 5 0 3 15 7 34 8 18 1 58 9 87 17 30 9 63 17 73
20 61 15 214 72 311 116 28 13 52 23 55 24 3 0 64 29 135 64 72 35 155 75 185
89 30 14 57 28 60 32 3 3 19 12 35 20 61 30 281 163 377 228 55 37 110 74 122
82 45 30 99 77 169 146 40 39 75 70 79 70 3 -1 33 -26 65 -56z"/>
<path d="M2680 4465 c-320 -55 -569 -183 -795 -410 -228 -227 -358 -482 -413
-807 -12 -73 -7 -397 7 -463 82 -374 247 -647 532 -880 86 -71 268 -171 391
-216 159 -59 276 -80 458 -84 197 -5 304 9 470 61 380 119 682 377 861 735 36
71 70 156 85 209 52 189 59 245 59 450 -1 134 -5 185 -24 269 -111 508 -455
901 -934 1070 -90 32 -97 33 -182 51 -27 6 -61 13 -75 16 -53 13 -366 12 -440
-1z"/>
</g>
</svg>
